<?xml version="1.0" encoding="UTF-8" ?>
<!DOCTYPE svg PUBLIC "-//W3C//DTD SVG 1.1//EN" "http://www.w3.org/Graphics/SVG/1.1/DTD/svg11.dtd">
<svg width="187pt" height="184pt" viewBox="0 0 187 184" version="1.1" xmlns="http://www.w3.org/2000/svg">
<g id="#538ac0ff">
<path fill="#538ac0" opacity="1.00" d=" M 33.64 15.65 C 37.30 11.89 42.78 10.24 47.94 10.38 C 56.36 10.40 64.80 10.07 73.20 10.74 C 70.70 10.84 68.21 11.05 65.71 11.24 C 66.17 14.84 66.36 18.57 65.11 22.04 C 62.15 30.58 58.52 38.97 53.23 46.35 C 50.84 49.52 49.70 53.92 46.25 56.11 C 43.55 54.77 41.17 52.89 38.68 51.21 C 32.90 47.13 30.35 39.85 30.42 32.99 C 30.44 27.16 29.63 20.45 33.64 15.65 Z" />
</g>
<g id="#497ab5ff">
<path fill="#497ab5" opacity="1.00" d=" M 65.71 11.24 C 68.21 11.05 70.70 10.84 73.20 10.74 C 75.71 11.24 78.19 12.02 80.47 13.19 C 82.73 16.31 85.39 19.97 84.21 24.06 C 82.32 31.64 81.36 39.58 77.82 46.64 C 76.23 50.06 75.72 53.87 74.23 57.32 C 72.65 60.13 69.78 61.88 67.19 63.65 C 62.54 65.01 57.84 66.58 53.06 67.28 C 47.93 62.27 42.86 57.07 38.68 51.21 C 41.17 52.89 43.55 54.77 46.25 56.11 C 49.70 53.92 50.84 49.52 53.23 46.35 C 58.52 38.97 62.15 30.58 65.11 22.04 C 66.36 18.57 66.17 14.84 65.71 11.24 Z" />
</g>
<g id="#62b9aeff">
<path fill="#62b9ae" opacity="1.00" d=" M 105.99 15.05 C 112.11 10.58 119.95 10.16 127.25 10.33 C 128.58 12.09 130.72 13.64 130.84 16.03 C 130.81 24.29 128.31 32.28 125.15 39.83 C 123.32 46.79 120.47 53.52 116.10 59.27 C 114.45 60.85 112.01 61.06 109.90 61.65 C 105.81 61.71 101.72 61.43 97.64 61.21 C 97.39 51.47 97.57 41.73 97.43 31.99 C 97.27 25.36 100.97 19.15 105.99 15.05 Z" />
</g>
<g id="#52ada2ff">
<path fill="#52ada2" opacity="1.00" d=" M 127.25 10.33 C 132.93 10.32 138.62 10.49 144.30 10.28 C 145.95 12.24 148.82 13.96 148.41 16.91 C 148.07 21.56 147.47 26.19 147.40 30.86 C 147.15 36.88 144.18 42.26 142.72 48.00 C 141.12 54.61 137.05 60.48 136.67 67.39 L 136.59 68.00 C 127.91 65.05 118.96 63.06 109.90 61.65 C 112.01 61.06 114.45 60.85 116.10 59.27 C 120.47 53.52 123.32 46.79 125.15 39.83 C 128.31 32.28 130.81 24.29 130.84 16.03 C 130.72 13.64 128.58 12.09 127.25 10.33 Z" />
</g>
<g id="#48a297ff">
<path fill="#48a297" opacity="1.00" d=" M 144.30 10.28 C 149.57 11.46 155.66 13.66 157.73 19.17 C 159.97 26.13 159.79 33.79 157.59 40.74 C 155.77 46.31 151.25 50.27 147.85 54.86 C 144.11 59.03 140.81 63.60 136.67 67.39 C 137.05 60.48 141.12 54.61 142.72 48.00 C 144.18 42.26 147.15 36.88 147.40 30.86 C 147.47 26.19 148.07 21.56 148.41 16.91 C 148.82 13.96 145.95 12.24 144.30 10.28 Z" />
</g>
<g id="#4270acff">
<path fill="#4270ac" opacity="1.00" d=" M 80.47 13.19 C 88.09 16.53 92.34 24.93 92.43 33.00 C 92.50 42.49 92.73 51.99 92.33 61.48 C 83.88 61.33 75.48 62.02 67.19 63.65 C 69.78 61.88 72.65 60.13 74.23 57.32 C 75.72 53.87 76.23 50.06 77.82 46.64 C 81.36 39.58 82.32 31.64 84.21 24.06 C 85.39 19.97 82.73 16.31 80.47 13.19 Z" />
</g>
<g id="#23305cff">
<path fill="#23305c" opacity="1.00" d=" M 30.77 59.81 C 38.31 64.94 43.25 72.94 49.88 79.11 C 54.00 83.97 58.49 88.48 62.87 93.11 C 65.87 97.09 69.60 100.39 72.89 104.10 C 76.64 108.99 81.34 113.04 85.07 117.95 C 87.69 121.39 92.65 124.03 92.40 128.90 C 91.13 132.90 87.47 136.06 83.64 137.51 C 71.09 138.02 58.50 137.62 45.93 137.75 C 41.29 138.02 36.67 135.81 33.53 132.48 C 30.04 128.49 30.44 122.92 30.48 118.00 C 30.74 98.60 30.15 79.19 30.77 59.81 M 45.43 117.37 C 41.52 118.94 42.96 125.78 47.17 125.72 C 50.09 126.33 53.12 124.12 52.88 121.02 C 53.22 117.19 48.24 116.02 45.43 117.37 Z" />
</g>
<g id="#348a82ff">
<path fill="#348a82" opacity="1.00" d=" M 126.51 93.51 C 136.90 82.65 145.64 70.19 156.94 60.21 C 157.30 60.47 158.03 61.00 158.39 61.26 C 159.02 69.82 158.40 78.43 158.79 87.00 C 159.68 94.64 159.16 102.34 159.30 110.00 C 159.16 115.36 159.80 120.79 158.61 126.07 C 158.41 125.62 158.02 124.74 157.82 124.30 C 153.77 126.15 150.30 128.98 146.94 131.87 C 141.13 128.81 134.44 128.33 128.55 125.50 C 126.00 124.26 123.14 124.17 120.37 124.14 C 117.06 119.85 112.11 116.44 111.14 110.75 C 115.76 104.57 121.87 99.69 126.51 93.51 M 138.31 119.36 C 136.65 120.64 137.66 124.38 140.05 123.82 C 142.52 124.37 144.31 121.16 142.68 119.30 C 141.86 118.00 139.23 118.28 138.31 119.36 Z" />
<path fill="#348a82" opacity="1.00" d=" M 106.63 156.68 C 110.41 155.69 114.02 158.55 117.70 157.01 C 120.46 156.23 123.81 155.79 126.05 158.02 C 132.65 162.48 132.34 173.39 126.06 178.00 C 122.47 181.17 117.41 179.10 113.42 177.96 C 113.40 179.97 113.39 181.98 113.38 184.00 L 106.61 184.00 C 106.58 174.89 106.46 165.78 106.63 156.68 M 113.44 168.00 C 113.07 170.32 115.04 171.91 116.20 173.67 C 118.34 173.63 120.49 173.58 122.63 173.51 C 123.82 170.96 125.12 168.06 124.04 165.24 C 123.27 163.04 120.79 162.43 119.00 161.33 C 116.44 162.73 113.09 164.55 113.44 168.00 Z" />
<path fill="#348a82" opacity="1.00" d=" M 135.66 156.49 C 138.28 156.00 140.75 156.58 142.50 158.67 C 144.77 156.80 147.54 155.96 150.47 156.60 C 150.35 158.45 150.89 160.76 149.16 162.05 C 147.15 163.13 144.28 162.93 142.96 165.00 C 141.46 169.41 143.40 174.35 141.78 178.72 C 140.83 181.84 135.56 181.07 135.50 177.78 C 135.32 170.69 135.24 163.57 135.66 156.49 Z" />
<path fill="#348a82" opacity="1.00" d=" M 160.49 156.67 C 167.46 154.40 175.41 158.97 177.04 166.07 C 179.31 173.71 171.67 181.46 164.05 180.55 C 156.11 180.46 149.91 171.34 152.97 163.95 C 154.45 160.70 157.28 158.16 160.49 156.67 M 161.48 163.32 C 158.57 164.79 159.34 168.34 159.47 171.01 C 160.63 173.84 164.15 174.79 166.96 174.45 C 170.86 173.04 171.36 167.82 169.42 164.65 C 168.04 161.78 163.84 161.87 161.48 163.32 Z" />
</g>
<g id="#405e8eff">
<path fill="#405e8e" opacity="1.00" d=" M 58.04 73.64 C 64.49 70.35 71.85 69.51 79.00 69.46 C 82.95 69.45 87.07 69.45 90.73 71.11 C 93.33 72.31 94.72 75.20 94.94 77.95 C 94.08 85.61 94.35 93.33 94.24 101.02 C 94.19 104.93 94.46 108.85 95.20 112.70 L 95.32 113.37 C 88.75 109.52 84.63 102.93 79.36 97.65 C 72.45 89.46 65.04 81.74 58.04 73.64 Z" />
</g>
<g id="#3c958eff">
<path fill="#3c958e" opacity="1.00" d=" M 99.53 71.35 C 104.77 69.29 110.52 69.56 116.05 69.72 C 122.15 70.13 128.49 71.18 133.60 74.77 C 133.27 75.46 132.60 76.83 132.27 77.52 C 128.33 78.51 123.90 77.92 120.45 80.43 C 117.45 82.20 116.11 85.63 115.56 88.91 C 114.99 93.10 111.91 96.22 108.97 98.96 C 104.17 103.34 100.63 108.99 95.20 112.70 C 94.46 108.85 94.19 104.93 94.24 101.02 C 94.35 93.33 94.08 85.61 94.94 77.95 C 95.66 75.36 96.69 72.25 99.53 71.35 Z" />
</g>
<g id="#31837dff">
<path fill="#31837d" opacity="1.00" d=" M 99.98 122.93 C 103.59 118.78 106.93 114.34 111.14 110.75 C 112.11 116.44 117.06 119.85 120.37 124.14 C 123.14 124.17 126.00 124.26 128.55 125.50 C 134.44 128.33 141.13 128.81 146.94 131.87 C 150.30 128.98 153.77 126.15 157.82 124.30 C 158.02 124.74 158.41 125.62 158.61 126.07 C 157.58 132.71 150.74 137.96 144.07 137.68 C 133.04 137.73 122.01 137.76 110.98 137.66 C 106.88 137.72 103.20 135.40 100.24 132.77 C 97.36 130.42 97.36 125.48 99.98 122.93 Z" />
</g>
<g id="#436cb3ff">
<path fill="#436cb3" opacity="1.00" d=" M 45.43 117.37 C 48.24 116.02 53.22 117.19 52.88 121.02 C 53.12 124.12 50.09 126.33 47.17 125.72 C 42.96 125.78 41.52 118.94 45.43 117.37 Z" />
</g>
<g id="#242c4fff">
<path fill="#242c4f" opacity="1.00" d=" M 11.62 158.45 C 12.09 154.50 16.69 156.57 18.94 157.69 C 22.75 155.06 27.59 155.94 30.98 158.80 C 34.59 155.51 40.90 154.77 44.37 158.64 C 46.83 161.05 47.22 164.68 47.18 167.96 C 47.09 172.06 46.76 176.15 46.66 180.26 C 44.66 180.58 42.64 180.72 40.62 180.74 C 39.91 175.59 40.69 170.35 39.87 165.23 C 39.59 162.12 34.60 161.83 33.58 164.60 C 32.00 169.41 33.53 174.60 32.55 179.52 C 31.24 181.46 28.57 180.92 26.65 180.43 C 24.92 174.92 26.14 169.04 25.39 163.38 C 23.12 162.81 20.03 162.25 18.93 164.98 C 17.58 170.10 19.22 175.58 17.71 180.73 C 15.68 180.74 13.65 180.70 11.63 180.59 C 11.35 173.22 11.18 165.81 11.62 158.45 Z" />
</g>
<g id="#272d50ff">
<path fill="#272d50" opacity="1.00" d=" M 52.51 160.96 C 54.53 156.31 60.39 155.71 64.81 156.35 C 68.74 157.32 72.96 160.48 72.72 164.96 C 72.77 170.03 72.67 175.10 72.61 180.17 C 70.38 181.05 68.06 180.17 65.87 179.64 C 63.28 179.78 60.82 181.09 58.18 180.78 C 53.52 180.59 49.59 175.13 51.81 170.80 C 54.86 166.27 60.82 166.39 65.67 166.37 C 65.55 165.43 65.29 163.55 65.17 162.61 C 62.06 162.42 58.99 162.87 55.95 163.40 C 54.27 163.96 53.09 162.26 52.51 160.96 M 57.64 171.71 C 57.63 172.62 57.60 174.45 57.58 175.36 C 59.48 175.59 61.47 176.06 63.34 175.43 C 65.40 174.81 65.05 172.28 65.57 170.64 C 62.88 170.58 60.23 171.03 57.64 171.71 Z" />
</g>
<g id="#272e51ff">
<path fill="#272e51" opacity="1.00" d=" M 78.49 157.55 C 80.14 154.74 83.80 156.49 85.90 157.82 C 89.32 156.01 94.02 155.01 97.23 157.77 C 99.12 159.42 101.45 161.34 101.46 164.07 C 101.60 169.14 101.95 174.26 101.24 179.29 C 99.87 181.26 97.16 180.57 95.12 180.84 C 94.02 175.79 94.92 170.60 94.30 165.51 C 93.88 161.29 87.40 161.53 86.02 165.02 C 84.34 169.98 86.76 175.61 84.37 180.42 C 82.16 181.21 77.96 181.19 78.24 177.90 C 78.20 171.13 77.59 164.27 78.49 157.55 Z" />
</g>
</svg>
