<?xml version="1.0" encoding="UTF-8" ?>
<!DOCTYPE svg PUBLIC "-//W3C//DTD SVG 1.1//EN" "http://www.w3.org/Graphics/SVG/1.1/DTD/svg11.dtd">
<svg width="180pt" height="183pt" viewBox="0 0 180 183" version="1.1" xmlns="http://www.w3.org/2000/svg">
<g id="#16222eff">
<path fill="#16222e" opacity="1.00" d=" M 22.23 16.99 C 25.88 14.26 30.27 12.34 34.91 12.57 C 63.59 12.66 92.28 12.36 120.97 12.53 C 128.97 12.00 136.99 12.12 145.00 12.19 C 149.61 12.03 153.05 15.57 157.35 16.53 C 156.86 18.74 159.46 17.88 160.63 18.41 C 160.73 18.95 160.94 20.03 161.05 20.57 C 164.67 21.72 164.93 26.58 166.47 29.60 C 168.81 33.31 168.40 37.82 168.54 42.01 C 168.77 69.35 168.18 96.70 168.63 124.03 C 167.66 134.66 170.87 146.49 164.83 156.07 C 166.68 151.26 168.01 146.22 168.06 141.03 C 168.24 133.78 168.98 126.42 167.70 119.22 C 164.51 118.56 161.23 118.75 158.00 118.81 C 139.02 119.39 120.02 118.89 101.04 119.33 C 97.04 119.17 93.83 123.12 94.10 126.98 C 93.65 132.50 96.40 137.49 98.94 142.17 C 103.64 150.69 110.85 157.56 118.84 162.99 C 122.53 165.35 126.73 166.78 130.33 169.31 C 128.60 169.48 126.87 169.58 125.13 169.62 C 95.10 169.28 65.07 170.17 35.04 169.60 C 26.80 169.50 18.21 165.33 14.31 157.83 C 11.45 153.08 10.04 147.58 10.30 142.03 C 10.20 108.03 10.20 74.01 10.57 40.01 C 10.36 31.07 14.50 21.79 22.23 16.99 M 113.12 18.89 C 108.59 22.77 104.01 26.69 100.75 31.76 C 97.07 37.61 93.42 43.82 92.78 50.85 C 92.00 56.43 92.22 63.20 96.86 67.14 C 99.37 70.07 103.50 70.00 107.02 70.17 C 127.28 70.24 147.54 70.15 167.80 70.34 C 167.91 59.24 168.06 48.12 167.75 37.02 C 167.89 33.20 165.29 30.34 164.23 26.86 C 163.51 23.93 161.12 21.94 159.46 19.55 C 154.91 16.88 150.22 14.07 145.01 13.01 C 138.68 12.91 132.34 12.78 126.02 13.07 C 121.07 13.26 117.45 17.00 113.12 18.89 M 26.37 83.74 C 26.62 89.94 26.56 96.13 26.66 102.33 C 28.06 102.44 29.45 102.56 30.85 102.69 C 31.07 98.52 30.53 94.31 31.09 90.17 C 31.79 87.27 34.76 87.56 37.08 87.93 C 39.11 92.44 38.01 97.54 38.39 102.32 C 39.83 102.38 41.27 102.44 42.71 102.50 C 42.84 98.32 42.45 94.11 42.91 89.95 C 43.41 86.47 49.34 87.01 49.88 90.28 C 50.51 94.29 50.02 98.37 50.21 102.40 C 51.64 102.39 53.08 102.39 54.51 102.39 C 54.41 97.73 54.79 93.05 54.33 88.42 C 52.71 83.09 44.59 81.74 41.64 86.63 C 39.61 84.02 36.43 82.87 33.21 83.75 C 32.59 84.53 31.96 85.31 31.34 86.08 C 31.28 85.53 31.16 84.42 31.11 83.87 C 29.53 83.83 27.95 83.79 26.37 83.74 M 59.87 86.97 C 56.54 91.04 57.17 97.57 61.05 101.04 C 64.41 103.36 68.87 103.18 72.22 100.94 C 72.53 101.33 73.15 102.11 73.46 102.50 C 74.60 102.55 75.75 102.59 76.89 102.63 C 77.18 96.48 76.97 90.32 77.19 84.16 C 74.73 84.03 72.18 85.17 69.79 84.24 C 66.38 82.79 61.97 83.83 59.87 86.97 M 80.89 83.84 C 81.14 90.00 80.99 96.16 81.18 102.32 C 82.62 102.35 84.05 102.39 85.49 102.43 C 85.56 98.57 85.17 94.69 85.66 90.85 C 86.50 87.52 90.25 87.36 93.03 87.83 C 95.70 92.28 94.39 97.61 94.78 102.51 C 96.16 102.56 97.55 102.61 98.93 102.66 C 98.99 97.61 99.76 92.38 98.49 87.43 C 95.72 82.89 89.16 82.54 85.46 86.16 C 85.45 85.57 85.42 84.40 85.41 83.82 C 83.90 83.83 82.39 83.83 80.89 83.84 M 103.22 83.83 C 103.10 92.51 103.10 101.19 103.20 109.87 C 104.68 109.94 106.15 110.02 107.63 110.10 C 107.63 106.87 107.64 103.64 107.60 100.42 C 110.68 101.98 114.36 103.46 117.72 101.77 C 122.30 100.01 122.47 94.16 121.92 90.06 C 121.70 86.87 118.65 84.92 115.96 83.87 C 112.89 82.96 109.92 84.31 107.44 86.02 C 107.49 85.46 107.59 84.34 107.64 83.79 C 106.17 83.80 104.69 83.81 103.22 83.83 M 125.66 83.80 C 125.93 89.91 125.77 96.03 126.04 102.15 C 127.53 102.27 129.01 102.40 130.50 102.54 C 130.72 98.05 129.04 92.87 131.95 88.95 C 133.27 87.82 135.08 88.23 136.65 88.21 C 136.66 86.57 136.66 84.92 136.67 83.28 C 133.99 83.28 131.76 84.54 129.97 86.44 C 130.07 85.76 130.27 84.39 130.37 83.70 C 128.80 83.74 127.23 83.77 125.66 83.80 M 140.26 87.13 C 136.97 91.12 137.71 97.25 141.25 100.84 C 145.19 103.34 150.07 103.28 154.21 101.30 C 155.56 99.53 156.88 97.74 158.15 95.92 C 158.18 94.20 158.24 92.48 158.29 90.76 L 157.63 90.68 C 156.26 87.35 153.31 85.08 150.07 83.71 C 146.53 83.43 142.54 84.14 140.26 87.13 Z" />
<path fill="#16222e" opacity="1.00" d=" M 65.27 88.08 C 70.44 85.41 74.75 92.45 71.80 96.60 C 69.91 100.49 64.17 99.36 62.39 95.97 C 61.41 93.14 62.49 89.47 65.27 88.08 Z" />
<path fill="#16222e" opacity="1.00" d=" M 110.33 88.37 C 112.67 87.22 116.31 87.74 117.28 90.46 C 118.14 92.85 118.33 96.39 115.78 97.83 C 113.24 99.65 109.41 98.51 108.25 95.66 C 107.42 93.15 107.72 89.70 110.33 88.37 Z" />
<path fill="#16222e" opacity="1.00" d=" M 145.41 88.43 C 149.12 86.24 153.85 90.15 153.30 94.15 C 153.24 97.17 149.89 99.18 147.11 98.81 C 141.99 98.60 141.51 90.59 145.41 88.43 Z" />
</g>
<g id="#5cbecdff">
<path fill="#5cbecd" opacity="1.00" d=" M 113.12 18.89 C 117.45 17.00 121.07 13.26 126.02 13.07 C 132.34 12.78 138.68 12.91 145.01 13.01 C 150.22 14.07 154.91 16.88 159.46 19.55 C 161.12 21.94 163.51 23.93 164.23 26.86 C 165.29 30.34 167.89 33.20 167.75 37.02 C 168.06 48.12 167.91 59.24 167.80 70.34 C 147.54 70.15 127.28 70.24 107.02 70.17 C 103.50 70.00 99.37 70.07 96.86 67.14 C 92.22 63.20 92.00 56.43 92.78 50.85 C 93.42 43.82 97.07 37.61 100.75 31.76 C 104.01 26.69 108.59 22.77 113.12 18.89 Z" />
</g>
<g id="#f9fcfdff">
<path fill="#f9fcfd" opacity="1.00" d=" M 26.37 83.74 C 27.95 83.79 29.53 83.83 31.11 83.87 C 31.16 84.42 31.28 85.53 31.34 86.08 C 31.96 85.31 32.59 84.53 33.21 83.75 C 36.43 82.87 39.61 84.02 41.64 86.63 C 44.59 81.74 52.71 83.09 54.33 88.42 C 54.79 93.05 54.41 97.73 54.51 102.39 C 53.08 102.39 51.64 102.39 50.21 102.40 C 50.02 98.37 50.51 94.29 49.88 90.28 C 49.34 87.01 43.41 86.47 42.91 89.95 C 42.45 94.11 42.84 98.32 42.71 102.50 C 41.27 102.44 39.83 102.38 38.39 102.32 C 38.01 97.54 39.11 92.44 37.08 87.93 C 34.76 87.56 31.79 87.27 31.09 90.17 C 30.53 94.31 31.07 98.52 30.85 102.69 C 29.45 102.56 28.06 102.44 26.66 102.33 C 26.56 96.13 26.62 89.94 26.37 83.74 Z" />
<path fill="#f9fcfd" opacity="1.00" d=" M 59.87 86.97 C 61.97 83.83 66.38 82.79 69.79 84.24 C 72.18 85.17 74.73 84.03 77.19 84.16 C 76.97 90.32 77.18 96.48 76.89 102.63 C 75.75 102.59 74.60 102.55 73.46 102.50 C 73.15 102.11 72.53 101.33 72.22 100.94 C 68.87 103.18 64.41 103.36 61.05 101.04 C 57.17 97.57 56.54 91.04 59.87 86.97 M 65.27 88.08 C 62.49 89.47 61.41 93.14 62.39 95.97 C 64.17 99.36 69.91 100.49 71.80 96.60 C 74.75 92.45 70.44 85.41 65.27 88.08 Z" />
<path fill="#f9fcfd" opacity="1.00" d=" M 80.89 83.84 C 82.39 83.83 83.90 83.83 85.41 83.82 C 85.42 84.40 85.45 85.57 85.46 86.16 C 89.16 82.54 95.72 82.89 98.49 87.43 C 99.76 92.38 98.99 97.61 98.93 102.66 C 97.55 102.61 96.16 102.56 94.78 102.51 C 94.39 97.61 95.70 92.28 93.03 87.83 C 90.25 87.36 86.50 87.52 85.66 90.85 C 85.17 94.69 85.56 98.57 85.49 102.43 C 84.05 102.39 82.62 102.35 81.18 102.32 C 80.99 96.16 81.14 90.00 80.89 83.84 Z" />
<path fill="#f9fcfd" opacity="1.00" d=" M 103.22 83.83 C 104.69 83.81 106.17 83.80 107.64 83.79 C 107.59 84.34 107.49 85.46 107.44 86.02 C 109.92 84.31 112.89 82.96 115.96 83.87 C 118.65 84.92 121.70 86.87 121.92 90.06 C 122.47 94.16 122.30 100.01 117.72 101.77 C 114.36 103.46 110.68 101.98 107.60 100.42 C 107.64 103.64 107.63 106.87 107.63 110.10 C 106.15 110.02 104.68 109.94 103.20 109.87 C 103.10 101.19 103.10 92.51 103.22 83.83 M 110.33 88.37 C 107.72 89.70 107.42 93.15 108.25 95.66 C 109.41 98.51 113.24 99.65 115.78 97.83 C 118.33 96.39 118.14 92.85 117.28 90.46 C 116.31 87.74 112.67 87.22 110.33 88.37 Z" />
<path fill="#f9fcfd" opacity="1.00" d=" M 125.66 83.80 C 127.23 83.77 128.80 83.74 130.37 83.70 C 130.27 84.39 130.07 85.76 129.97 86.44 C 131.76 84.54 133.99 83.28 136.67 83.28 C 136.66 84.92 136.66 86.57 136.65 88.21 C 135.08 88.23 133.27 87.82 131.95 88.95 C 129.04 92.87 130.72 98.05 130.50 102.54 C 129.01 102.40 127.53 102.27 126.04 102.15 C 125.77 96.03 125.93 89.91 125.66 83.80 Z" />
<path fill="#f9fcfd" opacity="1.00" d=" M 140.26 87.13 C 142.54 84.14 146.53 83.43 150.07 83.71 C 153.31 85.08 156.26 87.35 157.63 90.68 L 158.29 90.76 C 158.24 92.48 158.18 94.20 158.15 95.92 C 156.88 97.74 155.56 99.53 154.21 101.30 C 150.07 103.28 145.19 103.34 141.25 100.84 C 137.71 97.25 136.97 91.12 140.26 87.13 M 145.41 88.43 C 141.51 90.59 141.99 98.60 147.11 98.81 C 149.89 99.18 153.24 97.17 153.30 94.15 C 153.85 90.15 149.12 86.24 145.41 88.43 Z" />
</g>
<g id="#24787cff">
<path fill="#24787c" opacity="1.00" d=" M 94.10 126.98 C 93.83 123.12 97.04 119.17 101.04 119.33 C 120.02 118.89 139.02 119.39 158.00 118.81 C 161.23 118.75 164.51 118.56 167.70 119.22 C 168.98 126.42 168.24 133.78 168.06 141.03 C 168.01 146.22 166.68 151.26 164.83 156.07 C 161.90 161.93 156.48 166.55 150.18 168.40 C 143.62 169.56 136.92 168.34 130.33 169.31 C 126.73 166.78 122.53 165.35 118.84 162.99 C 110.85 157.56 103.64 150.69 98.94 142.17 C 96.40 137.49 93.65 132.50 94.10 126.98 Z" />
</g>
</svg>
