<?xml version="1.0" encoding="UTF-8" ?>
<!DOCTYPE svg PUBLIC "-//W3C//DTD SVG 1.1//EN" "http://www.w3.org/Graphics/SVG/1.1/DTD/svg11.dtd">
<svg width="203pt" height="222pt" viewBox="0 0 203 222" version="1.1" xmlns="http://www.w3.org/2000/svg">
<g id="#ededecff">
<path fill="#ededec" opacity="1.00" d=" M 90.92 12.77 C 94.78 10.79 99.22 9.80 103.35 11.61 C 102.00 12.63 100.64 13.66 99.29 14.69 C 100.35 14.82 101.41 14.94 102.48 15.06 C 99.76 16.65 99.88 19.69 100.27 22.45 C 101.63 20.88 102.35 18.91 103.03 16.97 C 103.43 21.15 102.51 25.31 99.99 28.69 C 100.42 29.82 100.86 30.96 101.30 32.09 C 97.90 31.06 94.99 33.73 92.07 35.06 C 86.25 38.69 80.11 41.76 74.13 45.12 C 73.90 45.26 73.45 45.54 73.22 45.69 C 71.21 49.40 72.55 54.21 69.66 57.56 C 64.87 63.63 58.58 68.59 54.78 75.42 C 52.68 86.18 54.39 97.28 53.00 108.11 C 53.86 93.76 52.99 79.36 53.31 65.00 C 53.44 60.93 53.22 56.86 52.62 52.84 C 46.74 54.69 41.67 58.29 36.29 61.20 C 32.42 63.44 28.01 64.87 24.75 68.05 C 24.69 87.82 24.80 107.59 24.63 127.35 C 23.46 124.02 23.63 120.46 23.68 116.99 C 23.81 110.49 23.54 103.99 23.77 97.50 C 21.25 99.48 18.12 100.18 15.00 100.49 C 17.58 100.92 20.15 101.44 22.70 102.07 C 19.63 103.62 16.34 102.80 13.30 101.70 C 12.99 102.79 12.69 103.88 12.39 104.97 C 12.10 102.01 11.68 99.07 10.97 96.18 C 9.17 101.27 9.76 106.70 9.66 111.99 C 9.61 121.65 9.45 131.31 9.39 140.97 C 9.27 146.19 10.13 151.57 8.39 156.63 C 8.54 124.27 8.05 91.90 8.69 59.54 L 9.18 59.48 C 9.29 56.64 11.84 55.19 13.98 53.86 C 14.69 53.46 15.40 53.06 16.11 52.66 L 17.05 52.58 C 17.99 51.98 18.93 51.38 19.87 50.78 C 20.93 50.29 21.97 49.77 23.04 49.29 C 23.58 49.01 24.68 48.43 25.23 48.14 L 25.38 47.60 C 26.40 47.21 27.42 46.82 28.44 46.43 L 28.78 45.90 C 32.77 44.31 36.32 41.86 40.24 40.13 L 40.47 39.70 C 43.39 38.28 46.21 36.67 49.13 35.26 C 50.04 34.76 50.94 34.25 51.84 33.74 C 54.96 32.33 57.95 30.67 61.00 29.13 C 62.31 28.35 63.64 27.61 64.96 26.83 C 68.32 25.24 71.60 23.50 74.86 21.71 C 75.99 21.20 77.12 20.67 78.25 20.17 L 78.46 19.43 L 79.28 19.45 C 81.75 17.84 84.32 16.36 87.02 15.16 C 88.34 14.39 89.64 13.60 90.92 12.77 Z" />
</g>
<g id="#e4e4e5ff">
<path fill="#e4e4e5" opacity="1.00" d=" M 99.29 14.69 C 100.64 13.66 102.00 12.63 103.35 11.61 C 104.90 12.37 106.45 13.13 107.99 13.90 C 108.57 14.14 109.72 14.61 110.29 14.85 L 110.48 15.61 L 111.31 15.55 C 111.76 15.84 112.65 16.42 113.10 16.71 C 115.06 17.78 117.05 18.81 119.03 19.85 C 120.12 20.47 121.20 21.12 122.29 21.73 C 122.76 21.96 123.68 22.43 124.14 22.67 C 127.48 24.33 130.80 26.05 134.12 27.74 C 135.02 28.27 135.91 28.80 136.82 29.32 C 138.57 30.14 140.30 31.00 142.03 31.87 C 143.19 32.48 144.35 33.13 145.52 33.72 L 145.76 34.16 C 146.89 34.67 148.01 35.20 149.14 35.72 C 151.09 36.90 153.12 37.95 155.20 38.91 L 155.73 40.12 C 156.26 41.44 157.17 42.56 158.02 43.68 C 156.52 46.49 154.99 49.34 152.58 51.49 C 154.42 52.64 156.26 53.81 158.08 55.00 C 156.47 55.49 154.87 55.97 153.26 56.45 C 150.87 55.00 148.33 53.78 145.64 52.98 C 145.47 59.56 145.74 66.14 145.70 72.72 C 145.24 73.83 144.75 74.93 144.26 76.03 C 143.68 73.72 143.65 71.02 141.73 69.33 C 136.02 64.06 131.38 57.79 126.24 51.99 C 126.08 49.87 125.79 47.77 125.50 45.66 C 117.25 41.46 109.46 36.45 101.30 32.09 C 100.86 30.96 100.42 29.82 99.99 28.69 C 102.51 25.31 103.43 21.15 103.03 16.97 C 102.35 18.91 101.63 20.88 100.27 22.45 C 99.88 19.69 99.76 16.65 102.48 15.06 C 101.41 14.94 100.35 14.82 99.29 14.69 Z" />
</g>
<g id="#3a4565ff">
<path fill="#3a4565" opacity="1.00" d=" M 92.07 35.06 C 94.99 33.73 97.90 31.06 101.30 32.09 C 109.46 36.45 117.25 41.46 125.50 45.66 C 125.79 47.77 126.08 49.87 126.24 51.99 C 126.30 66.32 126.26 80.65 126.34 94.98 C 126.33 98.80 126.70 102.76 125.40 106.44 L 123.91 107.15 C 115.77 104.15 109.04 98.37 101.01 95.13 C 101.46 86.77 101.13 78.40 101.29 70.04 C 101.21 66.98 101.59 63.66 99.91 60.93 C 99.60 60.55 98.98 59.79 98.67 59.40 C 93.33 55.59 87.45 52.60 81.67 49.51 C 79.30 47.80 76.74 46.41 74.13 45.12 C 80.11 41.76 86.25 38.69 92.07 35.06 Z" />
</g>
<g id="#d8d8d9ff">
<path fill="#d8d8d9" opacity="1.00" d=" M 155.73 40.12 L 155.47 39.17 C 156.65 39.79 157.83 40.42 159.00 41.08 C 162.01 42.75 165.02 44.42 167.99 46.16 C 168.48 46.41 169.46 46.91 169.94 47.17 C 172.98 48.79 175.97 50.49 179.00 52.11 C 180.33 52.78 181.66 53.43 182.99 54.09 C 184.51 54.93 186.02 55.78 187.55 56.62 L 187.54 57.49 L 188.77 57.75 C 185.89 63.47 179.33 65.89 173.96 68.71 L 173.64 67.46 C 166.73 64.02 159.87 60.47 153.26 56.45 C 154.87 55.97 156.47 55.49 158.08 55.00 C 156.26 53.81 154.42 52.64 152.58 51.49 C 154.99 49.34 156.52 46.49 158.02 43.68 C 157.17 42.56 156.26 41.44 155.73 40.12 Z" />
</g>
<g id="#dd9f3bff">
<path fill="#dd9f3b" opacity="1.00" d=" M 73.22 45.69 C 73.45 45.54 73.90 45.26 74.13 45.12 C 76.74 46.41 79.30 47.80 81.67 49.51 C 85.30 54.82 92.44 55.66 96.57 60.48 C 99.03 62.59 98.26 66.11 98.41 68.97 C 98.17 76.92 98.93 84.97 97.49 92.85 C 97.30 94.56 95.44 95.14 94.23 96.02 C 89.93 98.38 85.81 101.05 81.51 103.40 C 78.80 104.92 75.58 104.56 72.60 104.72 C 72.89 85.04 72.25 65.34 73.22 45.69 Z" />
</g>
<g id="#d4d4d6ff">
<path fill="#d4d4d6" opacity="1.00" d=" M 69.66 57.56 C 72.55 54.21 71.21 49.40 73.22 45.69 C 72.25 65.34 72.89 85.04 72.60 104.72 L 72.64 106.06 C 74.05 106.75 75.50 107.37 76.93 108.03 C 81.13 110.05 85.01 112.64 89.05 114.95 C 87.62 114.71 86.19 114.54 84.75 114.36 C 85.99 116.40 87.25 118.43 88.53 120.46 C 87.36 120.89 86.20 121.33 85.03 121.77 C 85.48 122.40 85.93 123.03 86.38 123.66 C 85.86 123.87 84.82 124.28 84.30 124.48 C 85.06 125.20 85.81 125.91 86.57 126.63 C 85.17 126.77 83.76 126.91 82.35 127.06 C 83.25 128.28 84.13 129.50 85.06 130.70 C 74.64 125.93 65.20 119.38 54.89 114.42 C 54.08 113.33 53.32 112.21 52.55 111.09 C 52.67 110.35 52.89 108.86 53.00 108.11 C 54.39 97.28 52.68 86.18 54.78 75.42 C 58.58 68.59 64.87 63.63 69.66 57.56 Z" />
</g>
<g id="#c4a67aff">
<path fill="#c4a67a" opacity="1.00" d=" M 81.67 49.51 C 87.45 52.60 93.33 55.59 98.67 59.40 C 99.56 70.92 98.71 82.48 99.52 93.99 L 99.55 94.44 C 92.15 99.21 84.32 103.25 76.93 108.03 C 75.50 107.37 74.05 106.75 72.64 106.06 L 72.60 104.72 C 75.58 104.56 78.80 104.92 81.51 103.40 C 85.81 101.05 89.93 98.38 94.23 96.02 C 95.44 95.14 97.30 94.56 97.49 92.85 C 98.93 84.97 98.17 76.92 98.41 68.97 C 98.26 66.11 99.03 62.59 96.57 60.48 C 92.44 55.66 85.30 54.82 81.67 49.51 Z" />
</g>
<g id="#d4d3d6ff">
<path fill="#d4d3d6" opacity="1.00" d=" M 126.24 51.99 C 131.38 57.79 136.02 64.06 141.73 69.33 C 143.65 71.02 143.68 73.72 144.26 76.03 C 144.75 74.93 145.24 73.83 145.70 72.72 C 146.17 85.88 146.45 99.05 146.70 112.22 L 146.69 113.09 C 141.98 115.23 137.39 117.63 132.81 120.02 C 133.08 117.74 133.85 115.56 134.78 113.47 C 132.52 113.20 129.88 113.53 128.03 111.96 C 126.73 110.35 126.13 108.33 125.40 106.44 C 126.70 102.76 126.33 98.80 126.34 94.98 C 126.26 80.65 126.30 66.32 126.24 51.99 Z" />
</g>
<g id="#e3c482ff">
<path fill="#e3c482" opacity="1.00" d=" M 36.29 61.20 C 41.67 58.29 46.74 54.69 52.62 52.84 C 53.22 56.86 53.44 60.93 53.31 65.00 C 52.99 79.36 53.86 93.76 53.00 108.11 C 52.89 108.86 52.67 110.35 52.55 111.09 C 53.32 112.21 54.08 113.33 54.89 114.42 C 54.17 114.24 52.73 113.87 52.01 113.69 L 51.16 113.50 C 51.43 108.78 51.30 104.04 51.03 99.32 C 51.53 89.89 51.24 80.46 51.42 71.03 C 51.40 65.68 51.97 60.23 50.50 55.00 C 42.46 58.84 35.14 64.12 26.81 67.35 C 26.29 67.53 25.26 67.88 24.75 68.05 C 28.01 64.87 32.42 63.44 36.29 61.20 Z" />
</g>
<g id="#363e5fff">
<path fill="#363e5f" opacity="1.00" d=" M 145.64 52.98 C 148.33 53.78 150.87 55.00 153.26 56.45 C 159.87 60.47 166.73 64.02 173.64 67.46 L 173.96 68.71 C 174.05 75.71 174.01 82.72 173.96 89.72 C 173.13 91.15 172.24 92.53 171.35 93.93 C 171.06 92.25 170.77 90.58 170.49 88.90 C 169.72 94.35 169.38 99.85 168.30 105.26 C 167.55 103.12 166.82 100.98 166.11 98.84 C 165.28 99.30 164.45 99.77 163.62 100.23 C 164.36 105.50 158.68 108.21 158.45 113.29 C 156.94 113.25 155.43 113.20 153.92 113.15 C 152.91 115.50 152.14 117.94 151.55 120.42 C 150.68 119.91 149.80 119.40 148.94 118.90 C 149.24 115.62 149.47 112.30 148.80 109.06 C 148.08 110.10 147.38 111.15 146.70 112.22 C 146.45 99.05 146.17 85.88 145.70 72.72 C 145.74 66.14 145.47 59.56 145.64 52.98 Z" />
</g>
<g id="#f2ba4aff">
<path fill="#f2ba4a" opacity="1.00" d=" M 26.81 67.35 C 35.14 64.12 42.46 58.84 50.50 55.00 C 51.97 60.23 51.40 65.68 51.42 71.03 C 51.24 80.46 51.53 89.89 51.03 99.32 C 50.04 93.75 47.82 88.52 46.33 83.09 C 43.01 84.34 39.65 85.50 36.26 86.57 C 35.41 85.19 34.56 83.82 33.71 82.45 C 32.26 83.55 30.80 84.66 29.35 85.77 C 29.06 83.84 28.78 81.92 28.53 80.00 C 28.33 83.18 27.86 86.34 27.23 89.46 C 26.31 82.12 26.75 74.73 26.81 67.35 Z" />
</g>
<g id="#a5a5b2ff">
<path fill="#a5a5b2" opacity="1.00" d=" M 188.77 57.75 C 189.21 59.47 189.71 61.19 190.26 62.88 C 190.57 92.57 190.57 122.27 190.54 151.97 C 190.50 157.63 190.65 163.31 190.09 168.95 L 188.95 168.21 C 185.37 165.81 182.76 162.28 179.24 159.81 C 177.02 158.28 175.03 156.47 173.08 154.63 C 164.74 150.31 156.18 146.37 148.19 141.43 C 148.56 141.21 149.31 140.78 149.69 140.56 C 157.40 136.72 164.88 132.45 172.46 128.38 C 174.25 127.66 173.92 125.53 174.02 123.99 C 173.99 112.56 174.01 101.14 173.96 89.72 C 174.01 82.72 174.05 75.71 173.96 68.71 C 179.33 65.89 185.89 63.47 188.77 57.75 Z" />
</g>
<g id="#766857ff">
<path fill="#766857" opacity="1.00" d=" M 98.67 59.40 C 98.98 59.79 99.60 60.55 99.91 60.93 C 99.65 71.95 99.99 82.98 99.52 93.99 C 98.71 82.48 99.56 70.92 98.67 59.40 Z" />
</g>
<g id="#41434aff">
<path fill="#41434a" opacity="1.00" d=" M 99.91 60.93 C 101.59 63.66 101.21 66.98 101.29 70.04 C 101.13 78.40 101.46 86.77 101.01 95.13 L 99.55 94.44 L 99.52 93.99 C 99.99 82.98 99.65 71.95 99.91 60.93 Z" />
</g>
<g id="#d2ab65ff">
<path fill="#d2ab65" opacity="1.00" d=" M 24.75 68.05 C 25.26 67.88 26.29 67.53 26.81 67.35 C 26.75 74.73 26.31 82.12 27.23 89.46 C 26.38 95.41 26.60 101.43 27.11 107.40 C 26.83 110.42 26.74 113.45 26.85 116.49 C 26.60 120.77 26.14 125.15 27.45 129.32 C 26.45 128.75 25.44 128.18 24.63 127.35 C 24.80 107.59 24.69 87.82 24.75 68.05 Z" />
</g>
<g id="#edb442ff">
<path fill="#edb442" opacity="1.00" d=" M 28.53 80.00 C 28.78 81.92 29.06 83.84 29.35 85.77 C 30.80 84.66 32.26 83.55 33.71 82.45 C 34.56 83.82 35.41 85.19 36.26 86.57 C 39.65 85.50 43.01 84.34 46.33 83.09 C 47.82 88.52 50.04 93.75 51.03 99.32 C 51.30 104.04 51.43 108.78 51.16 113.50 L 50.26 113.48 C 49.87 111.14 49.32 108.83 48.77 106.53 C 47.54 107.02 46.30 107.51 45.07 108.00 C 44.24 107.25 43.40 106.50 42.57 105.74 C 43.43 104.89 44.30 104.04 45.15 103.19 C 39.89 104.85 34.74 107.08 29.11 107.10 C 28.98 104.70 28.84 102.31 28.70 99.91 C 28.18 102.41 27.61 104.89 27.11 107.40 C 26.60 101.43 26.38 95.41 27.23 89.46 C 27.86 86.34 28.33 83.18 28.53 80.00 Z" />
</g>
<g id="#313a59ff">
<path fill="#313a59" opacity="1.00" d=" M 168.30 105.26 C 169.38 99.85 169.72 94.35 170.49 88.90 C 170.77 90.58 171.06 92.25 171.35 93.93 C 172.24 92.53 173.13 91.15 173.96 89.72 C 174.01 101.14 173.99 112.56 174.02 123.99 C 173.92 125.53 174.25 127.66 172.46 128.38 C 164.88 132.45 157.40 136.72 149.69 140.56 C 148.23 133.43 148.64 126.11 148.94 118.90 C 149.80 119.40 150.68 119.91 151.55 120.42 C 152.14 117.94 152.91 115.50 153.92 113.15 C 155.43 113.20 156.94 113.25 158.45 113.29 C 158.68 108.21 164.36 105.50 163.62 100.23 C 164.45 99.77 165.28 99.30 166.11 98.84 C 166.82 100.98 167.55 103.12 168.30 105.26 Z" />
</g>
<g id="#c0bfc5ff">
<path fill="#c0bfc5" opacity="1.00" d=" M 76.93 108.03 C 84.32 103.25 92.15 99.21 99.55 94.44 L 101.01 95.13 C 109.04 98.37 115.77 104.15 123.91 107.15 C 118.89 109.63 114.10 112.53 109.11 115.07 C 105.86 116.69 102.79 118.96 99.15 119.61 C 95.49 118.81 92.36 116.61 89.05 114.95 C 85.01 112.64 81.13 110.05 76.93 108.03 Z" />
</g>
<g id="#dededfff">
<path fill="#dededf" opacity="1.00" d=" M 9.66 111.99 C 9.76 106.70 9.17 101.27 10.97 96.18 C 11.68 99.07 12.10 102.01 12.39 104.97 C 12.69 103.88 12.99 102.79 13.30 101.70 C 16.34 102.80 19.63 103.62 22.70 102.07 C 20.15 101.44 17.58 100.92 15.00 100.49 C 18.12 100.18 21.25 99.48 23.77 97.50 C 23.54 103.99 23.81 110.49 23.68 116.99 C 23.63 120.46 23.46 124.02 24.63 127.35 C 25.44 128.18 26.45 128.75 27.45 129.32 C 35.24 133.21 42.69 137.76 50.72 141.21 C 50.34 141.61 49.59 142.41 49.21 142.81 C 41.43 147.54 32.86 150.80 25.08 155.52 C 19.33 158.63 15.07 163.71 9.78 167.44 C 9.55 167.60 9.08 167.92 8.85 168.08 C 8.25 164.30 7.85 160.43 8.39 156.63 C 10.13 151.57 9.27 146.19 9.39 140.97 C 9.45 131.31 9.61 121.65 9.66 111.99 Z" />
</g>
<g id="#e7ab3aff">
<path fill="#e7ab3a" opacity="1.00" d=" M 28.70 99.91 C 28.84 102.31 28.98 104.70 29.11 107.10 C 34.74 107.08 39.89 104.85 45.15 103.19 C 44.30 104.04 43.43 104.89 42.57 105.74 C 43.40 106.50 44.24 107.25 45.07 108.00 C 46.30 107.51 47.54 107.02 48.77 106.53 C 49.32 108.83 49.87 111.14 50.26 113.48 C 50.45 114.82 50.61 116.18 50.77 117.53 C 49.87 118.12 48.98 118.70 48.08 119.29 C 48.13 120.45 48.18 121.61 48.23 122.78 C 43.50 122.34 38.77 122.85 34.15 123.89 C 33.51 122.91 32.87 121.92 32.23 120.94 C 31.09 121.49 29.95 122.05 28.81 122.61 C 28.16 120.57 27.48 118.53 26.85 116.49 C 26.74 113.45 26.83 110.42 27.11 107.40 C 27.61 104.89 28.18 102.41 28.70 99.91 Z" />
</g>
<g id="#e2e2e1ff">
<path fill="#e2e2e1" opacity="1.00" d=" M 123.91 107.15 L 125.40 106.44 C 126.13 108.33 126.73 110.35 128.03 111.96 C 129.88 113.53 132.52 113.20 134.78 113.47 C 133.85 115.56 133.08 117.74 132.81 120.02 C 126.16 124.15 119.10 127.55 112.31 131.43 C 108.23 134.04 103.87 136.14 99.54 138.29 C 94.38 136.45 89.65 133.67 85.06 130.70 C 84.13 129.50 83.25 128.28 82.35 127.06 C 83.76 126.91 85.17 126.77 86.57 126.63 C 85.81 125.91 85.06 125.20 84.30 124.48 C 84.82 124.28 85.86 123.87 86.38 123.66 C 85.93 123.03 85.48 122.40 85.03 121.77 C 86.20 121.33 87.36 120.89 88.53 120.46 C 87.25 118.43 85.99 116.40 84.75 114.36 C 86.19 114.54 87.62 114.71 89.05 114.95 C 92.36 116.61 95.49 118.81 99.15 119.61 C 102.79 118.96 105.86 116.69 109.11 115.07 C 114.10 112.53 118.89 109.63 123.91 107.15 Z" />
</g>
<g id="#443d48ff">
<path fill="#443d48" opacity="1.00" d=" M 148.80 109.06 C 149.47 112.30 149.24 115.62 148.94 118.90 C 148.64 126.11 148.23 133.43 149.69 140.56 C 149.31 140.78 148.56 141.21 148.19 141.43 C 147.94 141.57 147.46 141.86 147.22 142.00 C 146.64 132.37 146.93 122.72 146.69 113.09 L 146.70 112.22 C 147.38 111.15 148.08 110.10 148.80 109.06 Z" />
</g>
<g id="#a26c39ff">
<path fill="#a26c39" opacity="1.00" d=" M 132.81 120.02 C 137.39 117.63 141.98 115.23 146.69 113.09 C 146.93 122.72 146.64 132.37 147.22 142.00 C 140.39 146.33 132.92 149.52 126.16 153.97 C 126.19 154.40 126.25 155.28 126.28 155.72 C 125.85 156.01 125.00 156.59 124.57 156.88 C 124.55 165.59 124.54 174.30 124.50 183.02 C 119.64 186.11 114.52 188.76 109.35 191.30 C 106.12 192.84 103.21 195.06 99.76 196.13 C 99.40 176.86 99.69 157.57 99.54 138.29 C 103.87 136.14 108.23 134.04 112.31 131.43 C 119.10 127.55 126.16 124.15 132.81 120.02 Z" />
</g>
<g id="#dfa13cff">
<path fill="#dfa13c" opacity="1.00" d=" M 50.26 113.48 L 51.16 113.50 L 52.01 113.69 C 52.10 122.99 51.85 132.31 51.27 141.59 C 50.76 141.89 49.72 142.50 49.21 142.81 C 49.59 142.41 50.34 141.61 50.72 141.21 C 42.69 137.76 35.24 133.21 27.45 129.32 C 26.14 125.15 26.60 120.77 26.85 116.49 C 27.48 118.53 28.16 120.57 28.81 122.61 C 29.95 122.05 31.09 121.49 32.23 120.94 C 32.87 121.92 33.51 122.91 34.15 123.89 C 38.77 122.85 43.50 122.34 48.23 122.78 C 48.18 121.61 48.13 120.45 48.08 119.29 C 48.98 118.70 49.87 118.12 50.77 117.53 C 50.61 116.18 50.45 114.82 50.26 113.48 Z" />
</g>
<g id="#c78b3eff">
<path fill="#c78b3e" opacity="1.00" d=" M 52.01 113.69 C 52.73 113.87 54.17 114.24 54.89 114.42 C 65.20 119.38 74.64 125.93 85.06 130.70 C 89.65 133.67 94.38 136.45 99.54 138.29 C 99.69 157.57 99.40 176.86 99.76 196.13 C 91.32 191.99 83.06 187.47 74.64 183.29 C 73.14 174.08 73.86 164.74 73.63 155.46 C 73.63 155.16 73.62 154.56 73.61 154.26 C 66.56 149.37 58.52 146.16 51.27 141.59 C 51.85 132.31 52.10 122.99 52.01 113.69 Z" />
</g>
<g id="#644024ff">
<path fill="#644024" opacity="1.00" d=" M 49.21 142.81 C 49.72 142.50 50.76 141.89 51.27 141.59 C 58.52 146.16 66.56 149.37 73.61 154.26 C 73.62 154.56 73.63 155.16 73.63 155.46 C 72.13 156.32 70.59 157.12 69.05 157.92 C 67.67 156.98 66.41 155.69 64.70 155.45 C 58.05 154.12 51.57 156.77 44.97 157.00 C 40.62 157.22 36.06 157.19 32.22 159.57 C 29.74 158.40 27.36 157.04 25.08 155.52 C 32.86 150.80 41.43 147.54 49.21 142.81 Z" />
</g>
<g id="#2a2e4aff">
<path fill="#2a2e4a" opacity="1.00" d=" M 126.16 153.97 C 132.92 149.52 140.39 146.33 147.22 142.00 C 147.46 141.86 147.94 141.57 148.19 141.43 C 156.18 146.37 164.74 150.31 173.08 154.63 C 173.07 154.92 173.05 155.52 173.04 155.81 C 172.32 157.57 170.16 157.81 168.70 158.73 C 162.13 161.59 156.51 166.30 149.76 168.76 C 146.64 168.18 143.92 166.37 141.27 164.72 C 136.48 161.38 131.16 158.92 126.28 155.72 C 126.25 155.28 126.19 154.40 126.16 153.97 Z" />
</g>
<g id="#9d9eacff">
<path fill="#9d9eac" opacity="1.00" d=" M 173.08 154.63 C 175.03 156.47 177.02 158.28 179.24 159.81 C 182.76 162.28 185.37 165.81 188.95 168.21 C 188.83 168.68 188.58 169.64 188.45 170.12 C 185.44 172.30 182.39 174.44 179.09 176.18 C 177.02 177.05 175.00 178.06 173.06 179.20 C 169.34 181.11 165.64 183.08 162.06 185.23 C 160.76 185.90 159.45 186.57 158.15 187.24 C 155.36 188.69 152.62 190.22 149.82 191.66 C 148.92 192.18 148.02 192.70 147.13 193.23 C 143.67 195.00 140.34 197.01 136.89 198.80 C 131.17 201.75 125.70 205.15 120.01 208.18 C 118.27 209.00 116.55 209.86 114.81 210.70 C 113.90 211.17 112.98 211.65 112.06 212.13 C 109.38 213.77 106.75 215.52 103.98 217.03 C 102.32 217.43 100.66 217.83 99.01 218.30 C 98.33 218.06 96.98 217.59 96.30 217.36 L 96.34 216.69 C 97.05 216.74 98.46 216.83 99.17 216.87 C 99.70 210.71 99.34 204.53 99.49 198.36 C 105.91 194.61 112.31 190.78 119.12 187.77 C 121.24 186.65 124.19 185.81 124.50 183.02 C 124.54 174.30 124.55 165.59 124.57 156.88 C 125.00 156.59 125.85 156.01 126.28 155.72 C 131.16 158.92 136.48 161.38 141.27 164.72 C 143.92 166.37 146.64 168.18 149.76 168.76 C 156.51 166.30 162.13 161.59 168.70 158.73 C 170.16 157.81 172.32 157.57 173.04 155.81 C 173.05 155.52 173.07 154.92 173.08 154.63 Z" />
</g>
<g id="#c4c3c7ff">
<path fill="#c4c3c7" opacity="1.00" d=" M 9.78 167.44 C 15.07 163.71 19.33 158.63 25.08 155.52 C 27.36 157.04 29.74 158.40 32.22 159.57 C 35.11 160.91 37.84 162.55 40.53 164.24 C 43.99 166.05 47.53 168.89 51.67 168.15 C 51.45 168.25 51.00 168.45 50.78 168.55 C 49.53 168.93 48.26 169.24 46.99 169.57 C 54.55 173.90 62.20 178.06 69.94 182.04 C 71.40 182.79 73.03 183.06 74.64 183.29 C 83.06 187.47 91.32 191.99 99.76 196.13 C 103.21 195.06 106.12 192.84 109.35 191.30 C 114.52 188.76 119.64 186.11 124.50 183.02 C 124.19 185.81 121.24 186.65 119.12 187.77 C 112.31 190.78 105.91 194.61 99.49 198.36 C 99.34 204.53 99.70 210.71 99.17 216.87 C 98.46 216.83 97.05 216.74 96.34 216.69 C 94.19 216.75 92.56 215.20 90.81 214.20 C 85.35 210.87 79.42 208.41 73.83 205.31 C 70.44 203.27 66.88 201.55 63.39 199.70 C 62.26 199.11 61.13 198.52 60.01 197.92 C 56.32 195.95 52.62 193.99 49.02 191.85 C 45.68 190.22 42.37 188.54 39.07 186.84 C 38.01 186.30 36.94 185.77 35.89 185.24 C 32.93 183.48 29.88 181.87 26.83 180.29 C 25.93 179.77 25.02 179.25 24.12 178.74 C 22.14 177.84 20.19 176.86 18.31 175.77 C 17.45 175.27 16.60 174.78 15.74 174.29 C 13.43 172.34 10.63 170.52 9.78 167.44 Z" />
</g>
<g id="#7d512aff">
<path fill="#7d512a" opacity="1.00" d=" M 44.97 157.00 C 51.57 156.77 58.05 154.12 64.70 155.45 C 66.41 155.69 67.67 156.98 69.05 157.92 C 68.38 158.26 67.04 158.94 66.37 159.27 C 57.51 159.00 48.70 160.84 40.53 164.24 C 37.84 162.55 35.11 160.91 32.22 159.57 C 36.06 157.19 40.62 157.22 44.97 157.00 Z" />
</g>
<g id="#cacaccff">
<path fill="#cacacc" opacity="1.00" d=" M 69.05 157.92 C 70.59 157.12 72.13 156.32 73.63 155.46 C 73.86 164.74 73.14 174.08 74.64 183.29 C 73.03 183.06 71.40 182.79 69.94 182.04 C 62.20 178.06 54.55 173.90 46.99 169.57 C 48.26 169.24 49.53 168.93 50.78 168.55 C 51.00 168.45 51.45 168.25 51.67 168.15 C 56.69 165.39 61.24 161.83 66.37 159.27 C 67.04 158.94 68.38 158.26 69.05 157.92 Z" />
</g>
<g id="#9a6433ff">
<path fill="#9a6433" opacity="1.00" d=" M 40.53 164.24 C 48.70 160.84 57.51 159.00 66.37 159.27 C 61.24 161.83 56.69 165.39 51.67 168.15 C 47.53 168.89 43.99 166.05 40.53 164.24 Z" />
</g>
</svg>
