<?xml version="1.0" encoding="UTF-8" ?>
<!DOCTYPE svg PUBLIC "-//W3C//DTD SVG 1.1//EN" "http://www.w3.org/Graphics/SVG/1.1/DTD/svg11.dtd">
<svg width="211pt" height="238pt" viewBox="0 0 211 238" version="1.1" xmlns="http://www.w3.org/2000/svg">
<g id="#1f2841ff">
<path fill="#1f2841" opacity="1.00" d=" M 50.48 9.70 C 56.63 9.08 62.83 9.51 69.00 9.40 C 95.35 9.31 121.70 9.44 148.05 9.35 C 156.85 9.12 165.97 10.71 173.49 15.50 C 181.87 21.08 186.73 30.95 186.68 40.96 C 187.00 63.97 186.63 86.99 186.80 110.00 C 186.66 116.94 187.19 123.94 186.12 130.82 C 183.89 144.93 170.36 156.42 156.03 155.95 C 121.01 155.94 85.98 155.96 50.96 155.94 C 44.34 155.99 38.10 153.00 32.86 149.17 C 25.51 143.15 21.53 133.68 21.52 124.24 C 21.00 99.50 21.38 74.75 21.22 50.00 C 21.01 41.74 20.97 32.90 25.71 25.73 C 30.57 16.54 40.49 11.25 50.48 9.70 M 51.42 13.54 C 45.29 14.17 39.22 16.42 34.67 20.67 C 28.25 26.11 25.47 34.80 25.60 43.02 C 25.70 69.68 25.67 96.35 25.67 123.01 C 25.63 131.91 28.83 141.41 36.27 146.81 C 41.96 151.73 49.72 153.05 57.01 153.07 C 87.01 153.10 117.00 153.06 147.00 153.08 C 154.01 152.93 161.38 153.08 167.80 149.81 C 172.35 147.99 175.47 144.06 178.35 140.28 C 182.32 135.12 183.33 128.36 183.33 122.01 C 183.21 96.34 183.36 70.67 183.35 45.00 C 183.38 41.54 183.12 38.07 182.36 34.69 C 181.15 28.32 176.84 23.05 172.13 18.85 C 163.73 12.63 152.88 13.33 143.00 12.85 C 112.47 13.06 81.93 12.45 51.42 13.54 Z" />
<path fill="#1f2841" opacity="1.00" d=" M 122.21 88.10 C 122.06 79.56 122.37 71.02 122.17 62.48 C 125.97 65.42 129.78 68.40 133.07 71.93 C 136.90 76.11 141.68 79.28 145.39 83.59 C 147.15 85.74 150.00 87.06 151.03 89.73 C 138.14 102.22 125.80 115.29 112.91 127.78 C 105.06 120.91 97.20 113.95 90.18 106.25 C 90.24 103.29 90.74 100.25 89.96 97.36 C 88.27 95.14 85.69 93.90 83.41 92.39 C 83.40 91.07 83.40 89.75 83.40 88.43 C 95.79 87.91 108.19 88.46 120.56 87.60 C 120.97 87.73 121.79 87.97 122.21 88.10 Z" />
<path fill="#1f2841" opacity="1.00" d=" M 9.36 191.37 C 11.87 191.40 14.38 191.23 16.89 191.27 C 21.14 197.23 24.91 203.53 29.32 209.39 C 33.29 204.49 36.42 198.98 39.52 193.51 C 41.21 190.00 45.65 191.65 48.72 191.29 C 48.82 203.15 48.94 215.01 48.84 226.87 C 46.62 226.88 44.40 226.88 42.17 226.86 C 42.00 219.44 42.47 212.00 41.77 204.60 C 37.42 209.15 34.81 215.05 30.48 219.60 C 29.95 219.67 28.87 219.80 28.34 219.87 C 23.96 215.26 21.26 209.31 16.81 204.76 C 16.39 212.32 17.88 219.88 16.53 227.41 C 14.17 227.40 11.81 227.41 9.45 227.40 C 9.18 215.40 9.31 203.38 9.36 191.37 Z" />
<path fill="#1f2841" opacity="1.00" d=" M 117.40 191.44 C 123.22 191.18 129.06 191.07 134.89 191.39 C 140.01 191.59 144.78 195.87 144.90 201.12 C 145.02 204.92 145.41 209.48 142.20 212.22 C 137.69 216.95 130.60 216.27 124.66 216.34 C 124.64 220.04 124.67 223.74 124.49 227.44 C 122.21 227.43 119.93 227.49 117.67 227.24 C 117.12 224.53 117.27 221.75 117.25 219.01 C 117.36 209.82 117.17 200.63 117.40 191.44 M 124.67 197.71 C 124.55 201.89 124.59 206.07 124.76 210.25 C 128.22 210.23 131.91 210.65 135.12 209.06 C 138.52 206.79 138.54 201.11 135.09 198.89 C 131.94 197.06 128.12 197.86 124.67 197.71 Z" />
<path fill="#1f2841" opacity="1.00" d=" M 150.53 199.36 C 153.29 199.31 156.04 199.67 158.30 201.38 C 161.21 199.85 164.42 199.18 167.69 199.25 C 167.78 201.40 167.84 203.55 167.88 205.70 C 164.75 206.40 160.80 205.85 158.65 208.74 C 157.20 210.08 157.56 212.16 157.47 213.93 C 157.51 218.42 157.68 222.91 157.45 227.39 C 155.11 227.43 152.78 227.44 150.45 227.43 C 150.32 218.07 150.11 208.70 150.53 199.36 Z" />
<path fill="#1f2841" opacity="1.00" d=" M 180.41 199.42 C 187.85 196.60 197.22 200.73 199.71 208.41 C 203.39 216.85 195.99 227.21 187.05 227.53 C 180.74 228.04 173.60 224.93 171.42 218.62 C 168.25 211.17 172.61 201.71 180.41 199.42 M 181.43 206.30 C 176.81 208.69 176.14 215.53 180.25 218.75 C 184.20 223.21 192.13 220.58 193.14 214.84 C 195.25 208.36 186.87 202.93 181.43 206.30 Z" />
<path fill="#1f2841" opacity="1.00" d=" M 54.99 206.93 C 54.51 201.43 60.55 199.58 64.95 199.41 C 70.34 198.96 77.28 201.34 78.54 207.24 C 79.03 214.03 78.77 220.86 78.63 227.67 C 75.95 227.48 73.28 227.13 70.71 226.34 C 66.39 227.58 61.27 228.53 57.38 225.62 C 52.84 223.08 52.81 214.82 57.82 212.79 C 62.17 210.76 67.09 210.70 71.79 210.35 C 71.25 208.69 71.18 206.44 69.29 205.70 C 64.49 204.24 59.80 206.98 54.99 206.93 M 61.80 217.03 C 61.61 218.41 61.44 219.80 61.28 221.19 C 63.64 221.62 66.23 223.07 68.54 221.68 C 71.21 220.96 71.18 217.88 71.74 215.70 C 68.42 215.75 64.79 215.23 61.80 217.03 Z" />
<path fill="#1f2841" opacity="1.00" d=" M 84.44 200.12 C 87.22 200.14 90.05 200.15 92.72 201.04 C 96.03 200.15 99.52 198.74 102.94 199.96 C 106.81 200.95 110.57 203.81 110.95 208.05 C 111.77 214.29 111.63 220.65 111.12 226.91 C 108.57 226.91 106.01 226.88 103.46 226.80 C 103.35 221.53 103.68 216.25 103.32 210.99 C 103.05 207.96 100.14 205.72 97.13 206.28 C 93.95 206.01 92.37 209.39 91.91 212.02 C 91.49 217.15 91.95 222.30 91.63 227.43 C 89.23 227.42 86.84 227.41 84.44 227.41 C 84.24 218.31 84.40 209.22 84.44 200.12 Z" />
</g>
<g id="#fbfbfaff">
<path fill="#fbfbfa" opacity="1.00" d=" M 51.42 13.54 C 81.93 12.45 112.47 13.06 143.00 12.85 C 152.88 13.33 163.73 12.63 172.13 18.85 C 176.84 23.05 181.15 28.32 182.36 34.69 C 183.12 38.07 183.38 41.54 183.35 45.00 C 183.36 70.67 183.21 96.34 183.33 122.01 C 183.33 128.36 182.32 135.12 178.35 140.28 C 175.47 144.06 172.35 147.99 167.80 149.81 C 161.38 153.08 154.01 152.93 147.00 153.08 C 117.00 153.06 87.01 153.10 57.01 153.07 C 49.72 153.05 41.96 151.73 36.27 146.81 C 28.83 141.41 25.63 131.91 25.67 123.01 C 25.67 96.35 25.70 69.68 25.60 43.02 C 25.47 34.80 28.25 26.11 34.67 20.67 C 39.22 16.42 45.29 14.17 51.42 13.54 M 100.47 36.12 L 100.61 36.69 C 95.06 39.90 90.83 44.79 86.02 48.93 C 77.29 56.91 68.62 64.95 59.58 72.57 C 56.47 74.71 56.89 78.69 56.69 81.99 C 56.67 84.92 56.20 87.92 56.90 90.79 C 60.50 95.91 66.16 99.05 70.32 103.66 C 74.00 107.66 78.25 111.31 83.60 112.78 C 85.67 110.48 87.90 108.33 90.18 106.25 C 97.20 113.95 105.06 120.91 112.91 127.78 C 125.80 115.29 138.14 102.22 151.03 89.73 C 150.00 87.06 147.15 85.74 145.39 83.59 C 141.68 79.28 136.90 76.11 133.07 71.93 C 129.78 68.40 125.97 65.42 122.17 62.48 C 120.96 53.83 121.59 45.09 121.52 36.39 C 114.51 36.34 107.48 36.55 100.47 36.12 Z" />
</g>
<g id="#e6a05fff">
<path fill="#e6a05f" opacity="1.00" d=" M 100.47 36.12 C 107.48 36.55 114.51 36.34 121.52 36.39 C 121.59 45.09 120.96 53.83 122.17 62.48 C 122.37 71.02 122.06 79.56 122.21 88.10 C 121.79 87.97 120.97 87.73 120.56 87.60 C 116.50 84.29 112.78 80.58 108.70 77.30 C 105.84 74.85 102.42 72.11 102.39 67.98 C 101.67 57.57 103.62 46.88 100.61 36.69 L 100.47 36.12 Z" />
</g>
<g id="#cd6e5aff">
<path fill="#cd6e5a" opacity="1.00" d=" M 100.61 36.69 C 103.62 46.88 101.67 57.57 102.39 67.98 C 102.42 72.11 105.84 74.85 108.70 77.30 C 112.78 80.58 116.50 84.29 120.56 87.60 C 108.19 88.46 95.79 87.91 83.40 88.43 C 83.40 89.75 83.40 91.07 83.41 92.39 C 85.69 93.90 88.27 95.14 89.96 97.36 C 90.74 100.25 90.24 103.29 90.18 106.25 C 87.90 108.33 85.67 110.48 83.60 112.78 C 78.25 111.31 74.00 107.66 70.32 103.66 C 66.16 99.05 60.50 95.91 56.90 90.79 C 56.20 87.92 56.67 84.92 56.69 81.99 C 56.89 78.69 56.47 74.71 59.58 72.57 C 68.62 64.95 77.29 56.91 86.02 48.93 C 90.83 44.79 95.06 39.90 100.61 36.69 Z" />
</g>
</svg>
