<?xml version="1.0" encoding="UTF-8" ?>
<!DOCTYPE svg PUBLIC "-//W3C//DTD SVG 1.1//EN" "http://www.w3.org/Graphics/SVG/1.1/DTD/svg11.dtd">
<svg width="391pt" height="402pt" viewBox="0 0 391 402" version="1.1" xmlns="http://www.w3.org/2000/svg">
<g id="#d0d1d2ff">
<path fill="#d0d1d2" opacity="1.00" d=" M 0.00 0.00 L 46.35 0.00 C 44.10 4.32 37.95 5.95 42.00 10.90 C 31.17 20.05 33.88 37.19 28.86 49.94 C 27.40 51.78 26.61 53.90 27.54 56.19 C 27.45 56.58 27.25 57.37 27.15 57.77 C 24.91 62.08 23.28 66.67 21.98 71.35 C 19.85 69.94 20.07 68.35 21.87 66.77 C 20.63 56.74 7.29 55.37 0.00 60.04 L 0.00 0.00 Z" />
</g>
<g id="#d7d9d9ff">
<path fill="#d7d9d9" opacity="1.00" d=" M 46.35 0.00 L 99.59 0.00 C 95.38 2.05 90.99 5.56 86.10 4.26 C 77.72 10.74 61.78 10.17 58.84 21.99 C 53.23 24.76 50.75 31.28 44.93 33.58 C 45.98 34.12 47.04 34.65 48.10 35.16 C 45.68 37.00 43.25 38.82 40.98 40.85 C 35.68 45.17 31.24 50.45 27.54 56.19 C 26.61 53.90 27.40 51.78 28.86 49.94 C 33.88 37.19 31.17 20.05 42.00 10.90 C 37.95 5.95 44.10 4.32 46.35 0.00 Z" />
</g>
<g id="#dfe0e0ff">
<path fill="#dfe0e0" opacity="1.00" d=" M 99.59 0.00 L 391.00 0.00 L 391.00 47.33 C 381.00 46.89 382.56 34.33 377.00 29.05 C 373.54 28.13 371.57 25.25 369.53 22.52 C 366.18 20.40 361.64 20.21 359.67 16.30 C 357.97 11.51 346.56 20.68 348.55 14.63 C 350.15 9.00 342.12 10.48 338.82 8.22 C 334.51 5.46 328.14 10.81 325.13 5.85 C 322.98 2.58 318.31 3.55 315.14 2.66 C 279.57 2.37 244.00 3.26 208.41 2.43 C 201.87 4.08 195.17 6.10 187.98 5.03 C 165.09 10.58 140.39 6.17 116.87 10.83 C 111.32 14.14 103.89 19.83 97.99 14.13 C 88.74 21.69 74.86 17.37 65.81 25.68 C 63.16 27.71 67.96 26.82 69.20 27.19 C 67.05 27.58 64.92 28.03 62.81 28.56 C 60.15 29.27 57.56 30.24 55.09 31.46 C 52.70 32.57 50.37 33.81 48.10 35.16 C 47.04 34.65 45.98 34.12 44.93 33.58 C 50.75 31.28 53.23 24.76 58.84 21.99 C 61.78 10.17 77.72 10.74 86.10 4.26 C 90.99 5.56 95.38 2.05 99.59 0.00 Z" />
</g>
<g id="#e4e5e5ff">
<path fill="#e4e5e5" opacity="1.00" d=" M 187.98 5.03 C 195.17 6.10 201.87 4.08 208.41 2.43 C 244.00 3.26 279.57 2.37 315.14 2.66 C 318.31 3.55 322.98 2.58 325.13 5.85 C 328.14 10.81 334.51 5.46 338.82 8.22 C 342.12 10.48 350.15 9.00 348.55 14.63 C 346.56 20.68 357.97 11.51 359.67 16.30 C 361.64 20.21 366.18 20.40 369.53 22.52 C 371.57 25.25 373.54 28.13 377.00 29.05 C 382.56 34.33 381.00 46.89 391.00 47.33 L 391.00 73.54 C 384.32 69.53 385.11 59.48 381.76 53.25 C 375.14 50.42 374.89 42.03 369.26 37.75 C 364.70 31.47 358.46 26.15 350.39 25.52 C 346.20 21.77 340.88 20.24 335.32 20.35 C 331.13 16.55 325.09 15.65 319.66 15.55 C 282.51 13.63 245.29 14.95 208.13 14.20 C 197.26 16.92 185.47 12.80 175.16 17.55 C 171.21 15.71 166.26 14.71 163.81 19.04 C 159.36 18.83 155.68 15.38 151.03 16.01 C 142.12 19.75 131.95 16.55 122.89 19.86 C 107.50 22.86 91.62 20.82 76.15 23.23 C 74.39 23.73 70.90 23.52 72.65 26.14 L 72.91 27.01 C 71.67 27.06 70.44 27.12 69.20 27.19 C 67.96 26.82 63.16 27.71 65.81 25.68 C 74.86 17.37 88.74 21.69 97.99 14.13 C 103.89 19.83 111.32 14.14 116.87 10.83 C 140.39 6.17 165.09 10.58 187.98 5.03 Z" />
</g>
<g id="#e7eaebff">
<path fill="#e7eaeb" opacity="1.00" d=" M 175.16 17.55 C 185.47 12.80 197.26 16.92 208.13 14.20 C 245.29 14.95 282.51 13.63 319.66 15.55 C 325.09 15.65 331.13 16.55 335.32 20.35 C 340.88 20.24 346.20 21.77 350.39 25.52 C 358.46 26.15 364.70 31.47 369.26 37.75 C 374.89 42.03 375.14 50.42 381.76 53.25 C 385.11 59.48 384.32 69.53 391.00 73.54 L 391.00 176.61 C 382.79 178.68 385.03 189.01 384.17 195.30 C 381.64 210.72 383.83 226.57 381.46 242.02 C 381.49 249.62 379.99 257.73 383.51 264.80 C 379.03 290.57 388.63 318.52 374.10 342.05 C 370.07 347.44 366.61 356.55 358.98 357.04 C 359.51 356.03 360.03 355.02 360.55 354.01 C 362.49 351.48 364.22 348.78 365.50 345.85 C 365.73 345.41 366.19 344.52 366.42 344.08 C 367.53 341.97 368.31 339.71 369.12 337.48 C 371.22 332.68 371.41 327.34 372.26 322.25 C 374.10 281.63 372.28 240.88 373.18 200.22 C 375.53 185.38 376.25 170.26 380.79 155.85 C 382.08 153.83 377.80 152.41 379.98 151.00 C 385.38 147.29 382.30 139.54 381.54 134.36 C 377.48 118.85 381.09 102.96 381.63 87.31 C 377.14 80.94 377.97 72.59 374.06 65.91 C 371.14 61.23 368.36 56.50 366.75 51.22 C 358.22 40.65 347.75 31.04 334.96 26.13 C 304.14 18.96 272.29 24.54 241.00 21.96 C 185.23 23.29 129.10 21.35 73.58 25.85 L 72.65 26.14 C 70.90 23.52 74.39 23.73 76.15 23.23 C 91.62 20.82 107.50 22.86 122.89 19.86 C 131.95 16.55 142.12 19.75 151.03 16.01 C 155.68 15.38 159.36 18.83 163.81 19.04 C 166.26 14.71 171.21 15.71 175.16 17.55 Z" />
</g>
<g id="#e9f1f4ff">
<path fill="#e9f1f4" opacity="1.00" d=" M 73.58 25.85 C 129.10 21.35 185.23 23.29 241.00 21.96 C 272.29 24.54 304.14 18.96 334.96 26.13 C 347.75 31.04 358.22 40.65 366.75 51.22 C 368.36 56.50 371.14 61.23 374.06 65.91 C 377.97 72.59 377.14 80.94 381.63 87.31 C 381.09 102.96 377.48 118.85 381.54 134.36 C 382.30 139.54 385.38 147.29 379.98 151.00 C 377.80 152.41 382.08 153.83 380.79 155.85 C 376.25 170.26 375.53 185.38 373.18 200.22 C 372.88 187.14 373.04 174.06 373.00 160.99 C 372.61 135.23 373.80 109.42 372.39 83.70 C 372.13 79.73 371.46 75.82 370.21 72.04 C 365.81 47.91 342.35 28.64 318.09 26.82 C 298.13 25.02 278.01 26.41 257.99 26.01 C 196.52 25.89 135.05 26.20 73.58 25.85 Z" />
</g>
<g id="#acb9c1ff">
<path fill="#acb9c1" opacity="1.00" d=" M 72.65 26.14 L 73.58 25.85 C 135.05 26.20 196.52 25.89 257.99 26.01 L 258.03 26.98 C 256.24 27.02 254.46 27.07 252.68 27.12 C 238.05 26.89 223.42 27.03 208.79 26.98 C 191.54 27.02 174.30 26.98 157.06 26.99 C 129.01 27.01 100.96 26.98 72.91 27.01 L 72.65 26.14 Z" />
</g>
<g id="#bddce5ff">
<path fill="#bddce5" opacity="1.00" d=" M 257.99 26.01 C 278.01 26.41 298.13 25.02 318.09 26.82 L 316.96 26.89 C 305.05 27.26 293.14 26.65 281.24 27.17 C 273.50 27.04 265.76 26.98 258.03 26.98 L 257.99 26.01 Z" />
</g>
<g id="#374b59ff">
<path fill="#374b59" opacity="1.00" d=" M 69.20 27.19 C 70.44 27.12 71.67 27.06 72.91 27.01 C 100.96 26.98 129.01 27.01 157.06 26.99 C 154.39 28.88 154.80 32.96 158.27 33.50 C 165.22 32.86 169.86 39.79 172.58 45.38 C 180.23 46.38 179.02 58.80 188.37 56.58 C 187.54 64.67 194.61 69.56 200.36 73.62 C 215.16 75.97 220.34 55.22 234.45 54.77 C 232.91 56.49 231.30 58.14 229.78 59.89 C 228.56 61.24 227.44 62.66 226.27 64.06 C 226.18 63.57 226.00 62.58 225.91 62.09 C 212.53 69.47 204.75 85.40 190.45 90.56 C 180.87 91.10 171.36 87.67 163.33 82.53 C 161.43 79.90 167.52 75.99 163.63 74.43 C 157.66 74.28 150.01 72.40 147.69 66.18 C 140.42 66.61 133.34 65.33 126.32 63.65 C 123.22 62.14 126.19 58.33 126.81 56.00 C 123.88 53.98 117.48 55.02 120.06 48.94 C 120.62 41.45 110.28 47.31 106.42 43.56 C 103.86 40.90 100.79 42.71 98.11 44.06 C 97.27 41.11 96.54 34.07 92.01 36.98 C 88.16 39.65 82.39 35.25 84.56 30.85 C 76.80 33.63 69.15 33.51 62.81 28.56 C 64.92 28.03 67.05 27.58 69.20 27.19 Z" />
</g>
<g id="#3d5160ff">
<path fill="#3d5160" opacity="1.00" d=" M 157.06 26.99 C 174.30 26.98 191.54 27.02 208.79 26.98 C 209.88 34.58 217.08 40.83 217.58 48.88 C 215.81 53.74 223.64 57.51 226.94 53.93 C 233.24 50.75 238.98 44.97 246.24 44.60 C 242.22 47.89 238.31 51.30 234.45 54.77 C 220.34 55.22 215.16 75.97 200.36 73.62 C 194.61 69.56 187.54 64.67 188.37 56.58 C 179.02 58.80 180.23 46.38 172.58 45.38 C 169.86 39.79 165.22 32.86 158.27 33.50 C 154.80 32.96 154.39 28.88 157.06 26.99 Z" />
</g>
<g id="#425967ff">
<path fill="#425967" opacity="1.00" d=" M 208.79 26.98 C 223.42 27.03 238.05 26.89 252.68 27.12 C 253.54 31.24 262.36 32.78 258.05 37.06 C 255.88 38.36 253.73 39.69 251.67 41.15 C 249.89 42.35 248.11 43.55 246.24 44.60 C 238.98 44.97 233.24 50.75 226.94 53.93 C 223.64 57.51 215.81 53.74 217.58 48.88 C 217.08 40.83 209.88 34.58 208.79 26.98 Z" />
</g>
<g id="#4a6c79ff">
<path fill="#4a6c79" opacity="1.00" d=" M 252.68 27.12 C 254.46 27.07 256.24 27.02 258.03 26.98 C 265.76 26.98 273.50 27.04 281.24 27.17 C 273.20 29.72 265.64 33.44 258.05 37.06 C 262.36 32.78 253.54 31.24 252.68 27.12 Z" />
</g>
<g id="#76c3cdff">
<path fill="#76c3cd" opacity="1.00" d=" M 281.24 27.17 C 293.14 26.65 305.05 27.26 316.96 26.89 C 328.54 31.65 342.26 34.48 350.62 44.37 C 360.67 50.61 364.09 62.91 370.21 72.04 C 371.46 75.82 372.13 79.73 372.39 83.70 C 371.52 107.45 372.25 131.22 371.97 154.98 C 371.27 154.99 369.86 155.02 369.15 155.03 C 368.61 155.02 367.53 155.01 366.99 155.01 C 367.06 154.57 367.20 153.70 367.26 153.27 C 371.33 133.43 368.10 112.06 368.66 91.66 C 368.89 85.40 367.83 79.15 365.94 73.20 C 366.69 63.04 357.17 56.54 352.27 48.70 C 333.32 26.93 301.15 26.47 274.69 31.69 C 265.99 32.78 260.09 42.07 251.67 41.15 C 253.73 39.69 255.88 38.36 258.05 37.06 C 265.64 33.44 273.20 29.72 281.24 27.17 Z" />
</g>
<g id="#8eccd6ff">
<path fill="#8eccd6" opacity="1.00" d=" M 316.96 26.89 L 318.09 26.82 C 342.35 28.64 365.81 47.91 370.21 72.04 C 364.09 62.91 360.67 50.61 350.62 44.37 C 342.26 34.48 328.54 31.65 316.96 26.89 Z" />
</g>
<g id="#324453ff">
<path fill="#324453" opacity="1.00" d=" M 55.09 31.46 C 57.56 30.24 60.15 29.27 62.81 28.56 C 69.15 33.51 76.80 33.63 84.56 30.85 C 82.39 35.25 88.16 39.65 92.01 36.98 C 96.54 34.07 97.27 41.11 98.11 44.06 C 100.79 42.71 103.86 40.90 106.42 43.56 C 110.28 47.31 120.62 41.45 120.06 48.94 C 117.48 55.02 123.88 53.98 126.81 56.00 C 126.19 58.33 123.22 62.14 126.32 63.65 C 133.34 65.33 140.42 66.61 147.69 66.18 C 150.01 72.40 157.66 74.28 163.63 74.43 C 167.52 75.99 161.43 79.90 163.33 82.53 C 171.36 87.67 180.87 91.10 190.45 90.56 C 204.75 85.40 212.53 69.47 225.91 62.09 C 226.00 62.58 226.18 63.57 226.27 64.06 C 223.99 66.98 221.81 69.98 219.49 72.88 C 218.68 72.50 217.93 72.58 217.23 73.10 C 215.75 73.92 214.42 74.98 213.12 76.07 C 200.22 86.61 191.35 103.11 175.12 109.17 C 170.43 111.22 164.59 106.72 160.55 110.57 C 157.77 114.44 153.47 111.78 150.08 110.38 C 145.43 114.64 140.53 108.09 138.66 104.07 C 133.60 103.64 127.04 106.82 125.02 99.86 C 123.68 96.12 129.94 97.39 129.05 93.89 C 124.21 95.02 117.03 99.02 114.85 92.20 C 113.80 88.51 109.22 91.10 107.03 88.82 C 106.24 83.46 117.11 87.90 116.91 83.18 C 114.02 80.49 108.00 84.16 106.70 79.32 C 103.14 72.63 97.97 83.53 92.88 80.14 C 88.19 75.22 103.59 75.80 97.84 70.27 C 93.45 72.28 91.13 68.07 87.71 66.30 C 82.96 66.34 75.15 68.23 76.77 60.12 C 76.43 55.59 65.55 60.57 66.42 54.47 C 70.16 51.24 64.87 48.15 61.65 49.55 C 58.05 50.55 59.52 46.13 59.73 44.14 C 56.33 42.24 52.41 43.93 49.00 44.97 C 47.58 39.13 55.02 36.18 55.09 31.46 Z" />
</g>
<g id="#67c5d4ff">
<path fill="#67c5d4" opacity="1.00" d=" M 274.69 31.69 C 301.15 26.47 333.32 26.93 352.27 48.70 C 357.17 56.54 366.69 63.04 365.94 73.20 C 364.94 71.20 364.82 67.02 361.65 68.53 C 356.09 69.46 360.44 59.89 354.90 60.15 C 350.05 60.77 342.86 58.98 340.95 64.77 C 341.78 65.83 350.55 64.61 347.31 68.35 C 342.46 70.54 337.95 66.33 333.82 64.10 C 328.39 62.20 341.09 54.83 329.01 57.89 C 321.42 56.35 312.35 55.76 306.91 50.03 C 305.30 47.94 309.37 45.17 306.30 43.68 C 303.08 41.05 301.35 45.72 303.71 47.92 C 300.61 48.60 297.30 49.29 294.33 47.73 C 292.94 43.69 289.39 39.77 284.52 41.59 C 284.10 38.01 282.32 36.19 278.78 37.81 C 279.66 36.08 280.90 34.57 281.96 32.95 C 279.61 32.13 277.03 32.61 274.69 31.69 Z" />
</g>
<g id="#2d3f4dff">
<path fill="#2d3f4d" opacity="1.00" d=" M 48.10 35.16 C 50.37 33.81 52.70 32.57 55.09 31.46 C 55.02 36.18 47.58 39.13 49.00 44.97 C 52.41 43.93 56.33 42.24 59.73 44.14 C 59.52 46.13 58.05 50.55 61.65 49.55 C 64.87 48.15 70.16 51.24 66.42 54.47 C 65.55 60.57 76.43 55.59 76.77 60.12 C 75.15 68.23 82.96 66.34 87.71 66.30 C 91.13 68.07 93.45 72.28 97.84 70.27 C 103.59 75.80 88.19 75.22 92.88 80.14 C 97.97 83.53 103.14 72.63 106.70 79.32 C 108.00 84.16 114.02 80.49 116.91 83.18 C 117.11 87.90 106.24 83.46 107.03 88.82 C 109.22 91.10 113.80 88.51 114.85 92.20 C 117.03 99.02 124.21 95.02 129.05 93.89 C 129.94 97.39 123.68 96.12 125.02 99.86 C 127.04 106.82 133.60 103.64 138.66 104.07 C 140.53 108.09 145.43 114.64 150.08 110.38 C 153.47 111.78 157.77 114.44 160.55 110.57 C 164.59 106.72 170.43 111.22 175.12 109.17 C 191.35 103.11 200.22 86.61 213.12 76.07 C 200.49 93.55 183.71 108.23 172.56 126.44 C 169.12 126.28 167.03 128.80 164.59 130.58 C 153.52 128.73 144.04 140.95 132.88 134.13 C 129.66 125.71 117.18 132.05 113.38 124.64 C 105.09 125.47 110.52 117.62 106.79 114.00 C 101.92 112.28 95.82 120.84 92.42 114.59 C 90.46 109.74 80.84 113.95 84.05 105.97 C 86.31 97.97 73.58 102.56 75.45 94.44 C 74.94 91.71 72.17 92.44 70.20 92.68 C 67.85 91.35 69.87 88.28 69.75 86.16 C 67.54 83.30 61.93 85.48 60.49 82.65 C 62.78 71.96 50.97 73.54 44.43 70.98 C 48.34 62.59 35.34 66.65 34.56 59.78 C 32.54 52.56 39.45 47.45 40.98 40.85 C 43.25 38.82 45.68 37.00 48.10 35.16 Z" />
</g>
<g id="#62c1d0ff">
<path fill="#62c1d0" opacity="1.00" d=" M 251.67 41.15 C 260.09 42.07 265.99 32.78 274.69 31.69 C 277.03 32.61 279.61 32.13 281.96 32.95 C 280.90 34.57 279.66 36.08 278.78 37.81 C 282.32 36.19 284.10 38.01 284.52 41.59 C 289.39 39.77 292.94 43.69 294.33 47.73 C 297.30 49.29 300.61 48.60 303.71 47.92 C 301.35 45.72 303.08 41.05 306.30 43.68 C 309.37 45.17 305.30 47.94 306.91 50.03 C 312.35 55.76 321.42 56.35 329.01 57.89 C 341.09 54.83 328.39 62.20 333.82 64.10 C 337.95 66.33 342.46 70.54 347.31 68.35 C 350.55 64.61 341.78 65.83 340.95 64.77 C 342.86 58.98 350.05 60.77 354.90 60.15 C 360.44 59.89 356.09 69.46 361.65 68.53 C 364.82 67.02 364.94 71.20 365.94 73.20 C 367.83 79.15 368.89 85.40 368.66 91.66 C 368.10 112.06 371.33 133.43 367.26 153.27 L 366.30 153.38 C 368.65 136.80 369.24 119.59 366.78 102.98 C 365.08 102.90 364.47 104.59 363.52 105.65 C 358.10 104.51 357.79 98.25 357.72 93.77 C 355.23 96.13 356.85 101.43 352.38 101.47 C 347.29 102.13 337.13 97.91 342.77 91.76 C 341.91 87.53 334.00 88.61 330.25 86.83 C 325.71 83.56 319.28 91.34 315.86 86.08 C 311.27 83.68 304.94 86.66 300.32 83.68 C 298.37 81.52 298.79 78.60 300.96 76.79 C 297.70 70.08 290.27 78.18 285.23 76.96 C 281.99 74.64 285.23 70.07 281.71 68.13 C 275.44 64.46 276.56 75.52 270.29 71.88 C 269.20 69.45 268.58 66.85 267.57 64.39 C 263.55 66.28 256.56 58.52 256.34 66.10 C 251.66 66.68 250.78 61.12 254.81 59.43 C 253.09 55.14 245.69 60.37 246.13 55.23 C 249.04 53.14 252.88 51.36 252.97 47.18 C 249.21 45.20 247.48 52.82 243.38 52.68 C 236.79 52.87 234.69 59.55 230.03 63.01 C 229.96 62.23 229.84 60.67 229.78 59.89 C 231.30 58.14 232.91 56.49 234.45 54.77 C 238.31 51.30 242.22 47.89 246.24 44.60 C 248.11 43.55 249.89 42.35 251.67 41.15 Z" />
</g>
<g id="#293947ff">
<path fill="#293947" opacity="1.00" d=" M 27.54 56.19 C 31.24 50.45 35.68 45.17 40.98 40.85 C 39.45 47.45 32.54 52.56 34.56 59.78 C 35.34 66.65 48.34 62.59 44.43 70.98 C 50.97 73.54 62.78 71.96 60.49 82.65 C 61.93 85.48 67.54 83.30 69.75 86.16 C 69.87 88.28 67.85 91.35 70.20 92.68 C 72.17 92.44 74.94 91.71 75.45 94.44 C 73.58 102.56 86.31 97.97 84.05 105.97 C 80.84 113.95 90.46 109.74 92.42 114.59 C 95.82 120.84 101.92 112.28 106.79 114.00 C 110.52 117.62 105.09 125.47 113.38 124.64 C 117.18 132.05 129.66 125.71 132.88 134.13 C 144.04 140.95 153.52 128.73 164.59 130.58 C 167.03 128.80 169.12 126.28 172.56 126.44 C 183.71 108.23 200.49 93.55 213.12 76.07 C 214.42 74.98 215.75 73.92 217.23 73.10 C 205.43 88.82 192.66 104.02 183.71 121.68 C 178.89 131.99 170.12 141.24 171.14 153.33 C 164.81 157.63 173.42 161.35 171.41 166.67 C 176.45 170.04 178.13 176.50 183.16 179.86 C 187.00 181.08 191.15 180.98 195.01 182.21 C 194.82 183.67 191.70 186.79 194.89 186.01 C 192.08 188.11 186.90 192.72 187.67 186.06 C 181.53 185.12 175.46 184.86 178.20 192.76 C 178.11 193.37 177.93 194.57 177.84 195.17 C 177.51 192.51 177.27 189.89 176.89 187.26 C 174.68 188.24 172.37 189.01 169.93 188.51 C 170.02 200.79 169.75 213.08 170.38 225.35 C 170.03 225.79 169.32 226.67 168.97 227.10 C 168.89 213.72 169.22 200.34 168.95 186.96 C 167.15 185.42 156.90 183.66 158.84 190.01 C 156.26 188.67 154.01 186.71 151.24 185.75 C 148.10 185.01 144.75 184.46 141.68 185.69 C 133.74 187.22 128.13 194.12 126.95 201.88 L 126.10 201.76 C 124.59 201.56 121.58 201.15 120.07 200.95 C 118.85 208.97 121.92 220.60 118.98 226.97 C 116.73 213.91 126.09 190.92 108.24 185.80 C 104.74 184.69 101.27 184.71 97.85 185.84 C 94.69 186.95 91.58 193.36 88.40 189.61 C 85.03 185.15 79.50 184.92 74.40 184.94 C 72.48 183.41 70.14 182.31 68.69 180.29 C 77.97 181.41 85.60 173.90 94.99 176.04 C 100.56 177.15 108.53 177.52 111.02 171.05 C 108.20 168.68 108.25 165.50 108.96 162.15 C 101.97 161.22 98.27 155.11 91.71 153.14 C 88.91 151.65 95.46 147.00 91.56 146.60 C 84.99 148.48 84.29 138.98 78.30 140.63 C 73.35 140.04 77.56 133.93 73.76 132.45 C 67.20 132.75 61.61 127.95 54.96 128.05 C 48.44 128.07 55.22 116.98 49.98 116.21 C 45.67 118.10 41.72 114.46 45.76 110.81 C 44.25 105.53 35.32 111.94 33.75 106.24 C 31.13 101.35 34.62 94.29 28.83 91.15 C 25.99 82.17 26.02 72.21 26.83 62.78 C 27.52 61.03 29.75 59.00 27.15 57.77 C 27.25 57.37 27.45 56.58 27.54 56.19 Z" />
</g>
<g id="#5cbecdff">
<path fill="#5cbecd" opacity="1.00" d=" M 243.38 52.68 C 247.48 52.82 249.21 45.20 252.97 47.18 C 252.88 51.36 249.04 53.14 246.13 55.23 C 245.69 60.37 253.09 55.14 254.81 59.43 C 250.78 61.12 251.66 66.68 256.34 66.10 C 256.56 58.52 263.55 66.28 267.57 64.39 C 268.58 66.85 269.20 69.45 270.29 71.88 C 276.56 75.52 275.44 64.46 281.71 68.13 C 285.23 70.07 281.99 74.64 285.23 76.96 C 290.27 78.18 297.70 70.08 300.96 76.79 C 298.79 78.60 298.37 81.52 300.32 83.68 C 304.94 86.66 311.27 83.68 315.86 86.08 C 319.28 91.34 325.71 83.56 330.25 86.83 C 334.00 88.61 341.91 87.53 342.77 91.76 C 337.13 97.91 347.29 102.13 352.38 101.47 C 356.85 101.43 355.23 96.13 357.72 93.77 C 357.79 98.25 358.10 104.51 363.52 105.65 C 364.47 104.59 365.08 102.90 366.78 102.98 C 369.24 119.59 368.65 136.80 366.30 153.38 C 363.84 153.97 361.35 153.43 358.93 152.97 C 362.12 150.61 360.34 148.48 357.59 146.80 C 362.04 141.98 360.08 131.19 356.65 125.08 C 355.68 126.98 354.81 128.94 353.76 130.80 C 350.25 128.01 345.68 128.21 341.44 127.61 C 339.46 125.01 337.32 122.28 333.35 124.19 C 331.55 127.25 329.25 129.47 325.13 127.97 C 324.58 122.50 323.57 113.21 316.40 113.07 C 317.20 121.12 307.54 116.91 307.46 111.41 C 303.16 104.57 292.23 110.01 289.71 102.16 C 285.84 102.20 282.03 103.22 278.16 103.01 C 276.34 99.12 285.59 104.13 286.16 101.02 C 278.12 100.98 269.79 102.05 262.29 98.54 C 258.16 94.77 259.16 89.04 258.98 84.03 C 257.32 86.71 256.83 84.94 256.26 82.69 C 250.25 80.10 243.44 81.30 237.11 81.87 C 232.96 79.58 227.02 77.69 226.73 72.13 C 225.19 71.96 222.39 71.34 222.59 73.73 C 223.85 76.43 217.92 78.15 218.54 74.74 C 218.78 74.27 219.26 73.35 219.49 72.88 C 221.81 69.98 223.99 66.98 226.27 64.06 C 227.44 62.66 228.56 61.24 229.78 59.89 C 229.84 60.67 229.96 62.23 230.03 63.01 C 234.69 59.55 236.79 52.87 243.38 52.68 Z" />
</g>
<g id="#c4c4c4ff">
<path fill="#c4c4c4" opacity="1.00" d=" M 0.00 60.04 C 7.29 55.37 20.63 56.74 21.87 66.77 C 20.07 68.35 19.85 69.94 21.98 71.35 C 21.82 74.55 21.17 77.70 20.86 80.89 C 13.33 80.15 7.05 84.81 0.00 86.38 L 0.00 60.04 Z" />
</g>
<g id="#1c2b36ff">
<path fill="#1c2b36" opacity="1.00" d=" M 27.15 57.77 C 29.75 59.00 27.52 61.03 26.83 62.78 C 21.36 78.94 26.55 96.38 25.27 113.04 C 24.41 121.15 27.64 128.93 27.59 136.96 C 26.40 146.26 29.32 155.42 29.22 164.73 C 33.91 165.00 37.47 175.48 40.40 169.29 C 43.44 172.69 48.40 174.45 50.04 178.94 C 47.76 179.90 45.32 180.38 43.02 181.25 C 43.74 184.20 44.86 187.03 44.95 190.12 C 48.22 194.64 55.70 179.47 55.95 187.81 C 46.25 194.39 44.12 210.72 30.36 210.46 C 28.73 211.00 27.72 209.26 26.75 208.27 C 23.35 181.48 24.61 153.28 22.77 126.61 C 21.78 112.17 24.91 96.75 21.28 82.74 C 21.17 82.27 20.96 81.35 20.86 80.89 C 21.17 77.70 21.82 74.55 21.98 71.35 C 23.28 66.67 24.91 62.08 27.15 57.77 Z" />
</g>
<g id="#233341ff">
<path fill="#233341" opacity="1.00" d=" M 25.27 113.04 C 26.55 96.38 21.36 78.94 26.83 62.78 C 26.02 72.21 25.99 82.17 28.83 91.15 C 34.62 94.29 31.13 101.35 33.75 106.24 C 35.32 111.94 44.25 105.53 45.76 110.81 C 41.72 114.46 45.67 118.10 49.98 116.21 C 55.22 116.98 48.44 128.07 54.96 128.05 C 61.61 127.95 67.20 132.75 73.76 132.45 C 77.56 133.93 73.35 140.04 78.30 140.63 C 84.29 138.98 84.99 148.48 91.56 146.60 C 95.46 147.00 88.91 151.65 91.71 153.14 C 98.27 155.11 101.97 161.22 108.96 162.15 C 108.25 165.50 108.20 168.68 111.02 171.05 C 108.53 177.52 100.56 177.15 94.99 176.04 C 85.60 173.90 77.97 181.41 68.69 180.29 C 70.14 182.31 72.48 183.41 74.40 184.94 C 71.85 186.06 66.36 191.96 66.86 186.03 C 63.48 184.16 60.20 184.15 57.00 186.00 C 56.92 189.24 56.99 192.52 57.21 195.77 C 57.06 197.26 56.92 198.75 56.78 200.25 C 56.45 197.41 56.08 194.63 55.86 191.80 C 55.91 190.47 55.94 189.14 55.95 187.81 C 55.70 179.47 48.22 194.64 44.95 190.12 C 44.86 187.03 43.74 184.20 43.02 181.25 C 45.32 180.38 47.76 179.90 50.04 178.94 C 48.40 174.45 43.44 172.69 40.40 169.29 C 37.47 175.48 33.91 165.00 29.22 164.73 C 29.32 155.42 26.40 146.26 27.59 136.96 C 27.64 128.93 24.41 121.15 25.27 113.04 Z" />
</g>
<g id="#1f313aff">
<path fill="#1f313a" opacity="1.00" d=" M 217.23 73.10 C 217.93 72.58 218.68 72.50 219.49 72.88 C 219.26 73.35 218.78 74.27 218.54 74.74 C 216.93 77.58 215.28 80.41 214.00 83.41 C 212.95 84.89 211.98 86.42 211.10 88.00 C 211.04 87.48 210.92 86.43 210.86 85.91 C 197.51 102.25 189.01 122.26 185.14 142.87 C 187.27 151.37 188.76 161.50 195.26 167.75 C 203.13 167.80 211.60 169.76 218.99 165.98 C 222.11 164.04 225.73 166.89 228.90 165.01 C 244.70 158.96 262.68 162.02 278.27 156.18 C 306.25 155.86 334.25 155.92 362.23 156.14 C 345.26 163.87 325.72 163.05 307.64 164.62 C 300.30 168.12 292.05 165.63 284.32 167.26 C 263.15 170.35 241.82 174.12 221.82 181.94 C 217.14 183.46 211.20 181.86 207.58 185.88 C 207.23 185.85 206.52 185.78 206.17 185.75 C 202.58 185.62 198.21 183.84 194.89 186.01 C 191.70 186.79 194.82 183.67 195.01 182.21 C 191.15 180.98 187.00 181.08 183.16 179.86 C 178.13 176.50 176.45 170.04 171.41 166.67 C 173.42 161.35 164.81 157.63 171.14 153.33 C 170.12 141.24 178.89 131.99 183.71 121.68 C 192.66 104.02 205.43 88.82 217.23 73.10 Z" />
</g>
<g id="#58bbcaff">
<path fill="#58bbca" opacity="1.00" d=" M 222.59 73.73 C 222.39 71.34 225.19 71.96 226.73 72.13 C 227.02 77.69 232.96 79.58 237.11 81.87 C 243.44 81.30 250.25 80.10 256.26 82.69 C 256.83 84.94 257.32 86.71 258.98 84.03 C 259.16 89.04 258.16 94.77 262.29 98.54 C 269.79 102.05 278.12 100.98 286.16 101.02 C 285.59 104.13 276.34 99.12 278.16 103.01 C 282.03 103.22 285.84 102.20 289.71 102.16 C 292.23 110.01 303.16 104.57 307.46 111.41 C 307.54 116.91 317.20 121.12 316.40 113.07 C 323.57 113.21 324.58 122.50 325.13 127.97 C 329.25 129.47 331.55 127.25 333.35 124.19 C 337.32 122.28 339.46 125.01 341.44 127.61 C 345.68 128.21 350.25 128.01 353.76 130.80 C 354.81 128.94 355.68 126.98 356.65 125.08 C 360.08 131.19 362.04 141.98 357.59 146.80 C 360.34 148.48 362.12 150.61 358.93 152.97 C 339.70 151.93 320.23 154.65 301.07 151.96 C 298.82 146.84 301.09 141.17 307.06 140.86 C 305.69 133.31 298.97 143.77 294.84 140.24 C 289.13 139.54 295.03 132.74 291.77 130.09 C 287.74 129.31 284.08 132.21 282.42 135.67 C 271.90 139.43 280.42 121.66 271.14 123.11 C 267.42 125.60 260.85 127.53 259.22 121.96 C 262.10 115.75 254.14 117.43 250.23 115.91 C 239.88 115.59 240.93 99.28 230.14 99.77 C 221.80 100.33 212.85 91.84 214.00 83.41 C 215.28 80.41 216.93 77.58 218.54 74.74 C 217.92 78.15 223.85 76.43 222.59 73.73 Z" />
</g>
<g id="#b1b1b0ff">
<path fill="#b1b1b0" opacity="1.00" d=" M 0.00 86.38 C 7.05 84.81 13.33 80.15 20.86 80.89 C 20.96 81.35 21.17 82.27 21.28 82.74 C 21.13 84.42 20.94 86.10 20.79 87.79 C 20.36 91.46 20.10 95.15 20.01 98.85 C 10.69 94.88 5.59 106.29 0.00 111.45 L 0.00 86.38 Z" />
</g>
<g id="#101820ff">
<path fill="#101820" opacity="1.00" d=" M 21.28 82.74 C 24.91 96.75 21.78 112.17 22.77 126.61 C 20.94 191.68 26.27 256.87 25.15 321.97 C 25.95 335.59 31.75 349.00 42.03 358.02 C 47.05 360.44 53.28 361.52 54.20 367.81 C 65.50 375.53 80.88 372.28 93.70 375.21 C 116.08 377.11 138.51 373.66 160.87 375.72 C 176.87 374.82 193.27 377.95 208.74 372.66 C 211.25 367.96 207.85 361.36 202.11 363.76 C 200.78 360.19 200.93 354.85 195.89 355.05 C 190.47 354.90 200.75 351.81 196.50 350.58 C 189.97 348.31 193.87 340.90 191.21 336.02 C 194.54 329.00 184.44 325.22 186.95 318.01 C 189.26 310.08 188.92 301.15 194.47 294.46 C 198.50 290.03 198.89 281.73 205.88 280.74 C 205.85 281.23 205.79 282.21 205.77 282.70 C 200.32 284.73 201.12 291.90 199.23 296.30 C 193.19 323.55 211.42 348.53 230.69 365.16 C 231.66 370.43 238.36 370.98 242.21 373.75 C 239.05 374.75 235.90 375.77 232.75 376.80 C 179.15 377.28 125.55 376.84 71.95 377.02 C 53.77 376.05 37.05 364.21 28.22 348.60 C 22.90 338.30 20.45 326.84 20.75 315.23 C 21.19 250.75 21.11 186.26 20.79 121.78 C 21.13 110.45 21.11 99.12 20.79 87.79 C 20.94 86.10 21.13 84.42 21.28 82.74 Z" />
</g>
<g id="#54b8c7ff">
<path fill="#54b8c7" opacity="1.00" d=" M 211.10 88.00 C 211.98 86.42 212.95 84.89 214.00 83.41 C 212.85 91.84 221.80 100.33 230.14 99.77 C 240.93 99.28 239.88 115.59 250.23 115.91 C 254.14 117.43 262.10 115.75 259.22 121.96 C 260.85 127.53 267.42 125.60 271.14 123.11 C 280.42 121.66 271.90 139.43 282.42 135.67 C 284.08 132.21 287.74 129.31 291.77 130.09 C 295.03 132.74 289.13 139.54 294.84 140.24 C 298.97 143.77 305.69 133.31 307.06 140.86 C 301.09 141.17 298.82 146.84 301.07 151.96 C 285.60 152.78 269.81 150.31 254.55 153.43 C 238.37 155.41 217.50 154.49 209.45 137.59 C 204.71 126.71 204.38 113.69 208.38 102.36 C 209.37 100.41 208.71 98.38 207.72 96.60 C 208.64 93.65 209.86 90.82 211.10 88.00 Z" />
</g>
<g id="#c4e5edff">
<path fill="#c4e5ed" opacity="1.00" d=" M 372.39 83.70 C 373.80 109.42 372.61 135.23 373.00 160.99 L 372.01 161.01 C 371.99 159.00 371.99 156.99 371.97 154.98 C 372.25 131.22 371.52 107.45 372.39 83.70 Z" />
</g>
<g id="#14232cff">
<path fill="#14232c" opacity="1.00" d=" M 185.14 142.87 C 189.01 122.26 197.51 102.25 210.86 85.91 C 210.92 86.43 211.04 87.48 211.10 88.00 C 209.86 90.82 208.64 93.65 207.72 96.60 C 202.79 109.97 200.33 125.50 205.95 139.04 C 209.74 148.25 219.01 154.33 228.77 155.25 C 245.20 157.01 261.78 155.37 278.27 156.18 C 262.68 162.02 244.70 158.96 228.90 165.01 C 225.73 166.89 222.11 164.04 218.99 165.98 C 211.60 169.76 203.13 167.80 195.26 167.75 C 188.76 161.50 187.27 151.37 185.14 142.87 Z" />
</g>
<g id="#888680ff">
<path fill="#888680" opacity="1.00" d=" M 20.01 98.85 C 20.10 95.15 20.36 91.46 20.79 87.79 C 21.11 99.12 21.13 110.45 20.79 121.78 C 20.43 124.85 20.01 127.94 19.96 131.04 C 18.09 129.06 14.15 127.59 12.90 130.96 C 4.54 142.01 7.00 157.19 0.00 168.57 L 0.00 135.42 C 6.12 128.66 6.95 115.53 16.95 113.20 C 24.14 118.59 18.05 102.09 20.01 98.85 Z" />
</g>
<g id="#5fb2beff">
<path fill="#5fb2be" opacity="1.00" d=" M 205.95 139.04 C 200.33 125.50 202.79 109.97 207.72 96.60 C 208.71 98.38 209.37 100.41 208.38 102.36 C 204.38 113.69 204.71 126.71 209.45 137.59 C 217.50 154.49 238.37 155.41 254.55 153.43 C 269.81 150.31 285.60 152.78 301.07 151.96 C 320.23 154.65 339.70 151.93 358.93 152.97 C 361.35 153.43 363.84 153.97 366.30 153.38 L 367.26 153.27 C 367.20 153.70 367.06 154.57 366.99 155.01 C 320.92 155.15 274.84 154.68 228.77 155.25 C 219.01 154.33 209.74 148.25 205.95 139.04 Z" />
</g>
<g id="#9d9c97ff">
<path fill="#9d9c97" opacity="1.00" d=" M 0.00 111.45 C 5.59 106.29 10.69 94.88 20.01 98.85 C 18.05 102.09 24.14 118.59 16.95 113.20 C 6.95 115.53 6.12 128.66 0.00 135.42 L 0.00 111.45 Z" />
</g>
<g id="#414241ff">
<path fill="#414241" opacity="1.00" d=" M 19.96 131.04 C 20.01 127.94 20.43 124.85 20.79 121.78 C 21.11 186.26 21.19 250.75 20.75 315.23 C 19.01 271.23 20.48 227.10 20.01 183.05 C 19.98 176.07 20.07 169.10 19.97 162.12 C 19.97 155.74 20.06 149.36 19.99 142.99 C 20.00 139.00 19.99 135.02 19.96 131.04 Z" />
</g>
<g id="#121e2aff">
<path fill="#121e2a" opacity="1.00" d=" M 25.15 321.97 C 26.27 256.87 20.94 191.68 22.77 126.61 C 24.61 153.28 23.35 181.48 26.75 208.27 C 27.72 209.26 28.73 211.00 30.36 210.46 C 44.12 210.72 46.25 194.39 55.95 187.81 C 55.94 189.14 55.91 190.47 55.86 191.80 C 46.99 199.79 48.33 213.54 46.51 224.39 C 48.62 228.50 44.06 242.43 51.90 241.98 C 57.16 238.96 62.56 235.04 66.36 230.39 C 69.43 225.83 61.21 228.96 58.66 227.40 C 60.49 227.29 64.15 227.08 65.99 226.97 C 68.25 220.18 66.79 210.06 66.76 201.75 C 66.96 200.68 67.28 199.65 67.72 198.66 C 74.37 210.59 72.69 224.84 77.82 237.23 C 82.73 243.20 97.25 230.85 88.87 227.15 C 90.24 227.12 91.61 227.06 92.98 226.95 C 95.36 223.78 93.51 216.99 94.12 212.20 C 95.26 210.72 95.57 207.93 97.87 207.98 C 102.87 217.00 97.70 228.96 102.28 237.96 C 110.45 239.83 117.35 233.39 121.22 226.98 C 126.94 230.80 130.35 240.38 138.76 237.56 C 149.89 235.38 160.65 230.89 171.70 229.14 C 173.51 239.20 184.50 233.82 186.31 227.20 L 187.26 227.12 C 186.81 230.71 184.28 233.30 182.09 235.95 C 177.39 240.92 170.88 238.46 167.64 233.24 C 153.36 236.87 139.53 248.79 123.68 246.26 C 119.80 243.78 114.97 249.40 111.45 245.63 C 101.94 250.63 87.95 245.67 77.71 251.68 C 74.90 253.77 77.56 259.78 71.93 258.91 C 63.65 258.11 71.93 266.16 67.25 268.18 C 65.25 269.74 61.27 267.66 60.60 270.66 C 59.16 279.92 60.58 289.46 59.89 298.82 C 57.11 300.81 51.72 300.35 51.96 305.00 C 51.32 309.37 57.66 306.69 59.86 309.19 C 59.80 311.46 58.43 314.67 60.97 316.06 C 63.10 317.67 66.18 314.90 67.96 317.18 C 68.31 319.46 65.50 319.91 64.23 321.25 C 64.86 325.71 69.75 328.38 73.97 328.21 C 79.48 328.96 84.24 332.98 89.90 332.58 C 94.33 337.63 98.08 346.54 106.05 345.84 C 112.24 344.16 115.37 348.91 117.42 353.63 C 120.18 355.05 125.44 352.25 127.16 355.89 C 124.13 357.66 121.07 361.23 125.06 363.94 C 127.94 370.47 136.80 370.31 142.17 368.24 C 145.16 359.09 143.88 377.71 150.97 372.04 C 156.58 370.15 171.24 377.22 168.09 365.98 C 170.78 360.14 175.78 372.43 178.07 366.05 C 182.33 362.13 174.49 353.49 181.16 352.21 C 177.27 352.39 178.36 351.28 180.78 349.59 C 181.35 342.82 175.57 336.63 178.81 329.99 C 178.26 312.61 187.99 297.31 198.18 284.08 C 200.02 281.08 202.57 278.37 206.26 277.95 C 206.16 278.65 205.97 280.04 205.88 280.74 C 198.89 281.73 198.50 290.03 194.47 294.46 C 188.92 301.15 189.26 310.08 186.95 318.01 C 184.44 325.22 194.54 329.00 191.21 336.02 C 193.87 340.90 189.97 348.31 196.50 350.58 C 200.75 351.81 190.47 354.90 195.89 355.05 C 200.93 354.85 200.78 360.19 202.11 363.76 C 207.85 361.36 211.25 367.96 208.74 372.66 C 193.27 377.95 176.87 374.82 160.87 375.72 C 138.51 373.66 116.08 377.11 93.70 375.21 C 80.88 372.28 65.50 375.53 54.20 367.81 C 53.28 361.52 47.05 360.44 42.03 358.02 C 31.75 349.00 25.95 335.59 25.15 321.97 Z" />
</g>
<g id="#7a776fff">
<path fill="#7a776f" opacity="1.00" d=" M 12.90 130.96 C 14.15 127.59 18.09 129.06 19.96 131.04 C 19.99 135.02 20.00 139.00 19.99 142.99 C 18.12 142.54 15.73 141.31 14.79 143.77 C 3.52 166.66 6.59 193.67 0.00 217.52 L 0.00 168.57 C 7.00 157.19 4.54 142.01 12.90 130.96 Z" />
</g>
<g id="#6e6b60ff">
<path fill="#6e6b60" opacity="1.00" d=" M 14.79 143.77 C 15.73 141.31 18.12 142.54 19.99 142.99 C 20.06 149.36 19.97 155.74 19.97 162.12 C 18.31 160.54 14.87 156.98 14.30 161.31 C 5.02 200.10 5.43 240.37 3.02 279.98 C 3.69 304.46 -0.38 329.29 5.46 353.42 C 6.33 362.88 8.96 376.36 20.67 377.36 C 26.22 382.67 33.49 379.81 40.26 380.85 C 45.97 383.44 51.96 376.68 57.48 380.46 C 59.51 383.02 62.35 376.96 62.09 380.92 C 61.52 387.76 74.38 382.47 69.17 378.02 C 69.88 378.00 71.29 377.97 72.00 377.95 C 153.02 378.11 234.05 377.87 315.07 378.08 C 312.80 378.46 310.54 378.87 308.30 379.31 C 296.00 377.92 284.27 382.38 272.31 384.22 C 252.19 385.84 232.20 389.37 212.00 388.06 C 199.34 389.39 186.61 390.68 174.00 388.25 C 158.50 390.42 142.97 390.78 127.36 390.55 C 114.24 389.05 101.11 393.53 88.37 391.45 C 73.19 395.32 57.51 390.53 42.12 392.23 C 31.60 393.77 21.75 388.60 12.33 384.64 C 6.10 379.29 4.80 370.88 0.00 364.59 L 0.00 217.52 C 6.59 193.67 3.52 166.66 14.79 143.77 Z" />
</g>
<g id="#26626bff">
<path fill="#26626b" opacity="1.00" d=" M 228.77 155.25 C 274.84 154.68 320.92 155.15 366.99 155.01 C 367.53 155.01 368.61 155.02 369.15 155.03 C 368.93 155.32 368.50 155.91 368.28 156.21 L 367.31 156.21 C 365.61 156.16 363.92 156.12 362.23 156.14 C 334.25 155.92 306.25 155.86 278.27 156.18 C 261.78 155.37 245.20 157.01 228.77 155.25 Z" />
</g>
<g id="#3a4d5cff">
<path fill="#3a4d5c" opacity="1.00" d=" M 369.15 155.03 C 369.86 155.02 371.27 154.99 371.97 154.98 C 371.99 156.99 371.99 159.00 372.01 161.01 C 371.97 195.35 372.01 229.69 372.01 264.02 L 371.10 263.96 C 361.38 254.40 377.54 234.57 364.41 226.74 C 365.38 224.15 362.46 220.75 361.06 225.03 C 358.50 231.30 349.76 232.80 344.32 229.68 C 340.36 225.69 346.91 221.79 345.20 217.58 C 345.77 215.76 346.57 214.02 347.12 212.19 C 348.20 208.73 348.24 205.26 347.24 201.78 C 344.47 190.51 332.70 184.69 321.77 185.79 C 324.78 185.21 330.02 186.32 328.50 182.00 C 335.89 181.97 343.67 179.49 350.64 181.50 C 354.25 178.99 361.00 178.75 360.88 172.95 C 361.60 166.62 366.26 162.01 368.28 156.21 C 368.50 155.91 368.93 155.32 369.15 155.03 Z" />
</g>
<g id="#2b3d46ff">
<path fill="#2b3d46" opacity="1.00" d=" M 362.23 156.14 C 363.92 156.12 365.61 156.16 367.31 156.21 C 349.05 177.69 318.09 173.22 293.56 179.41 C 288.63 178.73 274.50 177.12 275.85 186.06 C 275.91 187.62 275.93 189.19 275.91 190.76 C 273.59 193.13 271.92 196.73 268.01 196.29 C 264.64 191.85 260.86 187.35 255.25 185.77 C 252.09 184.96 248.79 184.55 245.68 185.65 C 242.55 186.18 240.12 188.25 237.92 190.38 C 237.22 189.13 237.49 186.71 235.96 186.27 C 233.32 185.99 230.67 185.86 228.02 185.89 C 227.72 186.13 227.12 186.61 226.82 186.85 C 217.32 197.50 219.45 212.21 218.41 225.29 C 216.82 212.18 223.31 192.37 207.58 185.88 C 211.20 181.86 217.14 183.46 221.82 181.94 C 241.82 174.12 263.15 170.35 284.32 167.26 C 292.05 165.63 300.30 168.12 307.64 164.62 C 325.72 163.05 345.26 163.87 362.23 156.14 Z" />
</g>
<g id="#354751ff">
<path fill="#354751" opacity="1.00" d=" M 367.31 156.21 L 368.28 156.21 C 366.26 162.01 361.60 166.62 360.88 172.95 C 361.00 178.75 354.25 178.99 350.64 181.50 C 343.67 179.49 335.89 181.97 328.50 182.00 C 330.02 186.32 324.78 185.21 321.77 185.79 C 315.33 186.90 308.94 190.75 306.33 196.94 C 304.72 196.21 303.06 195.59 301.35 195.14 C 299.71 192.47 303.63 184.08 298.09 184.95 C 296.63 184.57 295.01 184.67 293.91 185.78 C 291.76 185.64 285.82 193.06 286.00 188.07 C 286.32 183.50 279.71 186.80 276.91 186.05 L 275.85 186.06 C 274.50 177.12 288.63 178.73 293.56 179.41 C 318.09 173.22 349.05 177.69 367.31 156.21 Z" />
</g>
<g id="#666256ff">
<path fill="#666256" opacity="1.00" d=" M 14.30 161.31 C 14.87 156.98 18.31 160.54 19.97 162.12 C 20.07 169.10 19.98 176.07 20.01 183.05 C 18.86 182.49 16.62 179.79 15.80 181.67 C 5.33 226.77 9.28 273.10 8.10 319.00 C 9.00 325.96 7.61 333.52 11.23 339.84 C 13.99 344.50 10.59 351.62 16.31 354.78 C 20.78 354.69 25.39 352.15 28.22 348.60 C 37.05 364.21 53.77 376.05 71.95 377.02 L 72.00 377.95 C 71.29 377.97 69.88 378.00 69.17 378.02 C 74.38 382.47 61.52 387.76 62.09 380.92 C 62.35 376.96 59.51 383.02 57.48 380.46 C 51.96 376.68 45.97 383.44 40.26 380.85 C 33.49 379.81 26.22 382.67 20.67 377.36 C 8.96 376.36 6.33 362.88 5.46 353.42 C -0.38 329.29 3.69 304.46 3.02 279.98 C 5.43 240.37 5.02 200.10 14.30 161.31 Z" />
</g>
<g id="#acbec5ff">
<path fill="#acbec5" opacity="1.00" d=" M 372.01 161.01 L 373.00 160.99 C 373.04 174.06 372.88 187.14 373.18 200.22 C 372.28 240.88 374.10 281.63 372.26 322.25 C 371.72 302.84 372.12 283.43 372.01 264.02 C 372.01 229.69 371.97 195.35 372.01 161.01 Z" />
</g>
<g id="#e2e3e3ff">
<path fill="#e2e3e3" opacity="1.00" d=" M 384.17 195.30 C 385.03 189.01 382.79 178.68 391.00 176.61 L 391.00 335.46 C 383.19 340.20 385.29 352.25 377.92 357.88 C 373.33 361.64 365.86 365.68 360.28 361.75 C 358.50 360.98 356.46 361.44 354.58 361.18 C 355.53 360.00 356.46 358.82 357.36 357.62 C 357.76 357.47 358.58 357.18 358.98 357.04 C 366.61 356.55 370.07 347.44 374.10 342.05 C 388.63 318.52 379.03 290.57 383.51 264.80 C 379.99 257.73 381.49 249.62 381.46 242.02 C 383.83 226.57 381.64 210.72 384.17 195.30 Z" />
</g>
<g id="#5c594dff">
<path fill="#5c594d" opacity="1.00" d=" M 15.80 181.67 C 16.62 179.79 18.86 182.49 20.01 183.05 C 20.48 227.10 19.01 271.23 20.75 315.23 C 20.45 326.84 22.90 338.30 28.22 348.60 C 25.39 352.15 20.78 354.69 16.31 354.78 C 10.59 351.62 13.99 344.50 11.23 339.84 C 7.61 333.52 9.00 325.96 8.10 319.00 C 9.28 273.10 5.33 226.77 15.80 181.67 Z" />
</g>
<g id="#656c71ff">
<path fill="#656c71" opacity="1.00" d=" M 57.00 186.00 C 60.20 184.15 63.48 184.16 66.86 186.03 C 63.57 185.99 60.29 186.00 57.00 186.00 Z" />
</g>
<g id="#f7f8f8ff">
<path fill="#f7f8f8" opacity="1.00" d=" M 74.40 184.94 C 79.50 184.92 85.03 185.15 88.40 189.61 C 91.58 193.36 94.69 186.95 97.85 185.84 C 101.31 185.83 104.78 185.88 108.24 185.80 C 126.09 190.92 116.73 213.91 118.98 226.97 C 117.39 227.02 115.81 226.97 114.24 226.92 C 104.18 224.29 113.40 208.27 109.27 200.76 C 108.58 198.07 106.82 195.68 104.19 194.62 C 101.93 193.03 98.56 192.45 96.85 194.82 C 95.67 196.00 94.06 197.01 93.73 198.77 C 92.32 208.09 93.20 217.56 92.98 226.95 C 91.61 227.06 90.24 227.12 88.87 227.15 C 87.23 226.75 84.85 227.66 83.73 226.21 C 83.32 217.79 85.42 208.99 83.31 200.72 C 82.22 193.42 70.23 191.38 67.72 198.66 C 67.28 199.65 66.96 200.68 66.76 201.75 C 65.39 210.09 66.13 218.56 65.99 226.97 C 64.15 227.08 60.49 227.29 58.66 227.40 C 57.35 216.89 58.74 206.25 57.21 195.77 C 56.99 192.52 56.92 189.24 57.00 186.00 C 60.29 186.00 63.57 185.99 66.86 186.03 C 66.36 191.96 71.85 186.06 74.40 184.94 Z" />
</g>
<g id="#838e95ff">
<path fill="#838e95" opacity="1.00" d=" M 97.85 185.84 C 101.27 184.71 104.74 184.69 108.24 185.80 C 104.78 185.88 101.31 185.83 97.85 185.84 Z" />
</g>
<g id="#98a1a6ff">
<path fill="#98a1a6" opacity="1.00" d=" M 141.68 185.69 C 144.75 184.46 148.10 185.01 151.24 185.75 C 148.04 185.71 144.87 185.78 141.68 185.69 Z" />
</g>
<g id="#838a8fff">
<path fill="#838a8f" opacity="1.00" d=" M 194.89 186.01 C 198.21 183.84 202.58 185.62 206.17 185.75 C 202.40 185.84 198.66 185.98 194.89 186.01 Z" />
</g>
<g id="#8b959aff">
<path fill="#8b959a" opacity="1.00" d=" M 245.68 185.65 C 248.79 184.55 252.09 184.96 255.25 185.77 C 252.04 185.72 248.87 185.79 245.68 185.65 Z" />
</g>
<g id="#959ea6ff">
<path fill="#959ea6" opacity="1.00" d=" M 293.91 185.78 C 295.01 184.67 296.63 184.57 298.09 184.95 C 297.29 186.57 295.30 186.34 293.91 185.78 Z" />
</g>
<g id="#f7f9f9ff">
<path fill="#f7f9f9" opacity="1.00" d=" M 298.09 184.95 C 303.63 184.08 299.71 192.47 301.35 195.14 C 295.20 194.57 287.59 196.55 286.75 203.74 C 285.43 211.51 286.00 219.42 286.21 227.26 C 285.66 227.12 284.55 226.84 284.00 226.70 C 281.65 225.31 279.39 225.11 277.20 226.11 C 277.08 225.40 276.85 223.97 276.74 223.25 C 277.10 210.85 277.08 198.45 276.91 186.05 C 279.71 186.80 286.32 183.50 286.00 188.07 C 285.82 193.06 291.76 185.64 293.91 185.78 C 295.30 186.34 297.29 186.57 298.09 184.95 Z" />
</g>
<g id="#f4f5f6ff">
<path fill="#f4f5f6" opacity="1.00" d=" M 126.95 201.88 C 128.13 194.12 133.74 187.22 141.68 185.69 C 144.87 185.78 148.04 185.71 151.24 185.75 C 154.01 186.71 156.26 188.67 158.84 190.01 C 160.47 185.95 165.14 187.18 168.95 186.96 C 169.22 200.34 168.89 213.72 168.97 227.10 C 164.93 227.40 159.65 228.31 158.69 223.35 C 155.49 224.56 152.42 226.10 149.18 227.20 C 147.34 227.24 143.66 227.31 141.82 227.35 C 134.11 225.49 127.94 219.13 126.64 211.30 C 126.72 208.14 126.90 205.02 126.95 201.88 M 136.80 204.04 C 131.46 211.91 144.90 223.28 151.94 218.16 C 156.48 217.75 158.40 212.67 159.07 208.80 C 160.86 208.28 160.86 203.72 159.08 203.19 C 157.89 190.92 136.86 191.63 136.80 204.04 Z" />
</g>
<g id="#939ba0ff">
<path fill="#939ba0" opacity="1.00" d=" M 158.84 190.01 C 156.90 183.66 167.15 185.42 168.95 186.96 C 165.14 187.18 160.47 185.95 158.84 190.01 Z" />
</g>
<g id="#f6f8f8ff">
<path fill="#f6f8f8" opacity="1.00" d=" M 178.20 192.76 C 175.46 184.86 181.53 185.12 187.67 186.06 C 186.90 192.72 192.08 188.11 194.89 186.01 C 198.66 185.98 202.40 185.84 206.17 185.75 C 206.52 185.78 207.23 185.85 207.58 185.88 C 223.31 192.37 216.82 212.18 218.41 225.29 C 218.30 225.71 218.10 226.56 217.99 226.98 C 214.88 227.04 211.80 227.10 208.70 227.27 C 208.55 219.13 210.10 210.73 208.38 202.69 C 207.53 192.74 192.21 190.73 188.62 199.76 C 188.23 200.72 187.95 201.72 187.77 202.75 C 186.33 210.42 187.39 218.24 186.90 225.98 C 184.30 224.68 174.92 229.21 178.97 221.00 C 178.26 211.65 180.41 201.94 178.20 192.76 Z" />
</g>
<g id="#aeb4b7ff">
<path fill="#aeb4b7" opacity="1.00" d=" M 226.82 186.85 C 227.12 186.61 227.72 186.13 228.02 185.89 C 227.77 204.69 228.38 223.51 227.78 242.31 L 226.94 242.00 C 226.86 223.61 227.28 205.23 226.82 186.85 Z" />
</g>
<g id="#f6f8f9ff">
<path fill="#f6f8f9" opacity="1.00" d=" M 228.02 185.89 C 230.67 185.86 233.32 185.99 235.96 186.27 C 235.80 187.67 235.48 192.28 237.92 190.38 C 240.12 188.25 242.55 186.18 245.68 185.65 C 248.87 185.79 252.04 185.72 255.25 185.77 C 260.86 187.35 264.64 191.85 268.01 196.29 C 268.68 200.80 268.92 205.35 268.97 209.92 C 267.39 210.78 267.65 212.76 268.32 214.13 C 265.35 225.49 250.50 231.16 241.01 223.99 C 239.96 223.68 237.86 223.06 236.81 222.75 C 235.44 229.41 236.10 236.26 235.98 243.02 C 233.21 243.06 230.35 243.50 227.78 242.31 C 228.38 223.51 227.77 204.69 228.02 185.89 M 246.18 194.93 C 241.68 194.60 238.46 199.16 237.86 203.21 C 236.22 204.19 236.25 208.73 237.76 209.78 C 238.47 213.51 241.40 217.38 245.20 218.16 C 245.77 219.79 250.24 219.84 250.74 218.17 C 255.37 217.68 258.82 213.33 259.05 208.80 C 260.86 208.69 260.86 204.32 259.07 204.19 C 258.32 200.05 255.58 195.06 250.81 194.93 C 250.67 193.14 246.33 193.14 246.18 194.93 Z" />
</g>
<g id="#b6babaff">
<path fill="#b6baba" opacity="1.00" d=" M 235.96 186.27 C 237.49 186.71 237.22 189.13 237.92 190.38 C 235.48 192.28 235.80 187.67 235.96 186.27 Z" />
</g>
<g id="#646a6fff">
<path fill="#646a6f" opacity="1.00" d=" M 275.85 186.06 L 276.91 186.05 C 277.08 198.45 277.10 210.85 276.74 223.25 C 275.30 212.48 276.27 201.58 275.91 190.76 C 275.93 189.19 275.91 187.62 275.85 186.06 Z" />
</g>
<g id="#f2f5f6ff">
<path fill="#f2f5f6" opacity="1.00" d=" M 306.33 196.94 C 308.94 190.75 315.33 186.90 321.77 185.79 C 332.70 184.69 344.47 190.51 347.24 201.78 C 347.18 205.23 347.15 208.72 347.12 212.19 C 346.57 214.02 345.77 215.76 345.20 217.58 C 343.65 219.51 341.85 221.22 340.06 222.91 C 339.44 223.46 338.82 224.03 338.22 224.59 C 335.94 225.58 333.70 226.68 331.31 227.35 C 328.09 227.29 324.93 227.23 321.74 227.25 C 313.58 226.36 306.80 220.09 304.75 212.26 C 304.77 208.74 304.88 205.27 304.83 201.76 C 305.10 200.09 305.73 198.51 306.33 196.94 M 314.50 202.37 C 310.07 208.81 320.00 223.87 328.80 218.31 C 332.79 218.26 336.12 214.34 337.06 210.82 C 338.91 209.95 338.92 205.04 337.05 204.19 C 336.25 192.86 317.49 191.28 314.50 202.37 Z" />
</g>
<g id="#1b2227ff">
<path fill="#1b2227" opacity="1.00" d=" M 169.93 188.51 C 172.37 189.01 174.68 188.24 176.89 187.26 C 177.27 189.89 177.51 192.51 177.84 195.17 C 178.01 203.84 178.14 212.53 177.86 221.20 C 176.63 219.51 176.09 216.81 174.08 216.01 C 172.39 218.94 172.36 222.56 170.38 225.35 C 169.75 213.08 170.02 200.79 169.93 188.51 Z" />
</g>
<g id="#182229ff">
<path fill="#182229" opacity="1.00" d=" M 218.41 225.29 C 219.45 212.21 217.32 197.50 226.82 186.85 C 227.28 205.23 226.86 223.61 226.94 242.00 C 226.34 246.55 233.41 242.97 236.13 244.15 C 234.99 250.70 219.64 258.54 218.39 248.57 C 215.44 242.75 224.66 232.98 216.70 230.27 C 211.31 230.07 206.43 240.49 201.27 235.71 C 198.88 225.06 198.92 213.14 193.66 203.20 C 190.37 204.06 187.95 203.94 188.62 199.76 C 192.21 190.73 207.53 192.74 208.38 202.69 C 208.79 210.76 206.39 219.42 208.70 227.27 C 210.91 227.61 216.45 229.29 217.99 226.98 C 218.10 226.56 218.30 225.71 218.41 225.29 Z" />
</g>
<g id="#1d2a35ff">
<path fill="#1d2a35" opacity="1.00" d=" M 268.01 196.29 C 271.92 196.73 273.59 193.13 275.91 190.76 C 276.27 201.58 275.30 212.48 276.74 223.25 C 276.85 223.97 277.08 225.40 277.20 226.11 C 279.08 227.81 281.34 228.00 284.00 226.70 C 284.55 226.84 285.66 227.12 286.21 227.26 C 285.57 233.77 279.33 238.40 273.15 239.10 C 269.03 234.29 267.56 228.02 266.84 221.92 C 259.70 230.07 252.97 239.83 242.34 243.48 C 234.39 245.31 234.80 256.20 227.28 259.23 C 224.90 260.43 225.17 262.18 226.92 263.84 C 223.46 263.83 219.96 263.83 216.78 265.29 C 215.65 265.71 214.50 266.18 213.55 266.95 C 209.99 269.75 207.86 273.81 206.26 277.95 C 206.30 276.25 205.63 275.72 204.25 276.34 C 194.66 282.20 187.06 293.09 175.21 294.05 C 178.98 285.38 169.33 287.28 171.71 293.91 C 168.54 293.46 165.08 292.69 163.29 289.75 C 162.95 285.76 165.76 280.75 162.40 277.61 C 156.58 273.45 167.58 270.89 171.01 272.83 C 173.51 265.51 161.61 272.37 161.95 266.01 C 165.57 260.04 167.61 251.60 175.87 249.79 C 181.72 243.69 186.62 235.44 188.11 227.00 C 188.16 218.91 187.99 210.83 187.77 202.75 C 187.95 201.72 188.23 200.72 188.62 199.76 C 187.95 203.94 190.37 204.06 193.66 203.20 C 198.92 213.14 198.88 225.06 201.27 235.71 C 206.43 240.49 211.31 230.07 216.70 230.27 C 224.66 232.98 215.44 242.75 218.39 248.57 C 219.64 258.54 234.99 250.70 236.13 244.15 C 233.41 242.97 226.34 246.55 226.94 242.00 L 227.78 242.31 C 230.35 243.50 233.21 243.06 235.98 243.02 C 238.32 238.01 236.69 229.41 236.81 222.75 C 237.86 223.06 239.96 223.68 241.01 223.99 C 250.50 231.16 265.35 225.49 268.32 214.13 C 269.35 212.96 269.40 211.35 268.97 209.92 C 268.92 205.35 268.68 200.80 268.01 196.29 Z" />
</g>
<g id="#0d1319ff">
<path fill="#0d1319" opacity="1.00" d=" M 46.51 224.39 C 48.33 213.54 46.99 199.79 55.86 191.80 C 56.08 194.63 56.45 197.41 56.78 200.25 C 58.73 208.51 53.97 221.04 58.66 227.40 C 61.21 228.96 69.43 225.83 66.36 230.39 C 62.56 235.04 57.16 238.96 51.90 241.98 C 44.06 242.43 48.62 228.50 46.51 224.39 Z" />
</g>
<g id="#d0d5d9ff">
<path fill="#d0d5d9" opacity="1.00" d=" M 178.20 192.76 C 180.41 201.94 178.26 211.65 178.97 221.00 C 174.92 229.21 184.30 224.68 186.90 225.98 C 187.39 218.24 186.33 210.42 187.77 202.75 C 187.99 210.83 188.16 218.91 188.11 227.00 L 187.26 227.12 L 186.31 227.20 C 181.39 227.46 175.39 228.48 177.86 221.20 C 178.14 212.53 178.01 203.84 177.84 195.17 C 177.93 194.57 178.11 193.37 178.20 192.76 Z" />
</g>
<g id="#0b1216ff">
<path fill="#0b1216" opacity="1.00" d=" M 67.72 198.66 C 70.23 191.38 82.22 193.42 83.31 200.72 C 83.85 209.10 81.34 218.07 83.73 226.21 C 84.85 227.66 87.23 226.75 88.87 227.15 C 97.25 230.85 82.73 243.20 77.82 237.23 C 72.69 224.84 74.37 210.59 67.72 198.66 Z" />
</g>
<g id="#515254ff">
<path fill="#515254" opacity="1.00" d=" M 96.85 194.82 C 98.56 192.45 101.93 193.03 104.19 194.62 C 102.36 194.67 98.68 194.77 96.85 194.82 Z" />
</g>
<g id="#151c22ff">
<path fill="#151c22" opacity="1.00" d=" M 136.80 204.04 C 136.86 191.63 157.89 190.92 159.08 203.19 C 158.96 205.06 158.96 206.93 159.07 208.80 C 158.40 212.67 156.48 217.75 151.94 218.16 C 147.07 219.02 151.78 212.77 148.26 210.76 C 146.17 205.39 136.53 210.16 136.80 204.04 Z" />
</g>
<g id="#999ca1ff">
<path fill="#999ca1" opacity="1.00" d=" M 246.18 194.93 C 246.33 193.14 250.67 193.14 250.81 194.93 C 249.27 195.03 247.72 195.03 246.18 194.93 Z" />
</g>
<g id="#0f161cff">
<path fill="#0f161c" opacity="1.00" d=" M 93.73 198.77 C 94.06 197.01 95.67 196.00 96.85 194.82 C 98.68 194.77 102.36 194.67 104.19 194.62 C 106.82 195.68 108.58 198.07 109.27 200.76 C 109.04 209.47 108.80 218.17 109.04 226.88 C 110.77 226.98 112.50 226.92 114.24 226.92 C 115.81 226.97 117.39 227.02 118.98 226.97 C 121.92 220.60 118.85 208.97 120.07 200.95 C 121.58 201.15 124.59 201.56 126.10 201.76 C 126.11 204.92 125.69 208.21 126.64 211.30 C 127.94 219.13 134.11 225.49 141.82 227.35 C 144.21 228.59 147.40 229.67 149.18 227.20 C 152.42 226.10 155.49 224.56 158.69 223.35 C 159.65 228.31 164.93 227.40 168.97 227.10 C 169.32 226.67 170.03 225.79 170.38 225.35 C 172.36 222.56 172.39 218.94 174.08 216.01 C 176.09 216.81 176.63 219.51 177.86 221.20 C 175.39 228.48 181.39 227.46 186.31 227.20 C 184.50 233.82 173.51 239.20 171.70 229.14 C 160.65 230.89 149.89 235.38 138.76 237.56 C 130.35 240.38 126.94 230.80 121.22 226.98 C 117.35 233.39 110.45 239.83 102.28 237.96 C 97.70 228.96 102.87 217.00 97.87 207.98 C 95.57 207.93 95.26 210.72 94.12 212.20 C 94.05 207.71 93.84 203.24 93.73 198.77 Z" />
</g>
<g id="#1e292fff">
<path fill="#1e292f" opacity="1.00" d=" M 237.86 203.21 C 238.46 199.16 241.68 194.60 246.18 194.93 C 247.72 195.03 249.27 195.03 250.81 194.93 C 255.58 195.06 258.32 200.05 259.07 204.19 C 258.98 205.72 258.98 207.26 259.05 208.80 C 258.82 213.33 255.37 217.68 250.74 218.17 C 250.31 218.10 249.46 217.95 249.03 217.88 C 255.14 211.80 243.83 199.42 238.13 208.16 C 238.08 206.50 237.98 204.85 237.86 203.21 Z" />
</g>
<g id="#24323dff">
<path fill="#24323d" opacity="1.00" d=" M 286.75 203.74 C 287.59 196.55 295.20 194.57 301.35 195.14 C 303.06 195.59 304.72 196.21 306.33 196.94 C 305.73 198.51 305.10 200.09 304.83 201.76 C 304.58 203.30 304.09 206.38 303.85 207.92 C 296.98 204.20 296.93 215.60 297.28 219.68 C 296.46 229.15 305.05 235.74 312.96 238.74 C 320.62 236.46 328.01 233.63 335.14 230.03 C 327.17 240.81 313.94 247.99 300.66 248.37 C 294.45 247.23 290.37 235.05 284.37 242.24 C 286.69 250.00 276.24 247.16 271.85 249.79 C 266.08 250.54 270.26 261.63 262.01 257.94 C 250.52 259.66 238.03 257.40 227.76 263.82 L 226.92 263.84 C 225.17 262.18 224.90 260.43 227.28 259.23 C 234.80 256.20 234.39 245.31 242.34 243.48 C 252.97 239.83 259.70 230.07 266.84 221.92 C 267.56 228.02 269.03 234.29 273.15 239.10 C 279.33 238.40 285.57 233.77 286.21 227.26 C 287.54 219.48 287.00 211.58 286.75 203.74 Z" />
</g>
<g id="#283138ff">
<path fill="#283138" opacity="1.00" d=" M 314.50 202.37 C 317.49 191.28 336.25 192.86 337.05 204.19 C 337.05 205.85 337.05 209.16 337.06 210.82 C 336.12 214.34 332.79 218.26 328.80 218.31 C 329.19 209.51 319.92 207.14 314.50 202.37 Z" />
</g>
<g id="#d0d0d1ff">
<path fill="#d0d0d1" opacity="1.00" d=" M 57.21 195.77 C 58.74 206.25 57.35 216.89 58.66 227.40 C 53.97 221.04 58.73 208.51 56.78 200.25 C 56.92 198.75 57.06 197.26 57.21 195.77 Z" />
</g>
<g id="#495154ff">
<path fill="#495154" opacity="1.00" d=" M 92.98 226.95 C 93.20 217.56 92.32 208.09 93.73 198.77 C 93.84 203.24 94.05 207.71 94.12 212.20 C 93.51 216.99 95.36 223.78 92.98 226.95 Z" />
</g>
<g id="#77787aff">
<path fill="#77787a" opacity="1.00" d=" M 83.31 200.72 C 85.42 208.99 83.32 217.79 83.73 226.21 C 81.34 218.07 83.85 209.10 83.31 200.72 Z" />
</g>
<g id="#b1b4b7ff">
<path fill="#b1b4b7" opacity="1.00" d=" M 109.27 200.76 C 113.40 208.27 104.18 224.29 114.24 226.92 C 112.50 226.92 110.77 226.98 109.04 226.88 C 108.80 218.17 109.04 209.47 109.27 200.76 Z" />
</g>
<g id="#bfc6c9ff">
<path fill="#bfc6c9" opacity="1.00" d=" M 65.99 226.97 C 66.13 218.56 65.39 210.09 66.76 201.75 C 66.79 210.06 68.25 220.18 65.99 226.97 Z" />
</g>
<g id="#8e9398ff">
<path fill="#8e9398" opacity="1.00" d=" M 126.10 201.76 L 126.95 201.88 C 126.90 205.02 126.72 208.14 126.64 211.30 C 125.69 208.21 126.11 204.92 126.10 201.76 Z" />
</g>
<g id="#999fa2ff">
<path fill="#999fa2" opacity="1.00" d=" M 303.85 207.92 C 304.09 206.38 304.58 203.30 304.83 201.76 C 304.88 205.27 304.77 208.74 304.75 212.26 C 304.31 210.84 304.07 209.37 303.85 207.92 Z" />
</g>
<g id="#3a454cff">
<path fill="#3a454c" opacity="1.00" d=" M 328.80 218.31 C 320.00 223.87 310.07 208.81 314.50 202.37 C 319.92 207.14 329.19 209.51 328.80 218.31 Z" />
</g>
<g id="#9aa5aeff">
<path fill="#9aa5ae" opacity="1.00" d=" M 347.24 201.78 C 348.24 205.26 348.20 208.73 347.12 212.19 C 347.15 208.72 347.18 205.23 347.24 201.78 Z" />
</g>
<g id="#b5b9bbff">
<path fill="#b5b9bb" opacity="1.00" d=" M 159.08 203.19 C 160.86 203.72 160.86 208.28 159.07 208.80 C 158.96 206.93 158.96 205.06 159.08 203.19 Z" />
</g>
<g id="#a2a6a8ff">
<path fill="#a2a6a8" opacity="1.00" d=" M 208.38 202.69 C 210.10 210.73 208.55 219.13 208.70 227.27 C 206.39 219.42 208.79 210.76 208.38 202.69 Z" />
</g>
<g id="#a6abafff">
<path fill="#a6abaf" opacity="1.00" d=" M 237.76 209.78 C 236.25 208.73 236.22 204.19 237.86 203.21 C 237.98 204.85 238.08 206.50 238.13 208.16 C 238.03 208.57 237.85 209.37 237.76 209.78 Z" />
</g>
<g id="#27333cff">
<path fill="#27333c" opacity="1.00" d=" M 151.94 218.16 C 144.90 223.28 131.46 211.91 136.80 204.04 C 136.53 210.16 146.17 205.39 148.26 210.76 C 151.78 212.77 147.07 219.02 151.94 218.16 Z" />
</g>
<g id="#b0b6b7ff">
<path fill="#b0b6b7" opacity="1.00" d=" M 259.07 204.19 C 260.86 204.32 260.86 208.69 259.05 208.80 C 258.98 207.26 258.98 205.72 259.07 204.19 Z" />
</g>
<g id="#acb1b7ff">
<path fill="#acb1b7" opacity="1.00" d=" M 286.21 227.26 C 286.00 219.42 285.43 211.51 286.75 203.74 C 287.00 211.58 287.54 219.48 286.21 227.26 Z" />
</g>
<g id="#868c8eff">
<path fill="#868c8e" opacity="1.00" d=" M 337.05 204.19 C 338.92 205.04 338.91 209.95 337.06 210.82 C 337.05 209.16 337.05 205.85 337.05 204.19 Z" />
</g>
<g id="#2d3c43ff">
<path fill="#2d3c43" opacity="1.00" d=" M 238.13 208.16 C 243.83 199.42 255.14 211.80 249.03 217.88 C 247.75 217.96 246.47 218.06 245.20 218.16 C 241.40 217.38 238.47 213.51 237.76 209.78 C 237.85 209.37 238.03 208.57 238.13 208.16 Z" />
</g>
<g id="#1e272fff">
<path fill="#1e272f" opacity="1.00" d=" M 297.28 219.68 C 296.93 215.60 296.98 204.20 303.85 207.92 C 304.07 209.37 304.31 210.84 304.75 212.26 C 306.80 220.09 313.58 226.36 321.74 227.25 C 324.86 227.79 328.22 228.55 331.31 227.35 C 333.70 226.68 335.94 225.58 338.22 224.59 C 338.68 226.86 336.11 228.22 335.14 230.03 C 328.01 233.63 320.62 236.46 312.96 238.74 C 305.05 235.74 296.46 229.15 297.28 219.68 Z" />
</g>
<g id="#90979bff">
<path fill="#90979b" opacity="1.00" d=" M 268.32 214.13 C 267.65 212.76 267.39 210.78 268.97 209.92 C 269.40 211.35 269.35 212.96 268.32 214.13 Z" />
</g>
<g id="#afb6bcff">
<path fill="#afb6bc" opacity="1.00" d=" M 245.20 218.16 C 246.47 218.06 247.75 217.96 249.03 217.88 C 249.46 217.95 250.31 218.10 250.74 218.17 C 250.24 219.84 245.77 219.79 245.20 218.16 Z" />
</g>
<g id="#304351ff">
<path fill="#304351" opacity="1.00" d=" M 340.06 222.91 C 341.85 221.22 343.65 219.51 345.20 217.58 C 346.91 221.79 340.36 225.69 344.32 229.68 C 349.76 232.80 358.50 231.30 361.06 225.03 C 362.46 220.75 365.38 224.15 364.41 226.74 C 377.54 234.57 361.38 254.40 371.10 263.96 C 363.83 263.96 356.57 264.06 349.31 263.84 C 339.81 260.85 328.33 261.05 318.11 259.96 C 323.25 245.96 333.99 235.39 341.92 223.07 C 341.45 223.03 340.52 222.95 340.06 222.91 Z" />
</g>
<g id="#d1d6dcff">
<path fill="#d1d6dc" opacity="1.00" d=" M 235.98 243.02 C 236.10 236.26 235.44 229.41 236.81 222.75 C 236.69 229.41 238.32 238.01 235.98 243.02 Z" />
</g>
<g id="#243945ff">
<path fill="#243945" opacity="1.00" d=" M 340.06 222.91 C 340.52 222.95 341.45 223.03 341.92 223.07 C 333.99 235.39 323.25 245.96 318.11 259.96 C 328.33 261.05 339.81 260.85 349.31 263.84 C 332.80 264.24 316.28 263.73 299.77 264.19 C 291.10 263.98 282.43 263.79 273.77 264.21 C 263.10 263.86 252.43 263.93 241.77 264.23 C 237.09 264.06 232.43 263.96 227.76 263.82 C 238.03 257.40 250.52 259.66 262.01 257.94 C 270.26 261.63 266.08 250.54 271.85 249.79 C 276.24 247.16 286.69 250.00 284.37 242.24 C 290.37 235.05 294.45 247.23 300.66 248.37 C 313.94 247.99 327.17 240.81 335.14 230.03 C 336.11 228.22 338.68 226.86 338.22 224.59 C 338.82 224.03 339.44 223.46 340.06 222.91 Z" />
</g>
<g id="#949c9aff">
<path fill="#949c9a" opacity="1.00" d=" M 277.20 226.11 C 279.39 225.11 281.65 225.31 284.00 226.70 C 281.34 228.00 279.08 227.81 277.20 226.11 Z" />
</g>
<g id="#787c81ff">
<path fill="#787c81" opacity="1.00" d=" M 141.82 227.35 C 143.66 227.31 147.34 227.24 149.18 227.20 C 147.40 229.67 144.21 228.59 141.82 227.35 Z" />
</g>
<g id="#172532ff">
<path fill="#172532" opacity="1.00" d=" M 187.26 227.12 L 188.11 227.00 C 186.62 235.44 181.72 243.69 175.87 249.79 C 167.61 251.60 165.57 260.04 161.95 266.01 C 161.61 272.37 173.51 265.51 171.01 272.83 C 167.58 270.89 156.58 273.45 162.40 277.61 C 165.76 280.75 162.95 285.76 163.29 289.75 C 165.08 292.69 168.54 293.46 171.71 293.91 C 169.33 287.28 178.98 285.38 175.21 294.05 C 187.06 293.09 194.66 282.20 204.25 276.34 C 205.63 275.72 206.30 276.25 206.26 277.95 C 202.57 278.37 200.02 281.08 198.18 284.08 C 184.76 292.75 182.67 310.73 169.91 319.80 C 167.10 323.82 167.13 328.68 164.67 332.68 C 151.20 333.02 138.36 329.72 125.05 327.95 C 121.48 326.81 124.51 332.89 121.19 331.95 C 119.67 324.49 126.54 319.91 124.09 311.99 C 125.82 305.76 115.28 310.47 115.96 305.00 C 115.30 298.25 127.86 302.31 123.99 294.08 C 123.15 289.84 115.96 295.19 115.36 289.75 C 116.63 284.50 113.40 278.07 118.26 274.17 C 119.34 270.62 109.66 266.18 115.20 263.24 C 121.45 260.26 129.29 262.92 135.70 260.73 C 139.58 258.76 132.63 255.31 135.67 252.71 C 139.16 248.32 146.06 252.00 149.65 247.61 C 154.95 242.30 163.24 236.67 170.73 241.32 C 174.76 244.89 180.80 240.22 182.09 235.95 C 184.28 233.30 186.81 230.71 187.26 227.12 Z" />
</g>
<g id="#4e5256ff">
<path fill="#4e5256" opacity="1.00" d=" M 208.70 227.27 C 211.80 227.10 214.88 227.04 217.99 226.98 C 216.45 229.29 210.91 227.61 208.70 227.27 Z" />
</g>
<g id="#a1a5aaff">
<path fill="#a1a5aa" opacity="1.00" d=" M 321.74 227.25 C 324.93 227.23 328.09 227.29 331.31 227.35 C 328.22 228.55 324.86 227.79 321.74 227.25 Z" />
</g>
<g id="#14212eff">
<path fill="#14212e" opacity="1.00" d=" M 123.68 246.26 C 139.53 248.79 153.36 236.87 167.64 233.24 C 170.88 238.46 177.39 240.92 182.09 235.95 C 180.80 240.22 174.76 244.89 170.73 241.32 C 163.24 236.67 154.95 242.30 149.65 247.61 C 146.06 252.00 139.16 248.32 135.67 252.71 C 132.63 255.31 139.58 258.76 135.70 260.73 C 129.29 262.92 121.45 260.26 115.20 263.24 C 109.66 266.18 119.34 270.62 118.26 274.17 C 113.40 278.07 116.63 284.50 115.36 289.75 C 115.96 295.19 123.15 289.84 123.99 294.08 C 127.86 302.31 115.30 298.25 115.96 305.00 C 115.28 310.47 125.82 305.76 124.09 311.99 C 126.54 319.91 119.67 324.49 121.19 331.95 C 124.51 332.89 121.48 326.81 125.05 327.95 C 138.36 329.72 151.20 333.02 164.67 332.68 C 167.13 328.68 167.10 323.82 169.91 319.80 C 182.67 310.73 184.76 292.75 198.18 284.08 C 187.99 297.31 178.26 312.61 178.81 329.99 C 175.57 336.63 181.35 342.82 180.78 349.59 C 178.36 351.28 177.27 352.39 181.16 352.21 C 174.49 353.49 182.33 362.13 178.07 366.05 C 175.78 372.43 170.78 360.14 168.09 365.98 C 171.24 377.22 156.58 370.15 150.97 372.04 C 143.88 377.71 145.16 359.09 142.17 368.24 C 136.80 370.31 127.94 370.47 125.06 363.94 C 121.07 361.23 124.13 357.66 127.16 355.89 C 125.44 352.25 120.18 355.05 117.42 353.63 C 115.37 348.91 112.24 344.16 106.05 345.84 C 98.08 346.54 94.33 337.63 89.90 332.58 C 84.24 332.98 79.48 328.96 73.97 328.21 C 69.75 328.38 64.86 325.71 64.23 321.25 C 65.50 319.91 68.31 319.46 67.96 317.18 C 66.18 314.90 63.10 317.67 60.97 316.06 C 58.43 314.67 59.80 311.46 59.86 309.19 C 57.66 306.69 51.32 309.37 51.96 305.00 C 51.72 300.35 57.11 300.81 59.89 298.82 C 60.58 289.46 59.16 279.92 60.60 270.66 C 61.27 267.66 65.25 269.74 67.25 268.18 C 71.93 266.16 63.65 258.11 71.93 258.91 C 77.56 259.78 74.90 253.77 77.71 251.68 C 87.95 245.67 101.94 250.63 111.45 245.63 C 114.97 249.40 119.80 243.78 123.68 246.26 Z" />
</g>
<g id="#287c80ff">
<path fill="#287c80" opacity="1.00" d=" M 216.78 265.29 C 219.96 263.83 223.46 263.83 226.92 263.84 L 227.76 263.82 C 232.43 263.96 237.09 264.06 241.77 264.23 C 255.47 265.63 269.37 267.22 283.07 267.22 C 283.43 269.63 280.48 268.72 279.03 269.31 C 277.70 274.34 285.16 271.63 286.36 275.66 C 289.41 281.11 295.95 281.32 301.05 283.13 C 296.85 288.25 301.58 291.59 306.77 289.09 C 306.89 296.82 314.04 304.95 321.97 304.09 C 328.53 303.99 330.70 313.04 337.38 311.80 C 342.45 314.78 349.83 311.54 352.64 318.36 C 355.36 325.01 365.58 324.20 366.45 331.43 C 365.91 334.49 366.80 336.51 369.12 337.48 C 368.31 339.71 367.53 341.97 366.42 344.08 C 361.76 343.90 359.78 338.09 354.35 339.62 C 351.42 332.61 337.20 340.68 339.79 331.16 C 337.30 329.37 333.57 332.18 331.88 329.09 C 329.79 327.42 332.70 325.12 333.00 323.15 C 327.03 322.48 321.47 319.54 315.44 319.59 C 313.42 313.02 305.68 312.74 301.11 309.34 C 295.84 311.81 296.26 304.19 291.85 303.20 C 286.52 302.67 289.54 293.63 284.13 294.33 C 279.29 295.24 273.39 290.16 275.72 285.09 C 274.12 281.21 266.26 282.32 265.72 277.17 C 263.88 271.00 255.50 273.80 250.93 273.01 C 248.26 272.86 251.98 271.60 252.86 271.84 C 248.56 270.34 258.34 264.84 248.44 267.48 C 237.91 266.37 227.12 268.11 216.78 265.29 Z" />
</g>
<g id="#2d8186ff">
<path fill="#2d8186" opacity="1.00" d=" M 241.77 264.23 C 252.43 263.93 263.10 263.86 273.77 264.21 C 286.37 265.61 299.43 265.35 311.74 268.26 C 315.96 277.23 327.76 276.96 333.46 284.29 C 332.68 289.78 340.70 287.60 342.25 292.64 C 350.00 290.53 354.57 297.81 357.34 303.64 C 372.25 304.54 364.61 321.69 369.63 330.23 C 369.46 332.65 369.16 335.05 369.12 337.48 C 366.80 336.51 365.91 334.49 366.45 331.43 C 365.58 324.20 355.36 325.01 352.64 318.36 C 349.83 311.54 342.45 314.78 337.38 311.80 C 330.70 313.04 328.53 303.99 321.97 304.09 C 314.04 304.95 306.89 296.82 306.77 289.09 C 301.58 291.59 296.85 288.25 301.05 283.13 C 295.95 281.32 289.41 281.11 286.36 275.66 C 285.16 271.63 277.70 274.34 279.03 269.31 C 280.48 268.72 283.43 269.63 283.07 267.22 C 269.37 267.22 255.47 265.63 241.77 264.23 Z" />
</g>
<g id="#32878dff">
<path fill="#32878d" opacity="1.00" d=" M 273.77 264.21 C 282.43 263.79 291.10 263.98 299.77 264.19 C 321.44 266.46 343.23 267.26 365.01 266.98 C 366.27 266.76 367.19 267.21 367.76 268.34 C 369.18 288.94 369.03 309.62 369.63 330.23 C 364.61 321.69 372.25 304.54 357.34 303.64 C 354.57 297.81 350.00 290.53 342.25 292.64 C 340.70 287.60 332.68 289.78 333.46 284.29 C 327.76 276.96 315.96 277.23 311.74 268.26 C 299.43 265.35 286.37 265.61 273.77 264.21 Z" />
</g>
<g id="#478c92ff">
<path fill="#478c92" opacity="1.00" d=" M 299.77 264.19 C 316.28 263.73 332.80 264.24 349.31 263.84 C 356.57 264.06 363.83 263.96 371.10 263.96 L 372.01 264.02 C 372.12 283.43 371.72 302.84 372.26 322.25 C 371.41 327.34 371.22 332.68 369.12 337.48 C 369.16 335.05 369.46 332.65 369.63 330.23 C 369.03 309.62 369.18 288.94 367.76 268.34 C 367.19 267.21 366.27 266.76 365.01 266.98 C 343.23 267.26 321.44 266.46 299.77 264.19 Z" />
</g>
<g id="#23777bff">
<path fill="#23777b" opacity="1.00" d=" M 213.55 266.95 C 214.50 266.18 215.65 265.71 216.78 265.29 C 227.12 268.11 237.91 266.37 248.44 267.48 C 258.34 264.84 248.56 270.34 252.86 271.84 C 251.98 271.60 248.26 272.86 250.93 273.01 C 255.50 273.80 263.88 271.00 265.72 277.17 C 266.26 282.32 274.12 281.21 275.72 285.09 C 273.39 290.16 279.29 295.24 284.13 294.33 C 289.54 293.63 286.52 302.67 291.85 303.20 C 296.26 304.19 295.84 311.81 301.11 309.34 C 305.68 312.74 313.42 313.02 315.44 319.59 C 321.47 319.54 327.03 322.48 333.00 323.15 C 332.70 325.12 329.79 327.42 331.88 329.09 C 333.57 332.18 337.30 329.37 339.79 331.16 C 337.20 340.68 351.42 332.61 354.35 339.62 C 359.78 338.09 361.76 343.90 366.42 344.08 C 366.19 344.52 365.73 345.41 365.50 345.85 C 362.12 346.60 359.86 349.43 356.90 351.02 C 352.37 349.35 348.04 346.78 342.95 348.81 C 336.85 352.67 336.86 344.82 332.35 344.65 C 328.51 343.19 322.93 345.65 320.20 341.79 C 317.17 337.92 317.42 330.21 310.12 331.75 C 304.76 331.50 303.25 321.28 298.29 325.67 C 295.85 319.87 289.21 321.08 284.43 318.96 C 284.75 316.58 285.75 313.28 282.56 312.50 C 278.08 313.62 275.51 311.12 276.76 307.38 C 272.16 306.86 267.63 304.35 268.29 298.70 C 263.51 298.92 259.16 297.15 258.56 292.18 C 252.07 296.76 253.88 280.93 245.00 285.02 C 239.63 287.67 239.57 280.91 235.54 280.51 C 224.76 280.99 235.46 278.82 233.89 275.30 C 226.90 272.41 217.63 274.86 213.55 266.95 Z" />
</g>
<g id="#1f7276ff">
<path fill="#1f7276" opacity="1.00" d=" M 206.26 277.95 C 207.86 273.81 209.99 269.75 213.55 266.95 C 217.63 274.86 226.90 272.41 233.89 275.30 C 235.46 278.82 224.76 280.99 235.54 280.51 C 239.57 280.91 239.63 287.67 245.00 285.02 C 253.88 280.93 252.07 296.76 258.56 292.18 C 259.16 297.15 263.51 298.92 268.29 298.70 C 267.63 304.35 272.16 306.86 276.76 307.38 C 275.51 311.12 278.08 313.62 282.56 312.50 C 285.75 313.28 284.75 316.58 284.43 318.96 C 289.21 321.08 295.85 319.87 298.29 325.67 C 303.25 321.28 304.76 331.50 310.12 331.75 C 317.42 330.21 317.17 337.92 320.20 341.79 C 322.93 345.65 328.51 343.19 332.35 344.65 C 336.86 344.82 336.85 352.67 342.95 348.81 C 348.04 346.78 352.37 349.35 356.90 351.02 C 359.86 349.43 362.12 346.60 365.50 345.85 C 364.22 348.78 362.49 351.48 360.55 354.01 C 352.13 351.21 346.37 365.20 337.05 363.13 C 332.73 366.11 326.94 367.28 322.56 363.57 C 318.90 363.16 312.50 364.83 311.45 359.74 C 313.02 353.52 304.64 361.84 303.39 356.78 C 302.22 353.87 299.78 356.33 298.00 356.97 C 294.46 356.46 297.63 353.09 298.11 351.14 C 302.76 341.04 288.57 348.34 285.23 342.64 C 289.20 340.53 285.77 333.03 281.02 335.91 C 275.76 336.89 272.19 332.46 268.44 329.77 C 269.53 320.85 257.94 321.21 252.24 318.79 C 249.56 311.28 242.36 306.47 235.09 303.91 C 230.21 301.66 224.21 307.50 220.02 302.69 C 223.57 300.94 224.42 298.29 221.64 295.16 C 216.31 294.13 209.13 301.54 207.97 292.90 C 207.21 289.49 206.48 286.11 205.77 282.70 C 205.79 282.21 205.85 281.23 205.88 280.74 C 205.97 280.04 206.16 278.65 206.26 277.95 Z" />
</g>
<g id="#08111aff">
<path fill="#08111a" opacity="1.00" d=" M 199.23 296.30 C 201.12 291.90 200.32 284.73 205.77 282.70 C 206.48 286.11 207.21 289.49 207.97 292.90 C 211.30 309.39 221.74 324.12 232.66 336.65 C 248.50 354.44 268.91 370.59 292.85 375.04 C 294.71 376.62 299.28 379.21 290.06 377.00 C 270.96 376.93 251.85 377.20 232.75 376.80 C 235.90 375.77 239.05 374.75 242.21 373.75 C 238.36 370.98 231.66 370.43 230.69 365.16 C 211.42 348.53 193.19 323.55 199.23 296.30 Z" />
</g>
<g id="#1b6c6fff">
<path fill="#1b6c6f" opacity="1.00" d=" M 207.97 292.90 C 209.13 301.54 216.31 294.13 221.64 295.16 C 224.42 298.29 223.57 300.94 220.02 302.69 C 224.21 307.50 230.21 301.66 235.09 303.91 C 242.36 306.47 249.56 311.28 252.24 318.79 C 257.94 321.21 269.53 320.85 268.44 329.77 C 272.19 332.46 275.76 336.89 281.02 335.91 C 285.77 333.03 289.20 340.53 285.23 342.64 C 288.57 348.34 302.76 341.04 298.11 351.14 C 297.63 353.09 294.46 356.46 298.00 356.97 C 299.78 356.33 302.22 353.87 303.39 356.78 C 304.64 361.84 313.02 353.52 311.45 359.74 C 312.50 364.83 318.90 363.16 322.56 363.57 C 326.94 367.28 332.73 366.11 337.05 363.13 C 346.37 365.20 352.13 351.21 360.55 354.01 C 360.03 355.02 359.51 356.03 358.98 357.04 C 358.58 357.18 357.76 357.47 357.36 357.62 C 348.94 361.26 342.05 369.14 332.44 370.57 C 316.49 376.71 298.14 375.17 282.07 369.87 C 268.42 362.38 253.61 355.81 243.07 343.91 C 239.57 341.68 236.88 337.51 232.66 336.65 C 221.74 324.12 211.30 309.39 207.97 292.90 Z" />
</g>
<g id="#235c5dff">
<path fill="#235c5d" opacity="1.00" d=" M 232.66 336.65 C 236.88 337.51 239.57 341.68 243.07 343.91 C 253.61 355.81 268.42 362.38 282.07 369.87 C 298.14 375.17 316.49 376.71 332.44 370.57 C 342.05 369.14 348.94 361.26 357.36 357.62 C 356.46 358.82 355.53 360.00 354.58 361.18 C 352.85 362.65 351.23 364.24 349.62 365.84 C 347.40 367.34 345.19 368.87 343.00 370.42 C 341.40 371.28 339.79 372.14 338.21 373.04 C 335.82 373.90 333.46 374.81 331.17 375.92 L 330.25 376.07 C 327.75 376.22 325.34 376.94 323.12 378.10 C 321.83 378.13 320.53 378.16 319.24 378.19 C 318.40 378.13 316.73 378.01 315.89 377.96 C 318.24 376.94 325.57 374.58 315.22 376.36 C 307.70 377.54 300.28 375.92 292.85 375.04 C 268.91 370.59 248.50 354.44 232.66 336.65 Z" />
</g>
<g id="#d8dadbff">
<path fill="#d8dadb" opacity="1.00" d=" M 377.92 357.88 C 385.29 352.25 383.19 340.20 391.00 335.46 L 391.00 367.59 C 386.57 372.28 381.04 381.84 374.07 378.29 C 368.32 380.42 362.16 379.27 356.18 379.72 C 353.30 375.48 352.36 370.21 349.62 365.84 C 351.23 364.24 352.85 362.65 354.58 361.18 C 356.46 361.44 358.50 360.98 360.28 361.75 C 365.86 365.68 373.33 361.64 377.92 357.88 Z" />
</g>
<g id="#757368ff">
<path fill="#757368" opacity="1.00" d=" M 0.00 364.59 C 4.80 370.88 6.10 379.29 12.33 384.64 C 21.75 388.60 31.60 393.77 42.12 392.23 C 57.51 390.53 73.19 395.32 88.37 391.45 C 101.11 393.53 114.24 389.05 127.36 390.55 C 142.97 390.78 158.50 390.42 174.00 388.25 C 186.61 390.68 199.34 389.39 212.00 388.06 C 232.20 389.37 252.19 385.84 272.31 384.22 C 284.27 382.38 296.00 377.92 308.30 379.31 C 290.05 384.00 271.87 389.57 253.20 392.43 C 240.54 391.67 228.68 397.33 216.00 396.05 C 177.65 395.14 139.58 397.83 101.32 397.28 C 78.61 398.61 55.75 401.57 33.05 398.84 C 19.80 396.33 6.77 389.78 0.00 377.62 L 0.00 364.59 Z" />
</g>
<g id="#d0d2d3ff">
<path fill="#d0d2d3" opacity="1.00" d=" M 343.00 370.42 C 345.19 368.87 347.40 367.34 349.62 365.84 C 352.36 370.21 353.30 375.48 356.18 379.72 C 362.16 379.27 368.32 380.42 374.07 378.29 C 381.04 381.84 386.57 372.28 391.00 367.59 L 391.00 402.00 L 340.90 402.00 C 340.20 391.44 345.31 380.67 343.00 370.42 Z" />
</g>
<g id="#c3c6c6ff">
<path fill="#c3c6c6" opacity="1.00" d=" M 338.21 373.04 C 339.79 372.14 341.40 371.28 343.00 370.42 C 345.31 380.67 340.20 391.44 340.90 402.00 L 323.68 402.00 C 325.39 390.87 334.70 383.20 338.21 373.04 Z" />
</g>
<g id="#b6b7b7ff">
<path fill="#b6b7b7" opacity="1.00" d=" M 331.17 375.92 C 333.46 374.81 335.82 373.90 338.21 373.04 C 334.70 383.20 325.39 390.87 323.68 402.00 L 307.67 402.00 C 314.03 392.19 326.64 386.43 331.17 375.92 Z" />
</g>
<g id="#283233ff">
<path fill="#283233" opacity="1.00" d=" M 292.85 375.04 C 300.28 375.92 307.70 377.54 315.22 376.36 C 325.57 374.58 318.24 376.94 315.89 377.96 L 315.07 378.08 C 234.05 377.87 153.02 378.11 72.00 377.95 L 71.95 377.02 C 125.55 376.84 179.15 377.28 232.75 376.80 C 251.85 377.20 270.96 376.93 290.06 377.00 C 299.28 379.21 294.71 376.62 292.85 375.04 Z" />
</g>
<g id="#969692ff">
<path fill="#969692" opacity="1.00" d=" M 323.12 378.10 C 325.34 376.94 327.75 376.22 330.25 376.07 C 318.25 385.54 303.71 391.79 292.37 402.00 L 273.45 402.00 C 289.18 392.61 307.76 388.37 323.12 378.10 Z" />
</g>
<g id="#a7a7a5ff">
<path fill="#a7a7a5" opacity="1.00" d=" M 330.25 376.07 L 331.17 375.92 C 326.64 386.43 314.03 392.19 307.67 402.00 L 292.37 402.00 C 303.71 391.79 318.25 385.54 330.25 376.07 Z" />
</g>
<g id="#7d7b72ff">
<path fill="#7d7b72" opacity="1.00" d=" M 0.00 377.62 C 6.77 389.78 19.80 396.33 33.05 398.84 C 55.75 401.57 78.61 398.61 101.32 397.28 C 139.58 397.83 177.65 395.14 216.00 396.05 C 228.68 397.33 240.54 391.67 253.20 392.43 C 271.87 389.57 290.05 384.00 308.30 379.31 C 310.54 378.87 312.80 378.46 315.07 378.08 L 315.89 377.96 C 316.73 378.01 318.40 378.13 319.24 378.19 C 304.42 384.08 288.97 388.47 273.92 393.88 C 262.76 397.86 250.45 397.56 239.48 402.00 L 0.00 402.00 L 0.00 377.62 Z" />
</g>
<g id="#888781ff">
<path fill="#888781" opacity="1.00" d=" M 319.24 378.19 C 320.53 378.16 321.83 378.13 323.12 378.10 C 307.76 388.37 289.18 392.61 273.45 402.00 L 239.48 402.00 C 250.45 397.56 262.76 397.86 273.92 393.88 C 288.97 388.47 304.42 384.08 319.24 378.19 Z" />
</g>
</svg>
