<?xml version="1.0" encoding="UTF-8" ?>
<!DOCTYPE svg PUBLIC "-//W3C//DTD SVG 1.1//EN" "http://www.w3.org/Graphics/SVG/1.1/DTD/svg11.dtd">
<svg width="201pt" height="194pt" viewBox="0 0 201 194" version="1.1" xmlns="http://www.w3.org/2000/svg">
<g id="#3b4153ff">
<path fill="#3b4153" opacity="1.00" d=" M 44.45 22.47 C 50.58 16.24 59.25 12.71 67.97 12.70 C 80.66 12.56 93.39 12.39 106.04 13.61 C 126.37 15.84 145.36 27.06 157.67 43.32 C 167.47 56.82 172.46 73.42 173.23 89.99 C 172.95 101.53 170.96 113.25 165.51 123.56 C 162.32 130.40 156.89 135.85 153.67 142.67 C 162.76 141.95 172.85 139.63 181.04 145.05 C 192.46 151.75 195.27 169.37 185.91 178.94 C 178.49 187.33 164.14 188.36 155.96 180.53 C 153.60 182.49 151.25 184.88 148.03 185.25 C 141.02 186.18 133.89 185.03 126.91 186.31 C 125.29 189.50 123.17 192.69 119.66 194.00 L 108.33 194.00 C 104.54 192.68 102.74 188.94 100.98 185.65 C 74.31 185.59 47.63 185.70 20.96 185.67 C 17.62 185.56 13.51 185.55 11.39 182.49 C 9.17 179.10 9.46 174.87 9.31 171.00 C 9.37 164.99 8.90 158.94 9.72 152.97 C 10.89 148.08 14.56 143.00 19.94 142.53 C 29.28 142.01 38.63 141.57 47.99 141.80 C 43.16 135.87 39.32 128.75 38.92 120.97 C 37.72 103.98 41.29 86.96 39.29 69.99 C 36.94 61.88 33.86 53.66 34.64 45.05 C 35.48 36.80 38.38 28.35 44.45 22.47 M 54.91 25.87 C 47.13 30.63 43.17 40.21 44.65 49.14 C 45.88 52.70 47.32 56.33 50.07 59.02 C 59.70 68.87 69.93 78.10 79.85 87.65 C 79.99 69.18 79.76 50.70 79.97 32.23 C 85.37 33.87 88.49 38.91 92.57 42.43 C 95.66 44.97 98.68 47.59 101.47 50.46 C 115.10 63.16 128.72 75.88 142.32 88.62 C 144.71 90.87 148.18 92.47 149.06 95.92 C 146.76 98.49 143.31 99.55 140.62 101.63 C 134.51 106.26 127.92 110.19 121.76 114.73 C 118.27 117.73 114.19 119.88 110.43 122.49 C 102.80 128.53 94.34 133.40 86.71 139.44 C 99.48 139.22 112.27 139.70 125.03 139.21 C 136.81 138.73 148.15 132.42 154.73 122.65 C 159.82 116.66 162.05 108.80 163.18 101.16 C 165.52 84.66 162.30 67.01 152.78 53.17 C 150.43 48.72 146.86 45.15 143.31 41.65 C 140.21 38.02 136.27 35.27 132.21 32.82 C 117.52 22.32 98.57 20.70 81.08 22.09 C 76.37 21.99 71.66 21.52 66.94 21.79 C 62.72 22.38 58.37 23.17 54.91 25.87 M 96.45 69.63 C 88.40 72.48 83.19 81.71 85.52 90.07 C 86.97 97.26 94.01 101.96 101.00 102.58 C 106.46 103.03 111.70 100.28 115.48 96.52 C 119.24 91.96 119.78 85.33 117.97 79.85 C 114.77 71.74 104.88 66.30 96.45 69.63 M 48.34 117.03 C 48.41 121.42 49.10 126.33 52.41 129.55 C 55.46 132.64 58.54 136.08 62.78 137.51 C 68.15 139.64 74.03 139.25 79.69 139.24 C 79.65 130.82 80.03 122.40 79.86 113.98 C 79.73 107.93 76.60 101.50 70.91 98.90 C 63.98 95.28 55.91 97.19 48.44 96.72 C 48.31 103.49 48.35 110.26 48.34 117.03 M 18.56 153.30 C 18.60 160.77 18.60 168.24 18.58 175.72 C 20.47 175.72 22.37 175.69 24.26 175.66 C 24.44 170.39 23.87 165.08 24.60 159.85 C 26.19 156.92 30.41 157.06 32.30 159.57 C 33.06 164.89 32.53 170.31 32.63 175.67 C 34.26 175.71 35.89 175.74 37.52 175.77 C 37.64 170.68 37.25 165.57 37.77 160.50 C 38.61 156.94 44.48 156.42 45.63 160.01 C 46.69 165.21 45.93 170.57 46.20 175.83 C 47.90 175.75 49.60 175.67 51.31 175.56 C 50.84 170.71 50.96 165.84 50.81 160.97 C 50.84 157.57 48.74 153.71 45.15 153.11 C 41.88 152.28 38.67 153.74 36.01 155.52 C 32.64 152.00 27.24 152.23 23.49 155.06 C 23.51 154.60 23.54 153.69 23.55 153.23 C 21.89 153.25 20.22 153.27 18.56 153.30 M 58.65 156.03 C 57.94 157.47 59.56 158.65 59.99 159.94 C 62.72 158.63 65.83 156.39 68.91 158.03 C 70.84 158.79 71.18 160.94 71.64 162.70 C 66.79 162.23 60.98 161.17 57.50 165.52 C 57.60 167.84 56.66 170.61 58.34 172.56 C 61.22 176.69 67.70 176.46 71.13 173.13 C 70.52 176.75 74.44 175.31 76.56 175.70 C 76.48 170.78 76.68 165.86 76.52 160.94 C 76.63 158.62 75.10 156.76 74.05 154.84 C 69.25 152.48 62.74 152.10 58.65 156.03 M 83.49 153.23 C 83.52 160.70 83.54 168.18 83.57 175.65 C 85.25 175.70 86.92 175.74 88.60 175.79 C 88.73 170.88 88.31 165.95 88.83 161.07 C 89.99 156.54 97.48 156.47 98.57 161.03 C 99.20 165.93 98.72 170.89 98.84 175.82 C 100.61 175.78 102.38 175.74 104.15 175.70 C 103.55 169.01 105.98 161.30 101.43 155.56 C 98.24 151.93 92.22 152.31 88.62 155.16 C 88.69 152.22 85.31 153.62 83.49 153.23 M 111.39 153.26 C 111.53 164.00 111.46 174.74 111.57 185.48 C 113.43 185.47 115.28 185.46 117.14 185.45 C 117.09 181.15 117.12 176.86 117.07 172.57 C 119.42 174.21 122.00 175.95 125.02 175.59 C 131.47 175.85 136.87 169.19 135.84 162.93 C 135.89 159.58 133.34 157.02 131.06 154.90 C 126.80 151.70 120.49 152.40 116.57 155.86 C 116.55 155.21 116.50 153.92 116.48 153.28 C 114.78 153.27 113.08 153.26 111.39 153.26 M 141.37 153.34 C 141.42 160.82 141.35 168.30 141.55 175.79 C 143.24 175.76 144.93 175.76 146.62 175.77 C 147.12 170.67 145.79 165.30 147.73 160.43 C 148.97 157.96 151.97 158.08 154.33 158.10 C 154.38 156.25 154.43 154.41 154.49 152.57 C 151.51 152.88 148.44 153.57 146.59 156.16 C 146.56 155.43 146.49 153.98 146.45 153.25 C 144.76 153.28 143.06 153.30 141.37 153.34 M 164.48 153.71 C 157.61 156.37 155.24 166.21 160.26 171.65 C 164.71 176.91 173.50 176.89 178.42 172.33 C 182.05 168.67 182.68 162.44 179.97 158.08 C 176.88 152.95 169.81 151.60 164.48 153.71 Z" />
<path fill="#3b4153" opacity="1.00" d=" M 120.37 158.37 C 124.86 155.66 131.22 159.67 130.49 164.97 C 130.64 169.63 125.29 172.73 121.21 170.80 C 116.18 169.03 115.65 160.80 120.37 158.37 Z" />
<path fill="#3b4153" opacity="1.00" d=" M 165.48 158.70 C 170.05 155.29 176.73 159.56 175.93 165.07 C 176.17 169.55 171.23 172.68 167.19 170.85 C 161.85 169.77 161.27 161.44 165.48 158.70 Z" />
<path fill="#3b4153" opacity="1.00" d=" M 62.11 170.42 C 61.53 165.04 67.76 165.16 71.50 165.51 C 71.18 167.14 70.83 168.78 70.48 170.40 C 67.73 171.60 64.81 171.95 62.11 170.42 Z" />
</g>
<g id="#fbfbf9ff">
<path fill="#fbfbf9" opacity="1.00" d=" M 54.91 25.87 C 58.37 23.17 62.72 22.38 66.94 21.79 C 71.66 21.52 76.37 21.99 81.08 22.09 C 98.57 20.70 117.52 22.32 132.21 32.82 C 136.27 35.27 140.21 38.02 143.31 41.65 C 146.86 45.15 150.43 48.72 152.78 53.17 C 162.30 67.01 165.52 84.66 163.18 101.16 C 162.05 108.80 159.82 116.66 154.73 122.65 C 148.15 132.42 136.81 138.73 125.03 139.21 C 112.27 139.70 99.48 139.22 86.71 139.44 C 94.34 133.40 102.80 128.53 110.43 122.49 C 114.19 119.88 118.27 117.73 121.76 114.73 C 127.92 110.19 134.51 106.26 140.62 101.63 C 143.31 99.55 146.76 98.49 149.06 95.92 C 148.18 92.47 144.71 90.87 142.32 88.62 C 128.72 75.88 115.10 63.16 101.47 50.46 C 98.68 47.59 95.66 44.97 92.57 42.43 C 88.49 38.91 85.37 33.87 79.97 32.23 C 79.76 50.70 79.99 69.18 79.85 87.65 C 69.93 78.10 59.70 68.87 50.07 59.02 C 47.32 56.33 45.88 52.70 44.65 49.14 C 43.17 40.21 47.13 30.63 54.91 25.87 Z" />
<path fill="#fbfbf9" opacity="1.00" d=" M 96.45 69.63 C 104.88 66.30 114.77 71.74 117.97 79.85 C 119.78 85.33 119.24 91.96 115.48 96.52 C 111.70 100.28 106.46 103.03 101.00 102.58 C 94.01 101.96 86.97 97.26 85.52 90.07 C 83.19 81.71 88.40 72.48 96.45 69.63 Z" />
<path fill="#fbfbf9" opacity="1.00" d=" M 48.34 117.03 C 48.35 110.26 48.31 103.49 48.44 96.72 C 55.91 97.19 63.98 95.28 70.91 98.90 C 76.60 101.50 79.73 107.93 79.86 113.98 C 80.03 122.40 79.65 130.82 79.69 139.24 C 74.03 139.25 68.15 139.64 62.78 137.51 C 58.54 136.08 55.46 132.64 52.41 129.55 C 49.10 126.33 48.41 121.42 48.34 117.03 Z" />
<path fill="#fbfbf9" opacity="1.00" d=" M 18.56 153.30 C 20.22 153.27 21.89 153.25 23.55 153.23 C 23.54 153.69 23.51 154.60 23.49 155.06 C 27.24 152.23 32.64 152.00 36.01 155.52 C 38.67 153.74 41.88 152.28 45.15 153.11 C 48.74 153.71 50.84 157.57 50.81 160.97 C 50.96 165.84 50.84 170.71 51.31 175.56 C 49.60 175.67 47.90 175.75 46.20 175.83 C 45.93 170.57 46.69 165.21 45.63 160.01 C 44.48 156.42 38.61 156.94 37.77 160.50 C 37.25 165.57 37.64 170.68 37.52 175.77 C 35.89 175.74 34.26 175.71 32.63 175.67 C 32.53 170.31 33.06 164.89 32.30 159.57 C 30.41 157.06 26.19 156.92 24.60 159.85 C 23.87 165.08 24.44 170.39 24.26 175.66 C 22.37 175.69 20.47 175.72 18.58 175.72 C 18.60 168.24 18.60 160.77 18.56 153.30 Z" />
<path fill="#fbfbf9" opacity="1.00" d=" M 58.65 156.03 C 62.74 152.10 69.25 152.48 74.05 154.84 C 75.10 156.76 76.63 158.62 76.52 160.94 C 76.68 165.86 76.48 170.78 76.56 175.70 C 74.44 175.31 70.52 176.75 71.13 173.13 C 67.70 176.46 61.22 176.69 58.34 172.56 C 56.66 170.61 57.60 167.84 57.50 165.52 C 60.98 161.17 66.79 162.23 71.64 162.70 C 71.18 160.94 70.84 158.79 68.91 158.03 C 65.83 156.39 62.72 158.63 59.99 159.94 C 59.56 158.65 57.94 157.47 58.65 156.03 M 62.11 170.42 C 64.81 171.95 67.73 171.60 70.48 170.40 C 70.83 168.78 71.18 167.14 71.50 165.51 C 67.76 165.16 61.53 165.04 62.11 170.42 Z" />
<path fill="#fbfbf9" opacity="1.00" d=" M 83.49 153.23 C 85.31 153.62 88.69 152.22 88.62 155.16 C 92.22 152.31 98.24 151.93 101.43 155.56 C 105.98 161.30 103.55 169.01 104.15 175.70 C 102.38 175.74 100.61 175.78 98.84 175.82 C 98.72 170.89 99.20 165.93 98.57 161.03 C 97.48 156.47 89.99 156.54 88.83 161.07 C 88.31 165.95 88.73 170.88 88.60 175.79 C 86.92 175.74 85.25 175.70 83.57 175.65 C 83.54 168.18 83.52 160.70 83.49 153.23 Z" />
<path fill="#fbfbf9" opacity="1.00" d=" M 111.39 153.26 C 113.08 153.26 114.78 153.27 116.48 153.28 C 116.50 153.92 116.55 155.21 116.57 155.86 C 120.49 152.40 126.80 151.70 131.06 154.90 C 133.34 157.02 135.89 159.58 135.84 162.93 C 136.87 169.19 131.47 175.85 125.02 175.59 C 122.00 175.95 119.42 174.21 117.07 172.57 C 117.12 176.86 117.09 181.15 117.14 185.45 C 115.28 185.46 113.43 185.47 111.57 185.48 C 111.46 174.74 111.53 164.00 111.39 153.26 M 120.37 158.37 C 115.65 160.80 116.18 169.03 121.21 170.80 C 125.29 172.73 130.64 169.63 130.49 164.97 C 131.22 159.67 124.86 155.66 120.37 158.37 Z" />
<path fill="#fbfbf9" opacity="1.00" d=" M 141.37 153.34 C 143.06 153.30 144.76 153.28 146.45 153.25 C 146.49 153.98 146.56 155.43 146.59 156.16 C 148.44 153.57 151.51 152.88 154.49 152.57 C 154.43 154.41 154.38 156.25 154.33 158.10 C 151.97 158.08 148.97 157.96 147.73 160.43 C 145.79 165.30 147.12 170.67 146.62 175.77 C 144.93 175.76 143.24 175.76 141.55 175.79 C 141.35 168.30 141.42 160.82 141.37 153.34 Z" />
<path fill="#fbfbf9" opacity="1.00" d=" M 164.48 153.71 C 169.81 151.60 176.88 152.95 179.97 158.08 C 182.68 162.44 182.05 168.67 178.42 172.33 C 173.50 176.89 164.71 176.91 160.26 171.65 C 155.24 166.21 157.61 156.37 164.48 153.71 M 165.48 158.70 C 161.27 161.44 161.85 169.77 167.19 170.85 C 171.23 172.68 176.17 169.55 175.93 165.07 C 176.73 159.56 170.05 155.29 165.48 158.70 Z" />
</g>
</svg>
