<?xml version="1.0" encoding="UTF-8" ?>
<!DOCTYPE svg PUBLIC "-//W3C//DTD SVG 1.1//EN" "http://www.w3.org/Graphics/SVG/1.1/DTD/svg11.dtd">
<svg width="219pt" height="208pt" viewBox="0 0 219 208" version="1.1" xmlns="http://www.w3.org/2000/svg">
<g id="#bd8fbeff">
<path fill="#bd8fbe" opacity="1.00" d=" M 33.82 10.29 C 35.04 9.39 36.65 9.78 38.06 9.66 C 57.40 9.61 76.74 9.68 96.07 9.67 C 99.11 9.63 101.64 11.32 102.80 14.10 L 101.65 14.62 C 95.15 19.58 87.68 23.03 80.85 27.50 C 73.88 31.60 65.93 34.16 59.91 39.76 L 59.12 40.46 C 59.12 38.57 59.65 36.61 59.15 34.76 C 57.79 33.21 55.91 32.20 54.64 30.58 C 53.56 28.29 53.28 25.50 51.28 23.75 C 47.78 20.47 43.80 17.68 40.90 13.81 C 42.34 11.84 44.98 12.04 47.11 11.46 C 42.69 10.92 38.21 11.06 33.82 10.29 Z" />
</g>
<g id="#8f94c0ff">
<path fill="#8f94c0" opacity="1.00" d=" M 117.32 12.86 C 116.73 11.16 118.62 10.38 119.71 9.60 C 126.96 9.81 134.21 9.49 141.45 9.80 C 139.42 11.14 137.02 11.38 134.66 11.44 C 134.80 15.36 133.07 18.98 131.57 22.49 C 131.04 24.05 129.47 24.70 128.15 25.42 C 124.96 20.89 120.40 17.51 117.32 12.86 Z" />
</g>
<g id="#7684afff">
<path fill="#7684af" opacity="1.00" d=" M 141.45 9.80 C 154.93 9.46 168.48 9.73 181.98 9.66 C 184.34 9.80 186.89 9.29 189.06 10.48 C 186.99 10.64 184.93 10.78 182.86 10.81 C 179.89 10.85 176.91 10.97 173.94 10.98 C 168.64 10.86 163.12 11.15 158.39 13.80 C 159.10 15.33 160.64 16.90 159.71 18.69 C 157.52 22.29 153.99 24.94 152.28 28.88 C 153.24 30.71 154.00 32.66 154.08 34.75 C 152.52 35.58 150.98 36.45 149.45 37.32 C 144.30 35.38 138.94 33.97 133.51 33.14 C 131.59 30.66 129.84 28.06 128.15 25.42 C 129.47 24.70 131.04 24.05 131.57 22.49 C 133.07 18.98 134.80 15.36 134.66 11.44 C 137.02 11.38 139.42 11.14 141.45 9.80 Z" />
</g>
<g id="#d78bb3ff">
<path fill="#d78bb3" opacity="1.00" d=" M 25.24 11.26 C 27.86 10.02 30.98 10.42 33.82 10.29 C 38.21 11.06 42.69 10.92 47.11 11.46 C 44.98 12.04 42.34 11.84 40.90 13.81 C 43.80 17.68 47.78 20.47 51.28 23.75 C 53.28 25.50 53.56 28.29 54.64 30.58 C 55.91 32.20 57.79 33.21 59.15 34.76 C 59.65 36.61 59.12 38.57 59.12 40.46 C 53.89 46.21 48.74 52.05 43.74 58.01 C 43.04 58.82 42.34 59.63 41.64 60.43 C 40.78 57.47 41.43 54.43 41.76 51.45 C 39.31 51.45 35.70 52.19 34.95 49.00 C 32.25 42.64 26.22 38.55 23.51 32.23 C 22.46 30.20 20.12 29.41 18.35 28.14 C 19.45 24.66 17.08 21.92 14.76 19.65 L 14.30 19.14 C 16.88 15.30 20.63 12.23 25.24 11.26 Z" />
</g>
<g id="#6d8ab6ff">
<path fill="#6d8ab6" opacity="1.00" d=" M 158.39 13.80 C 163.12 11.15 168.64 10.86 173.94 10.98 C 171.89 12.81 171.84 15.68 171.09 18.13 C 169.28 24.29 166.36 30.04 164.05 36.02 C 163.36 38.34 161.24 39.69 159.53 41.21 C 157.97 40.61 156.35 40.19 154.77 39.68 C 152.95 39.00 151.20 38.14 149.45 37.32 C 150.98 36.45 152.52 35.58 154.08 34.75 C 154.00 32.66 153.24 30.71 152.28 28.88 C 153.99 24.94 157.52 22.29 159.71 18.69 C 160.64 16.90 159.10 15.33 158.39 13.80 Z" />
</g>
<g id="#699bc7ff">
<path fill="#699bc7" opacity="1.00" d=" M 173.94 10.98 C 176.91 10.97 179.89 10.85 182.86 10.81 C 181.55 13.86 181.07 17.15 180.39 20.38 C 180.09 22.62 177.97 23.79 176.69 25.44 C 174.98 28.32 175.06 31.82 173.85 34.88 C 172.52 37.44 171.02 39.90 169.61 42.41 C 168.73 43.79 167.76 45.10 166.79 46.42 C 165.72 45.49 164.61 44.61 163.46 43.79 C 162.18 42.88 160.87 42.02 159.53 41.21 C 161.24 39.69 163.36 38.34 164.05 36.02 C 166.36 30.04 169.28 24.29 171.09 18.13 C 171.84 15.68 171.89 12.81 173.94 10.98 Z" />
</g>
<g id="#5ca3d4ff">
<path fill="#5ca3d4" opacity="1.00" d=" M 182.86 10.81 C 184.93 10.78 186.99 10.64 189.06 10.48 C 191.12 10.20 193.07 11.11 194.99 11.72 C 197.35 12.70 199.57 13.91 201.60 15.49 C 201.31 18.63 201.81 21.73 202.75 24.72 C 201.67 26.86 198.95 25.43 197.11 25.65 C 195.41 27.15 194.71 29.54 192.87 30.93 C 190.63 32.50 187.78 32.62 185.28 33.56 C 182.60 35.73 179.74 37.77 176.42 38.82 C 176.53 41.48 175.20 43.53 172.83 44.66 C 171.76 43.91 170.68 43.16 169.61 42.41 C 171.02 39.90 172.52 37.44 173.85 34.88 C 175.06 31.82 174.98 28.32 176.69 25.44 C 177.97 23.79 180.09 22.62 180.39 20.38 C 181.07 17.15 181.55 13.86 182.86 10.81 Z" />
</g>
<g id="#606ba0ff">
<path fill="#606ba0" opacity="1.00" d=" M 117.32 12.86 C 120.40 17.51 124.96 20.89 128.15 25.42 C 129.84 28.06 131.59 30.66 133.51 33.14 C 130.90 37.29 128.46 41.58 125.36 45.40 C 123.16 48.01 121.72 51.32 118.81 53.29 C 117.34 52.75 116.14 51.73 116.45 50.03 C 116.53 37.95 116.09 25.84 116.77 13.78 L 117.32 12.86 Z" />
</g>
<g id="#6e4b84ff">
<path fill="#6e4b84" opacity="1.00" d=" M 80.85 27.50 C 87.68 23.03 95.15 19.58 101.65 14.62 C 102.66 26.11 102.65 37.77 101.56 49.26 C 99.86 43.45 103.06 34.78 96.31 31.52 C 95.47 32.51 94.64 33.50 93.81 34.48 C 92.67 34.43 91.54 34.38 90.41 34.32 C 90.44 35.99 90.45 37.66 90.54 39.33 C 87.67 35.12 85.21 30.40 80.85 27.50 Z" />
</g>
<g id="#4a94c4ff">
<path fill="#4a94c4" opacity="1.00" d=" M 201.60 15.49 C 206.12 19.82 209.13 25.72 209.48 32.02 C 209.76 38.54 209.66 45.07 209.64 51.60 C 208.53 55.57 203.98 56.04 202.19 59.42 C 197.78 59.49 194.24 62.38 191.16 65.23 C 187.69 64.97 183.87 66.40 183.29 70.28 C 183.13 70.13 182.81 69.84 182.64 69.69 C 181.69 68.89 181.33 67.16 179.95 67.05 C 175.70 67.00 171.04 66.78 167.45 69.46 C 164.33 71.91 159.23 73.12 159.25 77.89 C 157.55 74.69 154.90 71.91 153.46 68.65 C 156.06 67.28 158.33 65.41 160.56 63.52 C 163.86 60.63 168.19 59.42 171.83 57.06 C 171.64 52.97 168.90 49.72 166.79 46.42 C 167.76 45.10 168.73 43.79 169.61 42.41 C 170.68 43.16 171.76 43.91 172.83 44.66 C 175.20 43.53 176.53 41.48 176.42 38.82 C 179.74 37.77 182.60 35.73 185.28 33.56 C 187.78 32.62 190.63 32.50 192.87 30.93 C 194.71 29.54 195.41 27.15 197.11 25.65 C 198.95 25.43 201.67 26.86 202.75 24.72 C 201.81 21.73 201.31 18.63 201.60 15.49 Z" />
</g>
<g id="#e880a5ff">
<path fill="#e880a5" opacity="1.00" d=" M 11.71 23.81 C 12.70 22.48 13.23 20.89 13.89 19.39 L 14.76 19.65 C 17.08 21.92 19.45 24.66 18.35 28.14 C 20.12 29.41 22.46 30.20 23.51 32.23 C 26.22 38.55 32.25 42.64 34.95 49.00 C 35.70 52.19 39.31 51.45 41.76 51.45 C 41.43 54.43 40.78 57.47 41.64 60.43 C 39.33 62.99 37.16 65.68 35.27 68.57 C 32.89 72.33 28.92 74.55 25.82 77.62 C 24.97 75.87 24.26 74.06 23.43 72.31 C 21.68 70.91 19.24 71.58 17.18 71.52 C 16.43 68.34 16.41 65.05 15.79 61.84 C 14.33 63.40 12.66 64.98 12.19 67.15 C 10.84 73.97 11.01 80.97 10.38 87.87 C 9.14 86.62 9.89 84.60 9.64 83.03 C 9.45 67.01 9.45 50.99 9.55 34.98 C 9.55 31.16 10.45 27.40 11.71 23.81 Z" />
</g>
<g id="#6b3e72ff">
<path fill="#6b3e72" opacity="1.00" d=" M 59.91 39.76 C 65.93 34.16 73.88 31.60 80.85 27.50 C 85.21 30.40 87.67 35.12 90.54 39.33 C 90.63 40.06 90.73 40.79 90.82 41.52 C 81.09 37.39 71.42 45.33 61.60 43.88 C 61.42 42.36 60.94 40.92 59.91 39.76 Z" />
</g>
<g id="#80457eff">
<path fill="#80457e" opacity="1.00" d=" M 96.31 31.52 C 103.06 34.78 99.86 43.45 101.56 49.26 C 102.21 53.51 97.12 54.58 93.96 54.88 C 86.71 55.68 79.90 58.45 73.74 62.26 C 73.69 60.96 73.57 59.66 73.47 58.37 C 70.99 58.31 68.56 58.79 66.15 59.28 C 62.15 60.11 58.05 59.56 54.02 60.04 C 51.56 60.54 49.36 61.78 47.11 62.85 C 45.38 61.71 44.39 59.94 43.74 58.01 C 48.74 52.05 53.89 46.21 59.12 40.46 L 59.91 39.76 C 60.94 40.92 61.42 42.36 61.60 43.88 C 71.42 45.33 81.09 37.39 90.82 41.52 C 90.73 40.79 90.63 40.06 90.54 39.33 C 90.45 37.66 90.44 35.99 90.41 34.32 C 91.54 34.38 92.67 34.43 93.81 34.48 C 94.64 33.50 95.47 32.51 96.31 31.52 Z" />
</g>
<g id="#213a65ff">
<path fill="#213a65" opacity="1.00" d=" M 133.51 33.14 C 138.94 33.97 144.30 35.38 149.45 37.32 C 151.20 38.14 152.95 39.00 154.77 39.68 C 151.21 41.83 146.80 42.68 144.05 46.00 C 141.27 49.38 136.87 50.59 133.83 53.60 C 134.97 54.90 136.07 56.23 137.22 57.52 C 132.90 56.28 128.42 55.74 124.05 54.80 C 122.06 54.54 120.05 54.43 118.13 53.83 L 118.81 53.29 C 121.72 51.32 123.16 48.01 125.36 45.40 C 128.46 41.58 130.90 37.29 133.51 33.14 Z" />
</g>
<g id="#2a547fff">
<path fill="#2a547f" opacity="1.00" d=" M 154.77 39.68 C 156.35 40.19 157.97 40.61 159.53 41.21 C 160.87 42.02 162.18 42.88 163.46 43.79 C 159.71 46.24 157.48 50.32 153.65 52.69 C 150.73 55.47 146.74 58.66 147.38 63.18 C 144.18 60.96 140.49 59.53 137.22 57.52 C 136.07 56.23 134.97 54.90 133.83 53.60 C 136.87 50.59 141.27 49.38 144.05 46.00 C 146.80 42.68 151.21 41.83 154.77 39.68 Z" />
</g>
<g id="#3876a3ff">
<path fill="#3876a3" opacity="1.00" d=" M 163.46 43.79 C 164.61 44.61 165.72 45.49 166.79 46.42 C 168.90 49.72 171.64 52.97 171.83 57.06 C 168.19 59.42 163.86 60.63 160.56 63.52 C 158.33 65.41 156.06 67.28 153.46 68.65 L 152.88 68.92 C 151.79 66.42 149.61 64.63 147.38 63.18 C 146.74 58.66 150.73 55.47 153.65 52.69 C 157.48 50.32 159.71 46.24 163.46 43.79 Z" />
</g>
<g id="#3f85b3ff">
<path fill="#3f85b3" opacity="1.00" d=" M 202.19 59.42 C 203.98 56.04 208.53 55.57 209.64 51.60 C 209.90 64.18 209.49 76.78 209.77 89.37 C 207.08 88.01 204.59 86.31 202.17 84.54 C 195.51 80.28 189.92 74.60 183.29 70.28 C 183.87 66.40 187.69 64.97 191.16 65.23 C 194.24 62.38 197.78 59.49 202.19 59.42 Z" />
</g>
<g id="#9c4782ff">
<path fill="#9c4782" opacity="1.00" d=" M 41.64 60.43 C 42.34 59.63 43.04 58.82 43.74 58.01 C 44.39 59.94 45.38 61.71 47.11 62.85 C 49.36 61.78 51.56 60.54 54.02 60.04 C 58.05 59.56 62.15 60.11 66.15 59.28 C 68.56 58.79 70.99 58.31 73.47 58.37 C 73.57 59.66 73.69 60.96 73.74 62.26 C 72.30 63.91 69.85 64.70 68.54 66.62 C 64.66 71.66 60.97 77.01 59.22 83.19 C 58.73 79.29 58.71 75.28 60.59 71.72 C 58.24 72.91 56.06 74.40 53.71 75.59 C 49.82 75.46 45.03 71.53 41.56 74.64 C 39.29 72.80 37.28 70.68 35.27 68.57 C 37.16 65.68 39.33 62.99 41.64 60.43 Z" />
</g>
<g id="#ee7497ff">
<path fill="#ee7497" opacity="1.00" d=" M 12.19 67.15 C 12.66 64.98 14.33 63.40 15.79 61.84 C 16.41 65.05 16.43 68.34 17.18 71.52 C 19.24 71.58 21.68 70.91 23.43 72.31 C 24.26 74.06 24.97 75.87 25.82 77.62 C 23.19 80.51 20.13 82.95 17.17 85.49 C 15.09 87.34 12.90 89.07 10.62 90.67 C 10.56 89.97 10.44 88.57 10.38 87.87 C 11.01 80.97 10.84 73.97 12.19 67.15 Z" />
</g>
<g id="#f8f8f7ff">
<path fill="#f8f8f7" opacity="1.00" d=" M 99.89 66.77 C 107.64 66.11 115.74 65.57 123.10 68.57 C 126.56 70.46 130.21 72.12 133.24 74.74 C 137.28 76.92 139.14 81.21 141.58 84.85 L 141.54 85.73 C 141.12 89.03 141.35 92.41 143.05 95.35 C 141.77 95.32 140.49 95.30 139.21 95.27 C 139.26 96.91 139.79 98.63 139.29 100.22 C 138.34 102.01 136.11 101.51 134.45 101.68 C 132.32 103.84 130.02 106.00 128.79 108.82 C 127.90 112.20 128.70 115.84 127.42 119.14 C 127.41 110.77 127.40 102.40 127.31 94.03 C 127.17 91.87 127.24 89.18 125.40 87.69 C 123.59 86.90 120.88 86.81 120.03 88.98 C 117.22 94.11 113.92 98.92 110.85 103.88 C 110.16 105.02 109.14 105.89 108.14 106.75 C 105.01 100.66 100.88 95.16 97.81 89.03 C 96.19 85.60 90.15 87.03 90.46 90.95 C 90.31 99.94 90.46 108.93 90.48 117.91 C 88.61 118.78 86.83 119.92 84.81 120.40 C 82.31 120.20 79.85 119.57 77.33 119.62 L 76.51 119.60 C 71.82 108.43 71.42 94.99 77.24 84.19 C 80.91 76.47 88.13 70.90 96.10 68.14 C 97.24 67.33 98.91 67.84 99.89 66.77 Z" />
</g>
<g id="#56a9dbff">
<path fill="#56a9db" opacity="1.00" d=" M 167.45 69.46 C 171.04 66.78 175.70 67.00 179.95 67.05 C 181.33 67.16 181.69 68.89 182.64 69.69 C 180.66 71.69 178.66 73.68 176.55 75.55 C 172.28 79.25 168.79 83.80 164.12 87.06 C 163.64 87.27 162.69 87.69 162.21 87.90 C 161.24 86.45 161.89 84.41 160.65 83.13 C 160.57 82.57 160.41 81.45 160.33 80.89 C 160.06 80.14 159.52 78.64 159.25 77.89 C 159.23 73.12 164.33 71.91 167.45 69.46 Z" />
</g>
<g id="#ac3674ff">
<path fill="#ac3674" opacity="1.00" d=" M 35.27 68.57 C 37.28 70.68 39.29 72.80 41.56 74.64 C 45.07 77.51 47.91 81.12 50.16 85.04 C 44.14 83.22 37.44 82.08 31.44 84.58 C 31.17 83.95 30.65 82.71 30.38 82.08 C 29.81 83.23 29.22 84.36 28.60 85.48 C 28.10 85.14 27.60 84.81 27.10 84.48 C 25.29 85.37 23.30 85.67 21.30 85.69 C 20.48 86.44 19.66 87.20 18.84 87.96 C 18.43 87.34 17.59 86.11 17.17 85.49 C 20.13 82.95 23.19 80.51 25.82 77.62 C 28.92 74.55 32.89 72.33 35.27 68.57 Z" />
</g>
<g id="#26567fff">
<path fill="#26567f" opacity="1.00" d=" M 182.64 69.69 C 182.81 69.84 183.13 70.13 183.29 70.28 C 189.92 74.60 195.51 80.28 202.17 84.54 C 200.26 86.78 199.61 90.43 196.44 91.34 C 192.03 92.29 187.48 91.56 183.02 91.94 C 176.87 92.52 170.69 92.36 164.52 92.63 L 163.74 92.65 C 163.04 91.34 162.56 89.96 162.29 88.50 C 162.75 88.14 163.66 87.42 164.12 87.06 C 168.79 83.80 172.28 79.25 176.55 75.55 C 178.66 73.68 180.66 71.69 182.64 69.69 Z" />
</g>
<g id="#b44784ff">
<path fill="#b44784" opacity="1.00" d=" M 53.71 75.59 C 56.06 74.40 58.24 72.91 60.59 71.72 C 58.71 75.28 58.73 79.29 59.22 83.19 C 58.52 85.88 58.65 89.75 56.32 91.50 C 56.01 89.99 55.85 88.34 54.90 87.07 C 53.41 86.19 51.77 85.63 50.16 85.04 C 47.91 81.12 45.07 77.51 41.56 74.64 C 45.03 71.53 49.82 75.46 53.71 75.59 Z" />
</g>
<g id="#b93a77ff">
<path fill="#b93a77" opacity="1.00" d=" M 28.60 85.48 C 29.22 84.36 29.81 83.23 30.38 82.08 C 30.65 82.71 31.17 83.95 31.44 84.58 C 37.44 82.08 44.14 83.22 50.16 85.04 C 51.77 85.63 53.41 86.19 54.90 87.07 C 55.85 88.34 56.01 89.99 56.32 91.50 L 56.28 92.21 C 54.24 92.85 52.16 93.47 49.99 93.32 C 38.66 93.20 27.32 93.46 15.99 93.36 C 13.81 93.55 12.11 92.03 10.62 90.67 C 12.90 89.07 15.09 87.34 17.17 85.49 C 17.59 86.11 18.43 87.34 18.84 87.96 C 19.66 87.20 20.48 86.44 21.30 85.69 C 23.30 85.67 25.29 85.37 27.10 84.48 C 27.60 84.81 28.10 85.14 28.60 85.48 Z" />
</g>
<g id="#2d6c8fff">
<path fill="#2d6c8f" opacity="1.00" d=" M 202.17 84.54 C 204.59 86.31 207.08 88.01 209.77 89.37 C 209.34 91.99 206.54 93.44 204.08 93.32 C 191.35 93.30 178.62 93.37 165.89 93.23 C 165.55 93.08 164.87 92.78 164.52 92.63 C 170.69 92.36 176.87 92.52 183.02 91.94 C 187.48 91.56 192.03 92.29 196.44 91.34 C 199.61 90.43 200.26 86.78 202.17 84.54 Z" />
</g>
<g id="#eaeae9ff">
<path fill="#eaeae9" opacity="1.00" d=" M 141.54 85.73 C 143.10 87.81 143.42 90.49 144.09 92.94 C 145.00 98.18 146.50 103.69 144.88 108.92 C 144.38 112.67 143.70 116.78 141.52 119.88 C 141.62 121.17 140.58 122.00 140.27 123.18 C 137.17 127.97 132.77 131.92 127.85 134.76 C 126.12 136.06 123.82 136.03 122.07 137.21 C 115.15 139.19 107.87 139.01 100.78 138.24 C 99.62 137.42 98.20 137.44 96.85 137.32 C 96.03 136.03 94.12 136.82 93.19 135.64 C 89.30 134.92 86.71 131.61 83.83 129.19 C 80.83 126.87 77.79 123.49 77.33 119.62 C 79.85 119.57 82.31 120.20 84.81 120.40 C 86.83 119.92 88.61 118.78 90.48 117.91 C 90.57 118.23 90.75 118.88 90.84 119.20 C 92.01 122.00 96.18 122.74 97.50 119.64 C 98.45 113.84 97.01 107.85 98.25 102.05 C 100.87 104.81 102.40 108.36 104.63 111.42 C 106.30 113.48 106.96 117.11 109.78 117.78 C 113.28 112.98 116.25 107.82 119.24 102.70 C 121.51 108.31 118.36 114.61 120.60 120.31 C 122.86 122.43 125.80 121.57 127.42 119.14 C 128.70 115.84 127.90 112.20 128.79 108.82 C 130.02 106.00 132.32 103.84 134.45 101.68 C 136.11 101.51 138.34 102.01 139.29 100.22 C 139.79 98.63 139.26 96.91 139.21 95.27 C 140.49 95.30 141.77 95.32 143.05 95.35 C 141.35 92.41 141.12 89.03 141.54 85.73 Z" />
</g>
<g id="#2c2b32ff">
<path fill="#2c2b32" opacity="1.00" d=" M 90.46 90.95 C 90.15 87.03 96.19 85.60 97.81 89.03 C 96.60 89.85 95.38 90.65 94.15 91.45 C 93.64 99.40 94.28 107.40 93.45 115.34 C 93.36 117.01 91.76 117.97 90.84 119.20 C 90.75 118.88 90.57 118.23 90.48 117.91 C 90.46 108.93 90.31 99.94 90.46 90.95 Z" />
</g>
<g id="#34333dff">
<path fill="#34333d" opacity="1.00" d=" M 120.03 88.98 C 120.88 86.81 123.59 86.90 125.40 87.69 C 127.24 89.18 127.17 91.87 127.31 94.03 C 127.40 102.40 127.41 110.77 127.42 119.14 C 125.80 121.57 122.86 122.43 120.60 120.31 C 118.36 114.61 121.51 108.31 119.24 102.70 C 116.25 107.82 113.28 112.98 109.78 117.78 C 106.96 117.11 106.30 113.48 104.63 111.42 C 105.64 109.76 106.51 107.92 108.14 106.75 C 109.14 105.89 110.16 105.02 110.85 103.88 C 113.92 98.92 117.22 94.11 120.03 88.98 Z" />
</g>
<g id="#3a3944ff">
<path fill="#3a3944" opacity="1.00" d=" M 94.15 91.45 C 95.38 90.65 96.60 89.85 97.81 89.03 C 100.88 95.16 105.01 100.66 108.14 106.75 C 106.51 107.92 105.64 109.76 104.63 111.42 C 102.40 108.36 100.87 104.81 98.25 102.05 C 97.01 107.85 98.45 113.84 97.50 119.64 C 96.18 122.74 92.01 122.00 90.84 119.20 C 91.76 117.97 93.36 117.01 93.45 115.34 C 94.28 107.40 93.64 99.40 94.15 91.45 Z" />
</g>
<g id="#64383d81">
<path fill="#64383d" opacity="0.51" d=" M 10.92 107.11 C 11.12 105.88 11.79 105.24 12.95 105.19 C 26.31 105.43 39.69 105.19 53.05 105.19 C 55.29 105.74 58.05 107.04 58.17 109.70 C 58.41 112.93 59.27 116.08 59.41 119.32 C 57.94 115.94 57.59 112.26 57.11 108.65 C 54.65 105.61 50.47 105.73 46.93 105.65 C 35.51 105.74 24.08 105.51 12.67 105.95 C 12.23 106.24 11.36 106.82 10.92 107.11 Z" />
</g>
<g id="#cd843fff">
<path fill="#cd843f" opacity="1.00" d=" M 10.92 107.11 C 11.36 106.82 12.23 106.24 12.67 105.95 C 15.90 111.12 21.01 114.61 25.63 118.42 C 25.97 119.70 26.33 120.96 26.70 122.23 C 25.75 123.38 24.76 124.50 23.74 125.60 C 20.21 124.88 16.21 125.32 14.10 128.59 C 13.18 128.29 12.26 127.99 11.34 127.70 C 10.68 120.86 10.04 113.95 10.92 107.11 Z" />
</g>
<g id="#e97b86ff">
<path fill="#e97b86" opacity="1.00" d=" M 12.67 105.95 C 24.08 105.51 35.51 105.74 46.93 105.65 C 50.47 105.73 54.65 105.61 57.11 108.65 C 50.25 114.54 42.94 119.88 36.39 126.13 C 32.36 124.24 29.13 121.11 25.63 118.42 C 21.01 114.61 15.90 111.12 12.67 105.95 Z" />
</g>
<g id="#5fbebfff">
<path fill="#5fbebf" opacity="1.00" d=" M 162.93 108.87 C 163.38 107.40 164.63 106.49 165.78 105.58 C 173.33 105.33 180.93 105.16 188.46 105.52 C 190.98 107.40 194.31 106.78 197.10 108.01 C 196.00 109.86 194.39 111.30 192.98 112.90 C 189.68 117.57 187.12 122.79 185.63 128.32 C 185.45 129.55 184.04 129.80 183.21 130.43 C 183.39 131.86 183.51 133.29 183.69 134.72 C 182.56 134.53 180.97 135.08 180.47 133.69 C 178.25 130.15 175.02 127.46 171.90 124.76 C 169.53 121.87 166.71 119.40 164.22 116.63 C 162.11 114.59 163.00 111.45 162.93 108.87 Z" />
</g>
<g id="#5ab3b5ff">
<path fill="#5ab3b5" opacity="1.00" d=" M 188.46 105.52 C 194.83 105.63 201.59 104.47 207.70 106.58 C 210.30 108.21 209.99 111.66 209.28 114.19 C 204.48 117.76 201.66 123.28 196.77 126.73 C 192.48 130.10 189.02 134.38 184.73 137.75 C 181.85 141.83 180.79 146.93 178.40 151.32 C 174.94 156.66 168.57 158.95 163.49 162.42 C 158.53 165.98 152.86 168.34 147.73 171.62 C 146.59 170.38 145.81 168.91 145.29 167.31 C 143.87 167.08 142.44 166.85 141.02 166.62 C 142.23 166.26 143.43 165.91 144.65 165.55 C 144.59 162.18 144.66 158.57 146.59 155.66 C 148.00 153.61 149.70 151.76 150.85 149.54 C 157.71 148.50 161.14 141.84 166.78 138.64 C 169.71 136.04 171.49 132.34 174.71 130.00 C 173.65 128.32 172.72 126.57 171.90 124.76 C 175.02 127.46 178.25 130.15 180.47 133.69 C 180.97 135.08 182.56 134.53 183.69 134.72 C 183.51 133.29 183.39 131.86 183.21 130.43 C 184.04 129.80 185.45 129.55 185.63 128.32 C 187.12 122.79 189.68 117.57 192.98 112.90 C 194.39 111.30 196.00 109.86 197.10 108.01 C 194.31 106.78 190.98 107.40 188.46 105.52 Z" />
</g>
<g id="#d59747ff">
<path fill="#d59747" opacity="1.00" d=" M 9.75 109.89 C 10.06 108.92 10.45 108.00 10.92 107.11 C 10.04 113.95 10.68 120.86 11.34 127.70 C 12.26 127.99 13.18 128.29 14.10 128.59 C 16.21 125.32 20.21 124.88 23.74 125.60 C 24.76 124.50 25.75 123.38 26.70 122.23 C 26.33 120.96 25.97 119.70 25.63 118.42 C 29.13 121.11 32.36 124.24 36.39 126.13 C 37.32 128.47 38.22 130.83 38.75 133.30 C 38.85 133.72 39.04 134.57 39.14 134.99 C 38.55 134.41 37.95 133.83 37.34 133.27 C 37.13 134.28 36.93 135.29 36.72 136.30 C 31.67 136.69 26.59 137.72 22.05 140.05 C 19.74 141.17 16.71 139.75 14.77 141.77 C 13.27 143.25 10.85 144.49 10.95 146.92 C 10.39 157.34 11.08 167.78 10.67 178.21 C 9.91 175.90 9.61 173.48 9.67 171.05 C 9.54 150.66 9.45 130.28 9.75 109.89 Z" />
</g>
<g id="#b05b43ff">
<path fill="#b05b43" opacity="1.00" d=" M 36.39 126.13 C 42.94 119.88 50.25 114.54 57.11 108.65 C 57.59 112.26 57.94 115.94 59.41 119.32 C 60.09 121.82 61.34 124.18 61.73 126.74 C 61.52 127.20 61.10 128.10 60.89 128.56 C 60.33 128.21 59.76 127.87 59.19 127.52 C 57.13 128.21 54.97 128.41 52.87 128.92 C 49.62 129.88 47.04 132.20 43.97 133.56 C 42.25 133.97 40.48 133.45 38.75 133.30 C 38.22 130.83 37.32 128.47 36.39 126.13 Z" />
</g>
<g id="#4faaabff">
<path fill="#4faaab" opacity="1.00" d=" M 160.67 120.87 C 162.21 117.12 161.84 112.75 162.93 108.87 C 163.00 111.45 162.11 114.59 164.22 116.63 C 166.71 119.40 169.53 121.87 171.90 124.76 C 172.72 126.57 173.65 128.32 174.71 130.00 C 171.49 132.34 169.71 136.04 166.78 138.64 C 161.14 141.84 157.71 148.50 150.85 149.54 C 149.70 151.76 148.00 153.61 146.59 155.66 C 144.66 158.57 144.59 162.18 144.65 165.55 C 143.43 165.91 142.23 166.26 141.02 166.62 C 142.44 166.85 143.87 167.08 145.29 167.31 C 145.81 168.91 146.59 170.38 147.73 171.62 C 145.31 173.04 142.84 174.36 140.46 175.84 C 137.57 170.68 131.79 168.32 128.41 163.58 C 125.58 159.55 121.24 156.62 119.48 151.88 C 119.83 151.28 120.19 150.69 120.54 150.09 C 120.13 150.07 119.30 150.03 118.89 150.01 L 118.03 149.88 C 125.07 148.30 132.45 148.08 139.21 145.27 C 142.37 143.86 144.89 141.47 147.87 139.76 C 153.46 135.50 157.29 129.34 160.39 123.17 C 160.46 122.59 160.60 121.44 160.67 120.87 Z" />
</g>
<g id="#134050ff">
<path fill="#134050" opacity="1.00" d=" M 196.77 126.73 C 201.66 123.28 204.48 117.76 209.28 114.19 C 209.78 121.46 209.66 128.74 209.72 136.02 C 208.09 134.80 205.76 132.76 203.94 134.90 C 200.28 139.58 197.23 144.79 193.20 149.21 C 190.95 151.64 190.37 155.05 188.75 157.87 C 186.15 162.38 182.89 166.45 179.71 170.55 C 177.70 174.74 174.57 178.19 171.93 181.97 C 169.74 185.16 165.65 187.03 165.08 191.21 C 163.57 192.01 161.99 192.72 160.63 193.76 C 160.14 194.88 160.64 196.12 160.65 197.28 C 153.48 196.83 146.18 197.37 139.12 195.91 C 140.83 193.27 143.81 192.10 146.17 190.20 C 150.03 186.04 154.77 182.73 157.69 177.75 C 159.39 177.37 161.88 177.70 162.48 175.57 C 164.22 171.29 169.19 169.81 171.11 165.57 C 172.26 165.68 173.41 165.79 174.56 165.90 C 174.22 165.04 173.88 164.18 173.54 163.32 C 174.69 161.06 176.23 159.02 178.31 157.53 C 176.93 155.83 179.62 154.55 180.27 153.15 C 179.81 152.70 178.87 151.78 178.40 151.32 C 180.79 146.93 181.85 141.83 184.73 137.75 C 189.02 134.38 192.48 130.10 196.77 126.73 Z" />
</g>
<g id="#bc7646ff">
<path fill="#bc7646" opacity="1.00" d=" M 52.87 128.92 C 54.97 128.41 57.13 128.21 59.19 127.52 C 59.76 127.87 60.33 128.21 60.89 128.56 C 61.10 128.10 61.52 127.20 61.73 126.74 L 62.12 125.88 C 63.90 129.99 67.05 133.33 69.04 137.28 C 64.20 135.82 59.80 138.56 55.14 139.42 C 52.58 139.81 50.57 141.55 48.23 142.52 C 46.35 143.06 45.74 145.11 44.73 146.56 C 44.30 145.54 43.87 144.53 43.43 143.52 C 42.16 140.60 40.55 137.84 39.14 134.99 C 39.04 134.57 38.85 133.72 38.75 133.30 C 40.48 133.45 42.25 133.97 43.97 133.56 C 47.04 132.20 49.62 129.88 52.87 128.92 Z" />
</g>
<g id="#e4b452ff">
<path fill="#e4b452" opacity="1.00" d=" M 37.34 133.27 C 37.95 133.83 38.55 134.41 39.14 134.99 C 40.55 137.84 42.16 140.60 43.43 143.52 C 40.35 145.00 37.11 146.25 34.41 148.40 C 32.81 149.88 30.48 149.76 28.65 150.76 C 27.17 151.87 25.89 153.23 24.59 154.55 C 21.34 157.34 21.57 162.04 21.32 165.94 C 21.56 169.18 20.52 172.70 22.23 175.67 C 23.55 175.87 24.88 176.08 26.20 176.31 C 26.19 178.58 27.12 180.55 29.15 181.72 C 27.84 184.15 26.52 186.58 24.93 188.85 C 23.85 190.49 22.84 192.17 21.83 193.86 C 20.58 193.18 19.35 192.48 18.14 191.74 C 16.22 190.30 14.92 188.25 13.69 186.23 C 12.24 183.75 11.76 180.85 10.67 178.21 C 11.08 167.78 10.39 157.34 10.95 146.92 C 10.85 144.49 13.27 143.25 14.77 141.77 C 16.71 139.75 19.74 141.17 22.05 140.05 C 26.59 137.72 31.67 136.69 36.72 136.30 C 36.93 135.29 37.13 134.28 37.34 133.27 Z" />
</g>
<g id="#1c5668ff">
<path fill="#1c5668" opacity="1.00" d=" M 203.94 134.90 C 205.76 132.76 208.09 134.80 209.72 136.02 C 209.58 150.72 210.23 165.45 209.48 180.14 C 209.31 173.09 209.62 165.99 208.77 158.98 C 207.38 158.79 205.83 158.71 204.76 159.80 C 201.40 162.57 199.27 166.43 197.11 170.13 C 195.91 172.19 193.79 173.43 192.36 175.29 C 188.53 181.69 184.36 187.91 179.84 193.84 C 179.26 194.98 178.83 196.18 178.54 197.44 C 172.57 197.54 166.61 197.25 160.65 197.28 C 160.64 196.12 160.14 194.88 160.63 193.76 C 161.99 192.72 163.57 192.01 165.08 191.21 C 165.65 187.03 169.74 185.16 171.93 181.97 C 174.57 178.19 177.70 174.74 179.71 170.55 C 182.89 166.45 186.15 162.38 188.75 157.87 C 190.37 155.05 190.95 151.64 193.20 149.21 C 197.23 144.79 200.28 139.58 203.94 134.90 Z" />
</g>
<g id="#cd9650ff">
<path fill="#cd9650" opacity="1.00" d=" M 55.14 139.42 C 59.80 138.56 64.20 135.82 69.04 137.28 L 70.07 137.42 C 72.37 140.04 75.78 141.43 78.08 144.10 C 79.14 145.13 80.30 146.06 81.53 146.89 C 75.27 148.44 69.44 151.36 63.84 154.48 C 61.03 156.07 57.25 155.57 55.00 158.14 C 52.34 156.79 49.74 155.32 47.28 153.63 C 46.59 151.22 45.74 148.86 44.73 146.56 C 45.74 145.11 46.35 143.06 48.23 142.52 C 50.57 141.55 52.58 139.81 55.14 139.42 Z" />
</g>
<g id="#eac15bff">
<path fill="#eac15b" opacity="1.00" d=" M 34.41 148.40 C 37.11 146.25 40.35 145.00 43.43 143.52 C 43.87 144.53 44.30 145.54 44.73 146.56 C 45.74 148.86 46.59 151.22 47.28 153.63 C 42.95 160.22 38.37 166.66 34.60 173.59 C 33.09 176.50 31.01 179.03 29.15 181.72 C 27.12 180.55 26.19 178.58 26.20 176.31 C 24.88 176.08 23.55 175.87 22.23 175.67 C 20.52 172.70 21.56 169.18 21.32 165.94 C 21.57 162.04 21.34 157.34 24.59 154.55 C 25.89 153.23 27.17 151.87 28.65 150.76 C 30.48 149.76 32.81 149.88 34.41 148.40 Z" />
</g>
<g id="#b7844aff">
<path fill="#b7844a" opacity="1.00" d=" M 78.08 144.10 C 84.42 147.10 91.26 148.75 98.18 149.75 C 102.00 150.64 102.19 154.75 102.33 157.97 C 102.29 169.68 102.40 181.38 102.30 193.09 C 101.68 193.95 101.31 194.91 101.19 195.98 C 100.72 196.33 99.80 197.01 99.34 197.36 C 92.50 197.15 85.65 197.24 78.81 197.21 C 78.69 196.72 78.44 195.74 78.32 195.25 C 78.50 194.84 78.87 194.02 79.05 193.60 C 78.95 193.16 78.85 192.71 78.75 192.27 C 83.46 190.89 87.30 187.68 91.63 185.49 C 92.91 182.50 90.38 179.58 90.02 176.60 C 93.86 175.84 96.10 171.85 100.31 172.32 C 102.11 166.36 101.73 159.82 101.12 153.67 C 100.37 150.29 96.20 151.52 93.88 149.95 C 89.90 148.43 85.62 148.00 81.53 146.89 C 80.30 146.06 79.14 145.13 78.08 144.10 Z" />
</g>
<g id="#dbb05dff">
<path fill="#dbb05d" opacity="1.00" d=" M 63.84 154.48 C 69.44 151.36 75.27 148.44 81.53 146.89 C 85.62 148.00 89.90 148.43 93.88 149.95 C 89.43 150.56 84.74 151.32 81.00 153.98 C 78.41 155.54 76.11 157.48 73.76 159.36 C 73.46 159.23 72.86 158.99 72.56 158.86 C 70.67 161.25 66.88 160.39 65.35 163.09 C 61.87 161.50 58.37 159.96 55.00 158.14 C 57.25 155.57 61.03 156.07 63.84 154.48 Z" />
</g>
<g id="#e6c066ff">
<path fill="#e6c066" opacity="1.00" d=" M 81.00 153.98 C 84.74 151.32 89.43 150.56 93.88 149.95 C 96.20 151.52 100.37 150.29 101.12 153.67 C 96.80 157.25 91.82 159.93 87.60 163.64 C 84.92 166.02 81.42 167.44 77.81 167.19 C 74.10 166.33 70.44 165.22 66.90 163.80 L 65.35 163.09 C 66.88 160.39 70.67 161.25 72.56 158.86 C 72.86 158.99 73.46 159.23 73.76 159.36 C 76.11 157.48 78.41 155.54 81.00 153.98 Z" />
</g>
<g id="#459398ff">
<path fill="#459398" opacity="1.00" d=" M 118.89 150.01 C 119.30 150.03 120.13 150.07 120.54 150.09 C 120.19 150.69 119.83 151.28 119.48 151.88 C 121.24 156.62 125.58 159.55 128.41 163.58 C 131.79 168.32 137.57 170.68 140.46 175.84 C 138.67 177.21 136.99 178.73 135.23 180.15 C 133.88 180.65 132.51 181.09 131.15 181.53 C 130.32 181.00 129.50 180.48 128.68 179.96 C 125.32 181.30 122.32 178.50 119.27 177.47 C 118.87 169.88 119.11 162.22 117.38 154.76 C 117.36 153.39 117.42 152.01 117.56 150.65 L 118.89 150.01 Z" />
</g>
<g id="#0e3143ff">
<path fill="#0e3143" opacity="1.00" d=" M 163.49 162.42 C 168.57 158.95 174.94 156.66 178.40 151.32 C 178.87 151.78 179.81 152.70 180.27 153.15 C 179.62 154.55 176.93 155.83 178.31 157.53 C 176.23 159.02 174.69 161.06 173.54 163.32 C 173.88 164.18 174.22 165.04 174.56 165.90 C 173.41 165.79 172.26 165.68 171.11 165.57 C 169.19 169.81 164.22 171.29 162.48 175.57 C 161.88 177.70 159.39 177.37 157.69 177.75 C 154.77 182.73 150.03 186.04 146.17 190.20 C 143.81 192.10 140.83 193.27 139.12 195.91 C 146.18 197.37 153.48 196.83 160.65 197.28 C 166.61 197.25 172.57 197.54 178.54 197.44 C 182.92 197.92 187.30 196.87 191.65 197.32 L 191.83 197.66 C 180.95 198.73 169.91 198.03 159.06 198.06 C 149.09 197.39 139.04 197.80 129.04 197.70 C 125.29 198.22 121.97 195.65 118.20 196.80 L 118.85 196.50 C 122.14 195.11 124.02 191.86 126.57 189.53 C 129.67 186.59 132.12 183.07 135.23 180.15 C 136.99 178.73 138.67 177.21 140.46 175.84 C 142.84 174.36 145.31 173.04 147.73 171.62 C 152.86 168.34 158.53 165.98 163.49 162.42 Z" />
</g>
<g id="#7b3525ff">
<path fill="#7b3525" opacity="1.00" d=" M 34.60 173.59 C 38.37 166.66 42.95 160.22 47.28 153.63 C 49.74 155.32 52.34 156.79 55.00 158.14 C 58.37 159.96 61.87 161.50 65.35 163.09 L 66.90 163.80 C 63.09 165.16 58.93 164.38 54.97 164.42 C 53.74 167.42 50.25 170.11 47.26 167.57 C 45.51 170.80 42.66 173.69 38.80 173.93 C 36.95 176.97 35.75 180.62 32.62 182.65 C 30.07 184.31 28.68 187.05 27.53 189.77 C 26.88 189.54 25.58 189.08 24.93 188.85 C 26.52 186.58 27.84 184.15 29.15 181.72 C 31.01 179.03 33.09 176.50 34.60 173.59 Z" />
</g>
<g id="#a96d42ff">
<path fill="#a96d42" opacity="1.00" d=" M 87.60 163.64 C 91.82 159.93 96.80 157.25 101.12 153.67 C 101.73 159.82 102.11 166.36 100.31 172.32 C 96.10 171.85 93.86 175.84 90.02 176.60 C 90.38 179.58 92.91 182.50 91.63 185.49 C 87.30 187.68 83.46 190.89 78.75 192.27 C 78.85 192.71 78.95 193.16 79.05 193.60 C 78.87 194.02 78.50 194.84 78.32 195.25 C 78.44 195.74 78.69 196.72 78.81 197.21 C 71.89 197.20 64.98 197.23 58.07 197.19 C 57.36 196.43 56.64 195.67 55.93 194.92 C 58.33 192.04 62.19 191.26 65.11 189.08 C 68.91 186.37 73.66 185.38 77.21 182.27 C 79.79 180.03 83.72 179.66 85.66 176.66 C 86.40 173.40 83.92 170.71 82.17 168.25 C 81.71 168.13 80.81 167.91 80.35 167.79 C 79.72 167.64 78.45 167.34 77.81 167.19 C 81.42 167.44 84.92 166.02 87.60 163.64 Z" />
</g>
<g id="#3e8b8eff">
<path fill="#3e8b8e" opacity="1.00" d=" M 117.21 169.03 C 117.41 164.27 116.96 159.51 117.38 154.76 C 119.11 162.22 118.87 169.88 119.27 177.47 C 122.32 178.50 125.32 181.30 128.68 179.96 C 129.50 180.48 130.32 181.00 131.15 181.53 C 132.51 181.09 133.88 180.65 135.23 180.15 C 132.12 183.07 129.67 186.59 126.57 189.53 C 124.02 191.86 122.14 195.11 118.85 196.50 C 116.97 194.95 116.93 192.24 116.74 190.00 C 116.99 183.01 116.33 175.98 117.21 169.03 Z" />
</g>
<g id="#267283ff">
<path fill="#267283" opacity="1.00" d=" M 204.76 159.80 C 205.83 158.71 207.38 158.79 208.77 158.98 C 209.62 165.99 209.31 173.09 209.48 180.14 C 207.29 188.35 200.43 196.46 191.65 197.32 C 187.30 196.87 182.92 197.92 178.54 197.44 C 178.83 196.18 179.26 194.98 179.84 193.84 C 184.36 187.91 188.53 181.69 192.36 175.29 C 193.79 173.43 195.91 172.19 197.11 170.13 C 199.27 166.43 201.40 162.57 204.76 159.80 Z" />
</g>
<g id="#8f4731ff">
<path fill="#8f4731" opacity="1.00" d=" M 54.97 164.42 C 58.93 164.38 63.09 165.16 66.90 163.80 C 70.44 165.22 74.10 166.33 77.81 167.19 C 78.45 167.34 79.72 167.64 80.35 167.79 C 80.38 168.96 80.44 170.14 80.56 171.31 C 79.38 171.31 78.19 171.31 77.01 171.32 C 75.28 173.62 72.58 174.79 70.23 176.33 C 67.96 178.20 64.69 176.54 62.33 178.20 C 58.49 180.28 56.49 184.53 52.65 186.60 C 49.23 188.52 46.48 191.69 42.44 192.37 C 42.79 192.77 43.14 193.18 43.49 193.59 C 42.67 194.03 41.85 194.47 41.04 194.92 C 41.25 195.52 41.68 196.71 41.89 197.31 C 35.07 197.48 28.03 196.94 21.83 193.86 C 22.84 192.17 23.85 190.49 24.93 188.85 C 25.58 189.08 26.88 189.54 27.53 189.77 C 28.68 187.05 30.07 184.31 32.62 182.65 C 35.75 180.62 36.95 176.97 38.80 173.93 C 42.66 173.69 45.51 170.80 47.26 167.57 C 50.25 170.11 53.74 167.42 54.97 164.42 Z" />
</g>
<g id="#9e5d3bff">
<path fill="#9e5d3b" opacity="1.00" d=" M 80.35 167.79 C 80.81 167.91 81.71 168.13 82.17 168.25 C 83.92 170.71 86.40 173.40 85.66 176.66 C 83.72 179.66 79.79 180.03 77.21 182.27 C 73.66 185.38 68.91 186.37 65.11 189.08 C 62.19 191.26 58.33 192.04 55.93 194.92 C 56.64 195.67 57.36 196.43 58.07 197.19 C 52.67 197.10 47.28 197.43 41.89 197.31 C 41.68 196.71 41.25 195.52 41.04 194.92 C 41.85 194.47 42.67 194.03 43.49 193.59 C 43.14 193.18 42.79 192.77 42.44 192.37 C 46.48 191.69 49.23 188.52 52.65 186.60 C 56.49 184.53 58.49 180.28 62.33 178.20 C 64.69 176.54 67.96 178.20 70.23 176.33 C 72.58 174.79 75.28 173.62 77.01 171.32 C 78.19 171.31 79.38 171.31 80.56 171.31 C 80.44 170.14 80.38 168.96 80.35 167.79 Z" />
</g>
<g id="#6b47329b">
<path fill="#6b4732" opacity="0.61" d=" M 18.14 191.74 C 19.35 192.48 20.58 193.18 21.83 193.86 C 28.03 196.94 35.07 197.48 41.89 197.31 C 47.28 197.43 52.67 197.10 58.07 197.19 C 64.98 197.23 71.89 197.20 78.81 197.21 C 85.65 197.24 92.50 197.15 99.34 197.36 C 98.28 197.89 97.17 198.14 95.99 198.12 C 74.30 198.20 52.61 198.17 30.94 197.58 C 26.44 196.68 20.80 195.90 18.14 191.74 Z" />
</g>
</svg>
